<?xml version="1.0" encoding="UTF-8" standalone="no"?>
<!DOCTYPE svg PUBLIC "-//W3C//DTD SVG 1.1//EN"
 "http://www.w3.org/Graphics/SVG/1.1/DTD/svg11.dtd">
<!-- Generated by graphviz version 2.43.0 (0)
 -->
<!-- Title: Tree Pages: 1 -->
<svg width="588pt" height="428pt"
 viewBox="0.00 0.00 588.00 428.00" xmlns="http://www.w3.org/2000/svg" xmlns:xlink="http://www.w3.org/1999/xlink">
<g id="graph0" class="graph" transform="scale(1 1) rotate(0) translate(4 424)">
<title>Tree</title>
<polygon fill="#ffe7a5" stroke="transparent" points="-4,4 -4,-424 584,-424 584,4 -4,4"/>
<!-- node0x5fde8ecc01b0 -->
<g id="node1" class="node">
<title>node0x5fde8ecc01b0</title>
<path fill="#e07082" stroke="#203d98" d="M183.5,-304.5C183.5,-304.5 500.5,-304.5 500.5,-304.5 506.5,-304.5 512.5,-310.5 512.5,-316.5 512.5,-316.5 512.5,-407.5 512.5,-407.5 512.5,-413.5 506.5,-419.5 500.5,-419.5 500.5,-419.5 183.5,-419.5 183.5,-419.5 177.5,-419.5 171.5,-413.5 171.5,-407.5 171.5,-407.5 171.5,-316.5 171.5,-316.5 171.5,-310.5 177.5,-304.5 183.5,-304.5"/>
<text text-anchor="middle" x="342" y="-404.3" font-family="Times,serif" font-size="14.00">indx: 0x5fde8ecc01b0</text>
<polyline fill="none" stroke="#203d98" points="171.5,-396.5 512.5,-396.5 "/>
<text text-anchor="middle" x="342" y="-381.3" font-family="Times,serif" font-size="14.00">type: 1</text>
<polyline fill="none" stroke="#203d98" points="171.5,-373.5 512.5,-373.5 "/>
<text text-anchor="middle" x="342" y="-358.3" font-family="Times,serif" font-size="14.00">value: *</text>
<polyline fill="none" stroke="#203d98" points="171.5,-350.5 512.5,-350.5 "/>
<text text-anchor="middle" x="342" y="-335.3" font-family="Times,serif" font-size="14.00">parent: (nil)</text>
<polyline fill="none" stroke="#203d98" points="171.5,-327.5 512.5,-327.5 "/>
<text text-anchor="middle" x="255" y="-312.3" font-family="Times,serif" font-size="14.00">left: 0x5fde8ecc0180</text>
<polyline fill="none" stroke="#203d98" points="338.5,-304.5 338.5,-327.5 "/>
<text text-anchor="middle" x="425.5" y="-312.3" font-family="Times,serif" font-size="14.00">right: 0x5fde8ecc00f0</text>
</g>
<!-- node0x5fde8ecc0180 -->
<g id="node2" class="node">
<title>node0x5fde8ecc0180</title>
<path fill="#e07082" stroke="#203d98" d="M38.5,-152.5C38.5,-152.5 359.5,-152.5 359.5,-152.5 365.5,-152.5 371.5,-158.5 371.5,-164.5 371.5,-164.5 371.5,-255.5 371.5,-255.5 371.5,-261.5 365.5,-267.5 359.5,-267.5 359.5,-267.5 38.5,-267.5 38.5,-267.5 32.5,-267.5 26.5,-261.5 26.5,-255.5 26.5,-255.5 26.5,-164.5 26.5,-164.5 26.5,-158.5 32.5,-152.5 38.5,-152.5"/>
<text text-anchor="middle" x="199" y="-252.3" font-family="Times,serif" font-size="14.00">indx: 0x5fde8ecc0180</text>
<polyline fill="none" stroke="#203d98" points="26.5,-244.5 371.5,-244.5 "/>
<text text-anchor="middle" x="199" y="-229.3" font-family="Times,serif" font-size="14.00">type: 1</text>
<polyline fill="none" stroke="#203d98" points="26.5,-221.5 371.5,-221.5 "/>
<text text-anchor="middle" x="199" y="-206.3" font-family="Times,serif" font-size="14.00">value: /</text>
<polyline fill="none" stroke="#203d98" points="26.5,-198.5 371.5,-198.5 "/>
<text text-anchor="middle" x="199" y="-183.3" font-family="Times,serif" font-size="14.00">parent: 0x5fde8ecc01b0</text>
<polyline fill="none" stroke="#203d98" points="26.5,-175.5 371.5,-175.5 "/>
<text text-anchor="middle" x="110" y="-160.3" font-family="Times,serif" font-size="14.00">left: 0x5fde8ecc0150</text>
<polyline fill="none" stroke="#203d98" points="193.5,-152.5 193.5,-175.5 "/>
<text text-anchor="middle" x="282.5" y="-160.3" font-family="Times,serif" font-size="14.00">right: 0x5fde8ecc0120</text>
</g>
<!-- node0x5fde8ecc01b0&#45;&gt;node0x5fde8ecc0180 -->
<g id="edge1" class="edge">
<title>node0x5fde8ecc01b0&#45;&gt;node0x5fde8ecc0180</title>
<path fill="none" stroke="#203d98" d="M287.94,-304.29C278.86,-294.77 269.39,-284.83 260.15,-275.14"/>
<polygon fill="#203d98" stroke="#203d98" points="262.57,-272.61 253.14,-267.79 257.51,-277.44 262.57,-272.61"/>
</g>
<!-- node0x5fde8ecc00f0 -->
<g id="node5" class="node">
<title>node0x5fde8ecc00f0</title>
<path fill="#faaa82" stroke="#203d98" d="M402,-152.5C402,-152.5 568,-152.5 568,-152.5 574,-152.5 580,-158.5 580,-164.5 580,-164.5 580,-255.5 580,-255.5 580,-261.5 574,-267.5 568,-267.5 568,-267.5 402,-267.5 402,-267.5 396,-267.5 390,-261.5 390,-255.5 390,-255.5 390,-164.5 390,-164.5 390,-158.5 396,-152.5 402,-152.5"/>
<text text-anchor="middle" x="485" y="-252.3" font-family="Times,serif" font-size="14.00">indx: 0x5fde8ecc00f0</text>
<polyline fill="none" stroke="#203d98" points="390,-244.5 580,-244.5 "/>
<text text-anchor="middle" x="485" y="-229.3" font-family="Times,serif" font-size="14.00">type: 3</text>
<polyline fill="none" stroke="#203d98" points="390,-221.5 580,-221.5 "/>
<text text-anchor="middle" x="485" y="-206.3" font-family="Times,serif" font-size="14.00">value: 1.00</text>
<polyline fill="none" stroke="#203d98" points="390,-198.5 580,-198.5 "/>
<text text-anchor="middle" x="485" y="-183.3" font-family="Times,serif" font-size="14.00">parent: 0x5fde8ecc01b0</text>
<polyline fill="none" stroke="#203d98" points="390,-175.5 580,-175.5 "/>
<text text-anchor="middle" x="434.5" y="-160.3" font-family="Times,serif" font-size="14.00">left: (nil)</text>
<polyline fill="none" stroke="#203d98" points="479,-152.5 479,-175.5 "/>
<text text-anchor="middle" x="529.5" y="-160.3" font-family="Times,serif" font-size="14.00">right: (nil)</text>
</g>
<!-- node0x5fde8ecc01b0&#45;&gt;node0x5fde8ecc00f0 -->
<g id="edge4" class="edge">
<title>node0x5fde8ecc01b0&#45;&gt;node0x5fde8ecc00f0</title>
<path fill="none" stroke="#203d98" d="M396.06,-304.29C405.14,-294.77 414.61,-284.83 423.85,-275.14"/>
<polygon fill="#203d98" stroke="#203d98" points="426.49,-277.44 430.86,-267.79 421.43,-272.61 426.49,-277.44"/>
</g>
<!-- node0x5fde8ecc0150 -->
<g id="node3" class="node">
<title>node0x5fde8ecc0150</title>
<path fill="#faaa82" stroke="#203d98" d="M12,-0.5C12,-0.5 178,-0.5 178,-0.5 184,-0.5 190,-6.5 190,-12.5 190,-12.5 190,-103.5 190,-103.5 190,-109.5 184,-115.5 178,-115.5 178,-115.5 12,-115.5 12,-115.5 6,-115.5 0,-109.5 0,-103.5 0,-103.5 0,-12.5 0,-12.5 0,-6.5 6,-0.5 12,-0.5"/>
<text text-anchor="middle" x="95" y="-100.3" font-family="Times,serif" font-size="14.00">indx: 0x5fde8ecc0150</text>
<polyline fill="none" stroke="#203d98" points="0,-92.5 190,-92.5 "/>
<text text-anchor="middle" x="95" y="-77.3" font-family="Times,serif" font-size="14.00">type: 3</text>
<polyline fill="none" stroke="#203d98" points="0,-69.5 190,-69.5 "/>
<text text-anchor="middle" x="95" y="-54.3" font-family="Times,serif" font-size="14.00">value: 1.00</text>
<polyline fill="none" stroke="#203d98" points="0,-46.5 190,-46.5 "/>
<text text-anchor="middle" x="95" y="-31.3" font-family="Times,serif" font-size="14.00">parent: 0x5fde8ecc0180</text>
<polyline fill="none" stroke="#203d98" points="0,-23.5 190,-23.5 "/>
<text text-anchor="middle" x="44.5" y="-8.3" font-family="Times,serif" font-size="14.00">left: (nil)</text>
<polyline fill="none" stroke="#203d98" points="89,-0.5 89,-23.5 "/>
<text text-anchor="middle" x="139.5" y="-8.3" font-family="Times,serif" font-size="14.00">right: (nil)</text>
</g>
<!-- node0x5fde8ecc0180&#45;&gt;node0x5fde8ecc0150 -->
<g id="edge2" class="edge">
<title>node0x5fde8ecc0180&#45;&gt;node0x5fde8ecc0150</title>
<path fill="none" stroke="#203d98" d="M159.68,-152.29C153.34,-143.14 146.73,-133.61 140.26,-124.28"/>
<polygon fill="#203d98" stroke="#203d98" points="142.95,-122.01 134.37,-115.79 137.2,-126 142.95,-122.01"/>
</g>
<!-- node0x5fde8ecc0120 -->
<g id="node4" class="node">
<title>node0x5fde8ecc0120</title>
<path fill="#a24892" stroke="#203d98" d="M220,-0.5C220,-0.5 386,-0.5 386,-0.5 392,-0.5 398,-6.5 398,-12.5 398,-12.5 398,-103.5 398,-103.5 398,-109.5 392,-115.5 386,-115.5 386,-115.5 220,-115.5 220,-115.5 214,-115.5 208,-109.5 208,-103.5 208,-103.5 208,-12.5 208,-12.5 208,-6.5 214,-0.5 220,-0.5"/>
<text text-anchor="middle" x="303" y="-100.3" font-family="Times,serif" font-size="14.00">indx: 0x5fde8ecc0120</text>
<polyline fill="none" stroke="#203d98" points="208,-92.5 398,-92.5 "/>
<text text-anchor="middle" x="303" y="-77.3" font-family="Times,serif" font-size="14.00">type: 2</text>
<polyline fill="none" stroke="#203d98" points="208,-69.5 398,-69.5 "/>
<text text-anchor="middle" x="303" y="-54.3" font-family="Times,serif" font-size="14.00">value: x</text>
<polyline fill="none" stroke="#203d98" points="208,-46.5 398,-46.5 "/>
<text text-anchor="middle" x="303" y="-31.3" font-family="Times,serif" font-size="14.00">parent: 0x5fde8ecc0180</text>
<polyline fill="none" stroke="#203d98" points="208,-23.5 398,-23.5 "/>
<text text-anchor="middle" x="252.5" y="-8.3" font-family="Times,serif" font-size="14.00">left: (nil)</text>
<polyline fill="none" stroke="#203d98" points="297,-0.5 297,-23.5 "/>
<text text-anchor="middle" x="347.5" y="-8.3" font-family="Times,serif" font-size="14.00">right: (nil)</text>
</g>
<!-- node0x5fde8ecc0180&#45;&gt;node0x5fde8ecc0120 -->
<g id="edge3" class="edge">
<title>node0x5fde8ecc0180&#45;&gt;node0x5fde8ecc0120</title>
<path fill="none" stroke="#203d98" d="M238.32,-152.29C244.66,-143.14 251.27,-133.61 257.74,-124.28"/>
<polygon fill="#203d98" stroke="#203d98" points="260.8,-126 263.63,-115.79 255.05,-122.01 260.8,-126"/>
</g>
</g>
</svg>
