<?xml version="1.0" encoding="UTF-8" standalone="no"?>
<!DOCTYPE svg PUBLIC "-//W3C//DTD SVG 1.1//EN"
 "http://www.w3.org/Graphics/SVG/1.1/DTD/svg11.dtd">
<!-- Generated by graphviz version 2.43.0 (0)
 -->
<!-- Title: Tree Pages: 1 -->
<svg width="2503pt" height="884pt"
 viewBox="0.00 0.00 2503.00 884.00" xmlns="http://www.w3.org/2000/svg" xmlns:xlink="http://www.w3.org/1999/xlink">
<g id="graph0" class="graph" transform="scale(1 1) rotate(0) translate(4 880)">
<title>Tree</title>
<polygon fill="#ffe7a5" stroke="transparent" points="-4,4 -4,-880 2499,-880 2499,4 -4,4"/>
<!-- node0x5b17d0b733c0 -->
<g id="node1" class="node">
<title>node0x5b17d0b733c0</title>
<path fill="#e07082" stroke="#203d98" d="M1740.5,-760.5C1740.5,-760.5 2077.5,-760.5 2077.5,-760.5 2083.5,-760.5 2089.5,-766.5 2089.5,-772.5 2089.5,-772.5 2089.5,-863.5 2089.5,-863.5 2089.5,-869.5 2083.5,-875.5 2077.5,-875.5 2077.5,-875.5 1740.5,-875.5 1740.5,-875.5 1734.5,-875.5 1728.5,-869.5 1728.5,-863.5 1728.5,-863.5 1728.5,-772.5 1728.5,-772.5 1728.5,-766.5 1734.5,-760.5 1740.5,-760.5"/>
<text text-anchor="middle" x="1909" y="-860.3" font-family="Times,serif" font-size="14.00">indx: 0x5b17d0b733c0</text>
<polyline fill="none" stroke="#203d98" points="1728.5,-852.5 2089.5,-852.5 "/>
<text text-anchor="middle" x="1909" y="-837.3" font-family="Times,serif" font-size="14.00">type: 1</text>
<polyline fill="none" stroke="#203d98" points="1728.5,-829.5 2089.5,-829.5 "/>
<text text-anchor="middle" x="1909" y="-814.3" font-family="Times,serif" font-size="14.00">value: /</text>
<polyline fill="none" stroke="#203d98" points="1728.5,-806.5 2089.5,-806.5 "/>
<text text-anchor="middle" x="1909" y="-791.3" font-family="Times,serif" font-size="14.00">parent: (nil)</text>
<polyline fill="none" stroke="#203d98" points="1728.5,-783.5 2089.5,-783.5 "/>
<text text-anchor="middle" x="1816" y="-768.3" font-family="Times,serif" font-size="14.00">left: 0x5b17d0b73390</text>
<polyline fill="none" stroke="#203d98" points="1903.5,-760.5 1903.5,-783.5 "/>
<text text-anchor="middle" x="1996.5" y="-768.3" font-family="Times,serif" font-size="14.00">right: 0x5b17d0b73300</text>
</g>
<!-- node0x5b17d0b73390 -->
<g id="node2" class="node">
<title>node0x5b17d0b73390</title>
<path fill="#e07082" stroke="#203d98" d="M1403.5,-608.5C1403.5,-608.5 1740.5,-608.5 1740.5,-608.5 1746.5,-608.5 1752.5,-614.5 1752.5,-620.5 1752.5,-620.5 1752.5,-711.5 1752.5,-711.5 1752.5,-717.5 1746.5,-723.5 1740.5,-723.5 1740.5,-723.5 1403.5,-723.5 1403.5,-723.5 1397.5,-723.5 1391.5,-717.5 1391.5,-711.5 1391.5,-711.5 1391.5,-620.5 1391.5,-620.5 1391.5,-614.5 1397.5,-608.5 1403.5,-608.5"/>
<text text-anchor="middle" x="1572" y="-708.3" font-family="Times,serif" font-size="14.00">indx: 0x5b17d0b73390</text>
<polyline fill="none" stroke="#203d98" points="1391.5,-700.5 1752.5,-700.5 "/>
<text text-anchor="middle" x="1572" y="-685.3" font-family="Times,serif" font-size="14.00">type: 1</text>
<polyline fill="none" stroke="#203d98" points="1391.5,-677.5 1752.5,-677.5 "/>
<text text-anchor="middle" x="1572" y="-662.3" font-family="Times,serif" font-size="14.00">value: &#45;</text>
<polyline fill="none" stroke="#203d98" points="1391.5,-654.5 1752.5,-654.5 "/>
<text text-anchor="middle" x="1572" y="-639.3" font-family="Times,serif" font-size="14.00">parent: 0x5b17d0b733c0</text>
<polyline fill="none" stroke="#203d98" points="1391.5,-631.5 1752.5,-631.5 "/>
<text text-anchor="middle" x="1479" y="-616.3" font-family="Times,serif" font-size="14.00">left: 0x5b17d0b73360</text>
<polyline fill="none" stroke="#203d98" points="1566.5,-608.5 1566.5,-631.5 "/>
<text text-anchor="middle" x="1659.5" y="-616.3" font-family="Times,serif" font-size="14.00">right: 0x5b17d0b73330</text>
</g>
<!-- node0x5b17d0b733c0&#45;&gt;node0x5b17d0b73390 -->
<g id="edge1" class="edge">
<title>node0x5b17d0b733c0&#45;&gt;node0x5b17d0b73390</title>
<path fill="none" stroke="#203d98" d="M1781.59,-760.29C1757.63,-749.62 1732.48,-738.43 1708.26,-727.65"/>
<polygon fill="#203d98" stroke="#203d98" points="1709.59,-724.41 1699.03,-723.54 1706.74,-730.8 1709.59,-724.41"/>
</g>
<!-- node0x5b17d0b73300 -->
<g id="node21" class="node">
<title>node0x5b17d0b73300</title>
<path fill="#e07082" stroke="#203d98" d="M1930.5,-608.5C1930.5,-608.5 2267.5,-608.5 2267.5,-608.5 2273.5,-608.5 2279.5,-614.5 2279.5,-620.5 2279.5,-620.5 2279.5,-711.5 2279.5,-711.5 2279.5,-717.5 2273.5,-723.5 2267.5,-723.5 2267.5,-723.5 1930.5,-723.5 1930.5,-723.5 1924.5,-723.5 1918.5,-717.5 1918.5,-711.5 1918.5,-711.5 1918.5,-620.5 1918.5,-620.5 1918.5,-614.5 1924.5,-608.5 1930.5,-608.5"/>
<text text-anchor="middle" x="2099" y="-708.3" font-family="Times,serif" font-size="14.00">indx: 0x5b17d0b73300</text>
<polyline fill="none" stroke="#203d98" points="1918.5,-700.5 2279.5,-700.5 "/>
<text text-anchor="middle" x="2099" y="-685.3" font-family="Times,serif" font-size="14.00">type: 1</text>
<polyline fill="none" stroke="#203d98" points="1918.5,-677.5 2279.5,-677.5 "/>
<text text-anchor="middle" x="2099" y="-662.3" font-family="Times,serif" font-size="14.00">value: ^</text>
<polyline fill="none" stroke="#203d98" points="1918.5,-654.5 2279.5,-654.5 "/>
<text text-anchor="middle" x="2099" y="-639.3" font-family="Times,serif" font-size="14.00">parent: 0x5b17d0b733c0</text>
<polyline fill="none" stroke="#203d98" points="1918.5,-631.5 2279.5,-631.5 "/>
<text text-anchor="middle" x="2006" y="-616.3" font-family="Times,serif" font-size="14.00">left: 0x5b17d0b73240</text>
<polyline fill="none" stroke="#203d98" points="2093.5,-608.5 2093.5,-631.5 "/>
<text text-anchor="middle" x="2186.5" y="-616.3" font-family="Times,serif" font-size="14.00">right: 0x5b17d0b732d0</text>
</g>
<!-- node0x5b17d0b733c0&#45;&gt;node0x5b17d0b73300 -->
<g id="edge20" class="edge">
<title>node0x5b17d0b733c0&#45;&gt;node0x5b17d0b73300</title>
<path fill="none" stroke="#203d98" d="M1980.83,-760.29C1993.45,-750.33 2006.65,-739.91 2019.46,-729.79"/>
<polygon fill="#203d98" stroke="#203d98" points="2021.7,-732.48 2027.38,-723.54 2017.37,-726.99 2021.7,-732.48"/>
</g>
<!-- node0x5b17d0b73360 -->
<g id="node3" class="node">
<title>node0x5b17d0b73360</title>
<path fill="#e07082" stroke="#203d98" d="M867.5,-456.5C867.5,-456.5 1204.5,-456.5 1204.5,-456.5 1210.5,-456.5 1216.5,-462.5 1216.5,-468.5 1216.5,-468.5 1216.5,-559.5 1216.5,-559.5 1216.5,-565.5 1210.5,-571.5 1204.5,-571.5 1204.5,-571.5 867.5,-571.5 867.5,-571.5 861.5,-571.5 855.5,-565.5 855.5,-559.5 855.5,-559.5 855.5,-468.5 855.5,-468.5 855.5,-462.5 861.5,-456.5 867.5,-456.5"/>
<text text-anchor="middle" x="1036" y="-556.3" font-family="Times,serif" font-size="14.00">indx: 0x5b17d0b73360</text>
<polyline fill="none" stroke="#203d98" points="855.5,-548.5 1216.5,-548.5 "/>
<text text-anchor="middle" x="1036" y="-533.3" font-family="Times,serif" font-size="14.00">type: 1</text>
<polyline fill="none" stroke="#203d98" points="855.5,-525.5 1216.5,-525.5 "/>
<text text-anchor="middle" x="1036" y="-510.3" font-family="Times,serif" font-size="14.00">value: *</text>
<polyline fill="none" stroke="#203d98" points="855.5,-502.5 1216.5,-502.5 "/>
<text text-anchor="middle" x="1036" y="-487.3" font-family="Times,serif" font-size="14.00">parent: 0x5b17d0b73390</text>
<polyline fill="none" stroke="#203d98" points="855.5,-479.5 1216.5,-479.5 "/>
<text text-anchor="middle" x="943" y="-464.3" font-family="Times,serif" font-size="14.00">left: 0x5b17d0b73060</text>
<polyline fill="none" stroke="#203d98" points="1030.5,-456.5 1030.5,-479.5 "/>
<text text-anchor="middle" x="1123.5" y="-464.3" font-family="Times,serif" font-size="14.00">right: 0x5b17d0b731b0</text>
</g>
<!-- node0x5b17d0b73390&#45;&gt;node0x5b17d0b73360 -->
<g id="edge2" class="edge">
<title>node0x5b17d0b73390&#45;&gt;node0x5b17d0b73360</title>
<path fill="none" stroke="#203d98" d="M1391.28,-614.43C1338.35,-599.61 1280.32,-583.37 1226.79,-568.39"/>
<polygon fill="#203d98" stroke="#203d98" points="1227.42,-564.93 1216.84,-565.61 1225.53,-571.68 1227.42,-564.93"/>
</g>
<!-- node0x5b17d0b73330 -->
<g id="node14" class="node">
<title>node0x5b17d0b73330</title>
<path fill="#e07082" stroke="#203d98" d="M1405.5,-456.5C1405.5,-456.5 1738.5,-456.5 1738.5,-456.5 1744.5,-456.5 1750.5,-462.5 1750.5,-468.5 1750.5,-468.5 1750.5,-559.5 1750.5,-559.5 1750.5,-565.5 1744.5,-571.5 1738.5,-571.5 1738.5,-571.5 1405.5,-571.5 1405.5,-571.5 1399.5,-571.5 1393.5,-565.5 1393.5,-559.5 1393.5,-559.5 1393.5,-468.5 1393.5,-468.5 1393.5,-462.5 1399.5,-456.5 1405.5,-456.5"/>
<text text-anchor="middle" x="1572" y="-556.3" font-family="Times,serif" font-size="14.00">indx: 0x5b17d0b73330</text>
<polyline fill="none" stroke="#203d98" points="1393.5,-548.5 1750.5,-548.5 "/>
<text text-anchor="middle" x="1572" y="-533.3" font-family="Times,serif" font-size="14.00">type: 1</text>
<polyline fill="none" stroke="#203d98" points="1393.5,-525.5 1750.5,-525.5 "/>
<text text-anchor="middle" x="1572" y="-510.3" font-family="Times,serif" font-size="14.00">value: *</text>
<polyline fill="none" stroke="#203d98" points="1393.5,-502.5 1750.5,-502.5 "/>
<text text-anchor="middle" x="1572" y="-487.3" font-family="Times,serif" font-size="14.00">parent: 0x5b17d0b73390</text>
<polyline fill="none" stroke="#203d98" points="1393.5,-479.5 1750.5,-479.5 "/>
<text text-anchor="middle" x="1481" y="-464.3" font-family="Times,serif" font-size="14.00">left: 0x5b17d0b73120</text>
<polyline fill="none" stroke="#203d98" points="1568.5,-456.5 1568.5,-479.5 "/>
<text text-anchor="middle" x="1659.5" y="-464.3" font-family="Times,serif" font-size="14.00">right: 0x5b17d0b730f0</text>
</g>
<!-- node0x5b17d0b73390&#45;&gt;node0x5b17d0b73330 -->
<g id="edge13" class="edge">
<title>node0x5b17d0b73390&#45;&gt;node0x5b17d0b73330</title>
<path fill="none" stroke="#203d98" d="M1572,-608.29C1572,-599.7 1572,-590.78 1572,-582"/>
<polygon fill="#203d98" stroke="#203d98" points="1575.5,-581.79 1572,-571.79 1568.5,-581.79 1575.5,-581.79"/>
</g>
<!-- node0x5b17d0b73060 -->
<g id="node4" class="node">
<title>node0x5b17d0b73060</title>
<path fill="#e07082" stroke="#203d98" d="M478.5,-304.5C478.5,-304.5 815.5,-304.5 815.5,-304.5 821.5,-304.5 827.5,-310.5 827.5,-316.5 827.5,-316.5 827.5,-407.5 827.5,-407.5 827.5,-413.5 821.5,-419.5 815.5,-419.5 815.5,-419.5 478.5,-419.5 478.5,-419.5 472.5,-419.5 466.5,-413.5 466.5,-407.5 466.5,-407.5 466.5,-316.5 466.5,-316.5 466.5,-310.5 472.5,-304.5 478.5,-304.5"/>
<text text-anchor="middle" x="647" y="-404.3" font-family="Times,serif" font-size="14.00">indx: 0x5b17d0b73060</text>
<polyline fill="none" stroke="#203d98" points="466.5,-396.5 827.5,-396.5 "/>
<text text-anchor="middle" x="647" y="-381.3" font-family="Times,serif" font-size="14.00">type: 1</text>
<polyline fill="none" stroke="#203d98" points="466.5,-373.5 827.5,-373.5 "/>
<text text-anchor="middle" x="647" y="-358.3" font-family="Times,serif" font-size="14.00">value: +</text>
<polyline fill="none" stroke="#203d98" points="466.5,-350.5 827.5,-350.5 "/>
<text text-anchor="middle" x="647" y="-335.3" font-family="Times,serif" font-size="14.00">parent: 0x5b17d0b73360</text>
<polyline fill="none" stroke="#203d98" points="466.5,-327.5 827.5,-327.5 "/>
<text text-anchor="middle" x="554" y="-312.3" font-family="Times,serif" font-size="14.00">left: 0x5b17d0b73030</text>
<polyline fill="none" stroke="#203d98" points="641.5,-304.5 641.5,-327.5 "/>
<text text-anchor="middle" x="734.5" y="-312.3" font-family="Times,serif" font-size="14.00">right: 0x5b17d0b73000</text>
</g>
<!-- node0x5b17d0b73360&#45;&gt;node0x5b17d0b73060 -->
<g id="edge3" class="edge">
<title>node0x5b17d0b73360&#45;&gt;node0x5b17d0b73060</title>
<path fill="none" stroke="#203d98" d="M889.21,-456.4C861.17,-445.58 831.72,-434.23 803.39,-423.3"/>
<polygon fill="#203d98" stroke="#203d98" points="804.42,-419.95 793.83,-419.62 801.9,-426.48 804.42,-419.95"/>
</g>
<!-- node0x5b17d0b731b0 -->
<g id="node11" class="node">
<title>node0x5b17d0b731b0</title>
<path fill="#e07082" stroke="#203d98" d="M868,-304.5C868,-304.5 1204,-304.5 1204,-304.5 1210,-304.5 1216,-310.5 1216,-316.5 1216,-316.5 1216,-407.5 1216,-407.5 1216,-413.5 1210,-419.5 1204,-419.5 1204,-419.5 868,-419.5 868,-419.5 862,-419.5 856,-413.5 856,-407.5 856,-407.5 856,-316.5 856,-316.5 856,-310.5 862,-304.5 868,-304.5"/>
<text text-anchor="middle" x="1036" y="-404.3" font-family="Times,serif" font-size="14.00">indx: 0x5b17d0b731b0</text>
<polyline fill="none" stroke="#203d98" points="856,-396.5 1216,-396.5 "/>
<text text-anchor="middle" x="1036" y="-381.3" font-family="Times,serif" font-size="14.00">type: 1</text>
<polyline fill="none" stroke="#203d98" points="856,-373.5 1216,-373.5 "/>
<text text-anchor="middle" x="1036" y="-358.3" font-family="Times,serif" font-size="14.00">value: +</text>
<polyline fill="none" stroke="#203d98" points="856,-350.5 1216,-350.5 "/>
<text text-anchor="middle" x="1036" y="-335.3" font-family="Times,serif" font-size="14.00">parent: 0x5b17d0b73360</text>
<polyline fill="none" stroke="#203d98" points="856,-327.5 1216,-327.5 "/>
<text text-anchor="middle" x="943" y="-312.3" font-family="Times,serif" font-size="14.00">left: 0x5b17d0b731e0</text>
<polyline fill="none" stroke="#203d98" points="1030,-304.5 1030,-327.5 "/>
<text text-anchor="middle" x="1123" y="-312.3" font-family="Times,serif" font-size="14.00">right: 0x5b17d0b73210</text>
</g>
<!-- node0x5b17d0b73360&#45;&gt;node0x5b17d0b731b0 -->
<g id="edge10" class="edge">
<title>node0x5b17d0b73360&#45;&gt;node0x5b17d0b731b0</title>
<path fill="none" stroke="#203d98" d="M1036,-456.29C1036,-447.7 1036,-438.78 1036,-430"/>
<polygon fill="#203d98" stroke="#203d98" points="1039.5,-429.79 1036,-419.79 1032.5,-429.79 1039.5,-429.79"/>
</g>
<!-- node0x5b17d0b73030 -->
<g id="node5" class="node">
<title>node0x5b17d0b73030</title>
<path fill="#e07082" stroke="#203d98" d="M111.5,-152.5C111.5,-152.5 440.5,-152.5 440.5,-152.5 446.5,-152.5 452.5,-158.5 452.5,-164.5 452.5,-164.5 452.5,-255.5 452.5,-255.5 452.5,-261.5 446.5,-267.5 440.5,-267.5 440.5,-267.5 111.5,-267.5 111.5,-267.5 105.5,-267.5 99.5,-261.5 99.5,-255.5 99.5,-255.5 99.5,-164.5 99.5,-164.5 99.5,-158.5 105.5,-152.5 111.5,-152.5"/>
<text text-anchor="middle" x="276" y="-252.3" font-family="Times,serif" font-size="14.00">indx: 0x5b17d0b73030</text>
<polyline fill="none" stroke="#203d98" points="99.5,-244.5 452.5,-244.5 "/>
<text text-anchor="middle" x="276" y="-229.3" font-family="Times,serif" font-size="14.00">type: 1</text>
<polyline fill="none" stroke="#203d98" points="99.5,-221.5 452.5,-221.5 "/>
<text text-anchor="middle" x="276" y="-206.3" font-family="Times,serif" font-size="14.00">value: *</text>
<polyline fill="none" stroke="#203d98" points="99.5,-198.5 452.5,-198.5 "/>
<text text-anchor="middle" x="276" y="-183.3" font-family="Times,serif" font-size="14.00">parent: 0x5b17d0b73060</text>
<polyline fill="none" stroke="#203d98" points="99.5,-175.5 452.5,-175.5 "/>
<text text-anchor="middle" x="185" y="-160.3" font-family="Times,serif" font-size="14.00">left: 0x5b17d0b72f40</text>
<polyline fill="none" stroke="#203d98" points="270.5,-152.5 270.5,-175.5 "/>
<text text-anchor="middle" x="361.5" y="-160.3" font-family="Times,serif" font-size="14.00">right: 0x5b17d0b72fd0</text>
</g>
<!-- node0x5b17d0b73060&#45;&gt;node0x5b17d0b73030 -->
<g id="edge4" class="edge">
<title>node0x5b17d0b73060&#45;&gt;node0x5b17d0b73030</title>
<path fill="none" stroke="#203d98" d="M507.01,-304.4C480.38,-293.63 452.41,-282.33 425.5,-271.45"/>
<polygon fill="#203d98" stroke="#203d98" points="426.61,-268.12 416.03,-267.62 423.99,-274.61 426.61,-268.12"/>
</g>
<!-- node0x5b17d0b73000 -->
<g id="node8" class="node">
<title>node0x5b17d0b73000</title>
<path fill="#e07082" stroke="#203d98" d="M483,-152.5C483,-152.5 811,-152.5 811,-152.5 817,-152.5 823,-158.5 823,-164.5 823,-164.5 823,-255.5 823,-255.5 823,-261.5 817,-267.5 811,-267.5 811,-267.5 483,-267.5 483,-267.5 477,-267.5 471,-261.5 471,-255.5 471,-255.5 471,-164.5 471,-164.5 471,-158.5 477,-152.5 483,-152.5"/>
<text text-anchor="middle" x="647" y="-252.3" font-family="Times,serif" font-size="14.00">indx: 0x5b17d0b73000</text>
<polyline fill="none" stroke="#203d98" points="471,-244.5 823,-244.5 "/>
<text text-anchor="middle" x="647" y="-229.3" font-family="Times,serif" font-size="14.00">type: 1</text>
<polyline fill="none" stroke="#203d98" points="471,-221.5 823,-221.5 "/>
<text text-anchor="middle" x="647" y="-206.3" font-family="Times,serif" font-size="14.00">value: *</text>
<polyline fill="none" stroke="#203d98" points="471,-198.5 823,-198.5 "/>
<text text-anchor="middle" x="647" y="-183.3" font-family="Times,serif" font-size="14.00">parent: 0x5b17d0b73060</text>
<polyline fill="none" stroke="#203d98" points="471,-175.5 823,-175.5 "/>
<text text-anchor="middle" x="556" y="-160.3" font-family="Times,serif" font-size="14.00">left: 0x5b17d0b72fa0</text>
<polyline fill="none" stroke="#203d98" points="641,-152.5 641,-175.5 "/>
<text text-anchor="middle" x="732" y="-160.3" font-family="Times,serif" font-size="14.00">right: 0x5b17d0b72f70</text>
</g>
<!-- node0x5b17d0b73060&#45;&gt;node0x5b17d0b73000 -->
<g id="edge7" class="edge">
<title>node0x5b17d0b73060&#45;&gt;node0x5b17d0b73000</title>
<path fill="none" stroke="#203d98" d="M647,-304.29C647,-295.7 647,-286.78 647,-278"/>
<polygon fill="#203d98" stroke="#203d98" points="650.5,-277.79 647,-267.79 643.5,-277.79 650.5,-277.79"/>
</g>
<!-- node0x5b17d0b72f40 -->
<g id="node6" class="node">
<title>node0x5b17d0b72f40</title>
<path fill="#faaa82" stroke="#203d98" d="M12,-0.5C12,-0.5 186,-0.5 186,-0.5 192,-0.5 198,-6.5 198,-12.5 198,-12.5 198,-103.5 198,-103.5 198,-109.5 192,-115.5 186,-115.5 186,-115.5 12,-115.5 12,-115.5 6,-115.5 0,-109.5 0,-103.5 0,-103.5 0,-12.5 0,-12.5 0,-6.5 6,-0.5 12,-0.5"/>
<text text-anchor="middle" x="99" y="-100.3" font-family="Times,serif" font-size="14.00">indx: 0x5b17d0b72f40</text>
<polyline fill="none" stroke="#203d98" points="0,-92.5 198,-92.5 "/>
<text text-anchor="middle" x="99" y="-77.3" font-family="Times,serif" font-size="14.00">type: 3</text>
<polyline fill="none" stroke="#203d98" points="0,-69.5 198,-69.5 "/>
<text text-anchor="middle" x="99" y="-54.3" font-family="Times,serif" font-size="14.00">value: 1.00</text>
<polyline fill="none" stroke="#203d98" points="0,-46.5 198,-46.5 "/>
<text text-anchor="middle" x="99" y="-31.3" font-family="Times,serif" font-size="14.00">parent: 0x5b17d0b73030</text>
<polyline fill="none" stroke="#203d98" points="0,-23.5 198,-23.5 "/>
<text text-anchor="middle" x="46.5" y="-8.3" font-family="Times,serif" font-size="14.00">left: (nil)</text>
<polyline fill="none" stroke="#203d98" points="93,-0.5 93,-23.5 "/>
<text text-anchor="middle" x="145.5" y="-8.3" font-family="Times,serif" font-size="14.00">right: (nil)</text>
</g>
<!-- node0x5b17d0b73030&#45;&gt;node0x5b17d0b72f40 -->
<g id="edge5" class="edge">
<title>node0x5b17d0b73030&#45;&gt;node0x5b17d0b72f40</title>
<path fill="none" stroke="#203d98" d="M209.08,-152.29C197.44,-142.42 185.26,-132.11 173.43,-122.08"/>
<polygon fill="#203d98" stroke="#203d98" points="175.61,-119.34 165.72,-115.54 171.08,-124.68 175.61,-119.34"/>
</g>
<!-- node0x5b17d0b72fd0 -->
<g id="node7" class="node">
<title>node0x5b17d0b72fd0</title>
<path fill="#faaa82" stroke="#203d98" d="M228,-0.5C228,-0.5 402,-0.5 402,-0.5 408,-0.5 414,-6.5 414,-12.5 414,-12.5 414,-103.5 414,-103.5 414,-109.5 408,-115.5 402,-115.5 402,-115.5 228,-115.5 228,-115.5 222,-115.5 216,-109.5 216,-103.5 216,-103.5 216,-12.5 216,-12.5 216,-6.5 222,-0.5 228,-0.5"/>
<text text-anchor="middle" x="315" y="-100.3" font-family="Times,serif" font-size="14.00">indx: 0x5b17d0b72fd0</text>
<polyline fill="none" stroke="#203d98" points="216,-92.5 414,-92.5 "/>
<text text-anchor="middle" x="315" y="-77.3" font-family="Times,serif" font-size="14.00">type: 3</text>
<polyline fill="none" stroke="#203d98" points="216,-69.5 414,-69.5 "/>
<text text-anchor="middle" x="315" y="-54.3" font-family="Times,serif" font-size="14.00">value: 10.00</text>
<polyline fill="none" stroke="#203d98" points="216,-46.5 414,-46.5 "/>
<text text-anchor="middle" x="315" y="-31.3" font-family="Times,serif" font-size="14.00">parent: 0x5b17d0b73030</text>
<polyline fill="none" stroke="#203d98" points="216,-23.5 414,-23.5 "/>
<text text-anchor="middle" x="262.5" y="-8.3" font-family="Times,serif" font-size="14.00">left: (nil)</text>
<polyline fill="none" stroke="#203d98" points="309,-0.5 309,-23.5 "/>
<text text-anchor="middle" x="361.5" y="-8.3" font-family="Times,serif" font-size="14.00">right: (nil)</text>
</g>
<!-- node0x5b17d0b73030&#45;&gt;node0x5b17d0b72fd0 -->
<g id="edge6" class="edge">
<title>node0x5b17d0b73030&#45;&gt;node0x5b17d0b72fd0</title>
<path fill="none" stroke="#203d98" d="M290.74,-152.29C293,-143.61 295.35,-134.58 297.65,-125.71"/>
<polygon fill="#203d98" stroke="#203d98" points="301.11,-126.35 300.23,-115.79 294.33,-124.59 301.11,-126.35"/>
</g>
<!-- node0x5b17d0b72fa0 -->
<g id="node9" class="node">
<title>node0x5b17d0b72fa0</title>
<path fill="#a24892" stroke="#203d98" d="M521,-0.5C521,-0.5 695,-0.5 695,-0.5 701,-0.5 707,-6.5 707,-12.5 707,-12.5 707,-103.5 707,-103.5 707,-109.5 701,-115.5 695,-115.5 695,-115.5 521,-115.5 521,-115.5 515,-115.5 509,-109.5 509,-103.5 509,-103.5 509,-12.5 509,-12.5 509,-6.5 515,-0.5 521,-0.5"/>
<text text-anchor="middle" x="608" y="-100.3" font-family="Times,serif" font-size="14.00">indx: 0x5b17d0b72fa0</text>
<polyline fill="none" stroke="#203d98" points="509,-92.5 707,-92.5 "/>
<text text-anchor="middle" x="608" y="-77.3" font-family="Times,serif" font-size="14.00">type: 2</text>
<polyline fill="none" stroke="#203d98" points="509,-69.5 707,-69.5 "/>
<text text-anchor="middle" x="608" y="-54.3" font-family="Times,serif" font-size="14.00">value: x</text>
<polyline fill="none" stroke="#203d98" points="509,-46.5 707,-46.5 "/>
<text text-anchor="middle" x="608" y="-31.3" font-family="Times,serif" font-size="14.00">parent: 0x5b17d0b73000</text>
<polyline fill="none" stroke="#203d98" points="509,-23.5 707,-23.5 "/>
<text text-anchor="middle" x="555.5" y="-8.3" font-family="Times,serif" font-size="14.00">left: (nil)</text>
<polyline fill="none" stroke="#203d98" points="602,-0.5 602,-23.5 "/>
<text text-anchor="middle" x="654.5" y="-8.3" font-family="Times,serif" font-size="14.00">right: (nil)</text>
</g>
<!-- node0x5b17d0b73000&#45;&gt;node0x5b17d0b72fa0 -->
<g id="edge8" class="edge">
<title>node0x5b17d0b73000&#45;&gt;node0x5b17d0b72fa0</title>
<path fill="none" stroke="#203d98" d="M632.26,-152.29C630,-143.61 627.65,-134.58 625.35,-125.71"/>
<polygon fill="#203d98" stroke="#203d98" points="628.67,-124.59 622.77,-115.79 621.89,-126.35 628.67,-124.59"/>
</g>
<!-- node0x5b17d0b72f70 -->
<g id="node10" class="node">
<title>node0x5b17d0b72f70</title>
<path fill="#faaa82" stroke="#203d98" d="M737,-0.5C737,-0.5 911,-0.5 911,-0.5 917,-0.5 923,-6.5 923,-12.5 923,-12.5 923,-103.5 923,-103.5 923,-109.5 917,-115.5 911,-115.5 911,-115.5 737,-115.5 737,-115.5 731,-115.5 725,-109.5 725,-103.5 725,-103.5 725,-12.5 725,-12.5 725,-6.5 731,-0.5 737,-0.5"/>
<text text-anchor="middle" x="824" y="-100.3" font-family="Times,serif" font-size="14.00">indx: 0x5b17d0b72f70</text>
<polyline fill="none" stroke="#203d98" points="725,-92.5 923,-92.5 "/>
<text text-anchor="middle" x="824" y="-77.3" font-family="Times,serif" font-size="14.00">type: 3</text>
<polyline fill="none" stroke="#203d98" points="725,-69.5 923,-69.5 "/>
<text text-anchor="middle" x="824" y="-54.3" font-family="Times,serif" font-size="14.00">value: 0.00</text>
<polyline fill="none" stroke="#203d98" points="725,-46.5 923,-46.5 "/>
<text text-anchor="middle" x="824" y="-31.3" font-family="Times,serif" font-size="14.00">parent: 0x5b17d0b73000</text>
<polyline fill="none" stroke="#203d98" points="725,-23.5 923,-23.5 "/>
<text text-anchor="middle" x="771.5" y="-8.3" font-family="Times,serif" font-size="14.00">left: (nil)</text>
<polyline fill="none" stroke="#203d98" points="818,-0.5 818,-23.5 "/>
<text text-anchor="middle" x="870.5" y="-8.3" font-family="Times,serif" font-size="14.00">right: (nil)</text>
</g>
<!-- node0x5b17d0b73000&#45;&gt;node0x5b17d0b72f70 -->
<g id="edge9" class="edge">
<title>node0x5b17d0b73000&#45;&gt;node0x5b17d0b72f70</title>
<path fill="none" stroke="#203d98" d="M713.92,-152.29C725.56,-142.42 737.74,-132.11 749.57,-122.08"/>
<polygon fill="#203d98" stroke="#203d98" points="751.92,-124.68 757.28,-115.54 747.39,-119.34 751.92,-124.68"/>
</g>
<!-- node0x5b17d0b731e0 -->
<g id="node12" class="node">
<title>node0x5b17d0b731e0</title>
<path fill="#faaa82" stroke="#203d98" d="M853,-152.5C853,-152.5 1027,-152.5 1027,-152.5 1033,-152.5 1039,-158.5 1039,-164.5 1039,-164.5 1039,-255.5 1039,-255.5 1039,-261.5 1033,-267.5 1027,-267.5 1027,-267.5 853,-267.5 853,-267.5 847,-267.5 841,-261.5 841,-255.5 841,-255.5 841,-164.5 841,-164.5 841,-158.5 847,-152.5 853,-152.5"/>
<text text-anchor="middle" x="940" y="-252.3" font-family="Times,serif" font-size="14.00">indx: 0x5b17d0b731e0</text>
<polyline fill="none" stroke="#203d98" points="841,-244.5 1039,-244.5 "/>
<text text-anchor="middle" x="940" y="-229.3" font-family="Times,serif" font-size="14.00">type: 3</text>
<polyline fill="none" stroke="#203d98" points="841,-221.5 1039,-221.5 "/>
<text text-anchor="middle" x="940" y="-206.3" font-family="Times,serif" font-size="14.00">value: 2.00</text>
<polyline fill="none" stroke="#203d98" points="841,-198.5 1039,-198.5 "/>
<text text-anchor="middle" x="940" y="-183.3" font-family="Times,serif" font-size="14.00">parent: 0x5b17d0b731b0</text>
<polyline fill="none" stroke="#203d98" points="841,-175.5 1039,-175.5 "/>
<text text-anchor="middle" x="887.5" y="-160.3" font-family="Times,serif" font-size="14.00">left: (nil)</text>
<polyline fill="none" stroke="#203d98" points="934,-152.5 934,-175.5 "/>
<text text-anchor="middle" x="986.5" y="-160.3" font-family="Times,serif" font-size="14.00">right: (nil)</text>
</g>
<!-- node0x5b17d0b731b0&#45;&gt;node0x5b17d0b731e0 -->
<g id="edge11" class="edge">
<title>node0x5b17d0b731b0&#45;&gt;node0x5b17d0b731e0</title>
<path fill="none" stroke="#203d98" d="M999.71,-304.29C993.85,-295.14 987.75,-285.61 981.78,-276.28"/>
<polygon fill="#203d98" stroke="#203d98" points="984.68,-274.32 976.34,-267.79 978.79,-278.1 984.68,-274.32"/>
</g>
<!-- node0x5b17d0b73210 -->
<g id="node13" class="node">
<title>node0x5b17d0b73210</title>
<path fill="#a24892" stroke="#203d98" d="M1069,-152.5C1069,-152.5 1243,-152.5 1243,-152.5 1249,-152.5 1255,-158.5 1255,-164.5 1255,-164.5 1255,-255.5 1255,-255.5 1255,-261.5 1249,-267.5 1243,-267.5 1243,-267.5 1069,-267.5 1069,-267.5 1063,-267.5 1057,-261.5 1057,-255.5 1057,-255.5 1057,-164.5 1057,-164.5 1057,-158.5 1063,-152.5 1069,-152.5"/>
<text text-anchor="middle" x="1156" y="-252.3" font-family="Times,serif" font-size="14.00">indx: 0x5b17d0b73210</text>
<polyline fill="none" stroke="#203d98" points="1057,-244.5 1255,-244.5 "/>
<text text-anchor="middle" x="1156" y="-229.3" font-family="Times,serif" font-size="14.00">type: 2</text>
<polyline fill="none" stroke="#203d98" points="1057,-221.5 1255,-221.5 "/>
<text text-anchor="middle" x="1156" y="-206.3" font-family="Times,serif" font-size="14.00">value: x</text>
<polyline fill="none" stroke="#203d98" points="1057,-198.5 1255,-198.5 "/>
<text text-anchor="middle" x="1156" y="-183.3" font-family="Times,serif" font-size="14.00">parent: 0x5b17d0b731b0</text>
<polyline fill="none" stroke="#203d98" points="1057,-175.5 1255,-175.5 "/>
<text text-anchor="middle" x="1103.5" y="-160.3" font-family="Times,serif" font-size="14.00">left: (nil)</text>
<polyline fill="none" stroke="#203d98" points="1150,-152.5 1150,-175.5 "/>
<text text-anchor="middle" x="1202.5" y="-160.3" font-family="Times,serif" font-size="14.00">right: (nil)</text>
</g>
<!-- node0x5b17d0b731b0&#45;&gt;node0x5b17d0b73210 -->
<g id="edge12" class="edge">
<title>node0x5b17d0b731b0&#45;&gt;node0x5b17d0b73210</title>
<path fill="none" stroke="#203d98" d="M1081.37,-304.29C1088.83,-294.96 1096.62,-285.22 1104.23,-275.71"/>
<polygon fill="#203d98" stroke="#203d98" points="1107.06,-277.78 1110.57,-267.79 1101.59,-273.41 1107.06,-277.78"/>
</g>
<!-- node0x5b17d0b73120 -->
<g id="node15" class="node">
<title>node0x5b17d0b73120</title>
<path fill="#e07082" stroke="#203d98" d="M1255.5,-304.5C1255.5,-304.5 1592.5,-304.5 1592.5,-304.5 1598.5,-304.5 1604.5,-310.5 1604.5,-316.5 1604.5,-316.5 1604.5,-407.5 1604.5,-407.5 1604.5,-413.5 1598.5,-419.5 1592.5,-419.5 1592.5,-419.5 1255.5,-419.5 1255.5,-419.5 1249.5,-419.5 1243.5,-413.5 1243.5,-407.5 1243.5,-407.5 1243.5,-316.5 1243.5,-316.5 1243.5,-310.5 1249.5,-304.5 1255.5,-304.5"/>
<text text-anchor="middle" x="1424" y="-404.3" font-family="Times,serif" font-size="14.00">indx: 0x5b17d0b73120</text>
<polyline fill="none" stroke="#203d98" points="1243.5,-396.5 1604.5,-396.5 "/>
<text text-anchor="middle" x="1424" y="-381.3" font-family="Times,serif" font-size="14.00">type: 1</text>
<polyline fill="none" stroke="#203d98" points="1243.5,-373.5 1604.5,-373.5 "/>
<text text-anchor="middle" x="1424" y="-358.3" font-family="Times,serif" font-size="14.00">value: *</text>
<polyline fill="none" stroke="#203d98" points="1243.5,-350.5 1604.5,-350.5 "/>
<text text-anchor="middle" x="1424" y="-335.3" font-family="Times,serif" font-size="14.00">parent: 0x5b17d0b73330</text>
<polyline fill="none" stroke="#203d98" points="1243.5,-327.5 1604.5,-327.5 "/>
<text text-anchor="middle" x="1331" y="-312.3" font-family="Times,serif" font-size="14.00">left: 0x5b17d0b73150</text>
<polyline fill="none" stroke="#203d98" points="1418.5,-304.5 1418.5,-327.5 "/>
<text text-anchor="middle" x="1511.5" y="-312.3" font-family="Times,serif" font-size="14.00">right: 0x5b17d0b73180</text>
</g>
<!-- node0x5b17d0b73330&#45;&gt;node0x5b17d0b73120 -->
<g id="edge14" class="edge">
<title>node0x5b17d0b73330&#45;&gt;node0x5b17d0b73120</title>
<path fill="none" stroke="#203d98" d="M1516.05,-456.29C1506.65,-446.77 1496.85,-436.83 1487.29,-427.14"/>
<polygon fill="#203d98" stroke="#203d98" points="1489.55,-424.45 1480.03,-419.79 1484.56,-429.37 1489.55,-424.45"/>
</g>
<!-- node0x5b17d0b730f0 -->
<g id="node18" class="node">
<title>node0x5b17d0b730f0</title>
<path fill="#e07082" stroke="#203d98" d="M1634.5,-304.5C1634.5,-304.5 1969.5,-304.5 1969.5,-304.5 1975.5,-304.5 1981.5,-310.5 1981.5,-316.5 1981.5,-316.5 1981.5,-407.5 1981.5,-407.5 1981.5,-413.5 1975.5,-419.5 1969.5,-419.5 1969.5,-419.5 1634.5,-419.5 1634.5,-419.5 1628.5,-419.5 1622.5,-413.5 1622.5,-407.5 1622.5,-407.5 1622.5,-316.5 1622.5,-316.5 1622.5,-310.5 1628.5,-304.5 1634.5,-304.5"/>
<text text-anchor="middle" x="1802" y="-404.3" font-family="Times,serif" font-size="14.00">indx: 0x5b17d0b730f0</text>
<polyline fill="none" stroke="#203d98" points="1622.5,-396.5 1981.5,-396.5 "/>
<text text-anchor="middle" x="1802" y="-381.3" font-family="Times,serif" font-size="14.00">type: 1</text>
<polyline fill="none" stroke="#203d98" points="1622.5,-373.5 1981.5,-373.5 "/>
<text text-anchor="middle" x="1802" y="-358.3" font-family="Times,serif" font-size="14.00">value: +</text>
<polyline fill="none" stroke="#203d98" points="1622.5,-350.5 1981.5,-350.5 "/>
<text text-anchor="middle" x="1802" y="-335.3" font-family="Times,serif" font-size="14.00">parent: 0x5b17d0b73330</text>
<polyline fill="none" stroke="#203d98" points="1622.5,-327.5 1981.5,-327.5 "/>
<text text-anchor="middle" x="1709" y="-312.3" font-family="Times,serif" font-size="14.00">left: 0x5b17d0b730c0</text>
<polyline fill="none" stroke="#203d98" points="1795.5,-304.5 1795.5,-327.5 "/>
<text text-anchor="middle" x="1888.5" y="-312.3" font-family="Times,serif" font-size="14.00">right: 0x5b17d0b73090</text>
</g>
<!-- node0x5b17d0b73330&#45;&gt;node0x5b17d0b730f0 -->
<g id="edge17" class="edge">
<title>node0x5b17d0b73330&#45;&gt;node0x5b17d0b730f0</title>
<path fill="none" stroke="#203d98" d="M1658.95,-456.29C1674.52,-446.14 1690.81,-435.52 1706.6,-425.22"/>
<polygon fill="#203d98" stroke="#203d98" points="1708.84,-427.93 1715.31,-419.54 1705.02,-422.07 1708.84,-427.93"/>
</g>
<!-- node0x5b17d0b73150 -->
<g id="node16" class="node">
<title>node0x5b17d0b73150</title>
<path fill="#a24892" stroke="#203d98" d="M1285,-152.5C1285,-152.5 1459,-152.5 1459,-152.5 1465,-152.5 1471,-158.5 1471,-164.5 1471,-164.5 1471,-255.5 1471,-255.5 1471,-261.5 1465,-267.5 1459,-267.5 1459,-267.5 1285,-267.5 1285,-267.5 1279,-267.5 1273,-261.5 1273,-255.5 1273,-255.5 1273,-164.5 1273,-164.5 1273,-158.5 1279,-152.5 1285,-152.5"/>
<text text-anchor="middle" x="1372" y="-252.3" font-family="Times,serif" font-size="14.00">indx: 0x5b17d0b73150</text>
<polyline fill="none" stroke="#203d98" points="1273,-244.5 1471,-244.5 "/>
<text text-anchor="middle" x="1372" y="-229.3" font-family="Times,serif" font-size="14.00">type: 2</text>
<polyline fill="none" stroke="#203d98" points="1273,-221.5 1471,-221.5 "/>
<text text-anchor="middle" x="1372" y="-206.3" font-family="Times,serif" font-size="14.00">value: x</text>
<polyline fill="none" stroke="#203d98" points="1273,-198.5 1471,-198.5 "/>
<text text-anchor="middle" x="1372" y="-183.3" font-family="Times,serif" font-size="14.00">parent: 0x5b17d0b73120</text>
<polyline fill="none" stroke="#203d98" points="1273,-175.5 1471,-175.5 "/>
<text text-anchor="middle" x="1319.5" y="-160.3" font-family="Times,serif" font-size="14.00">left: (nil)</text>
<polyline fill="none" stroke="#203d98" points="1366,-152.5 1366,-175.5 "/>
<text text-anchor="middle" x="1418.5" y="-160.3" font-family="Times,serif" font-size="14.00">right: (nil)</text>
</g>
<!-- node0x5b17d0b73120&#45;&gt;node0x5b17d0b73150 -->
<g id="edge15" class="edge">
<title>node0x5b17d0b73120&#45;&gt;node0x5b17d0b73150</title>
<path fill="none" stroke="#203d98" d="M1404.34,-304.29C1401.3,-295.52 1398.13,-286.39 1395.03,-277.43"/>
<polygon fill="#203d98" stroke="#203d98" points="1398.27,-276.09 1391.69,-267.79 1391.66,-278.38 1398.27,-276.09"/>
</g>
<!-- node0x5b17d0b73180 -->
<g id="node17" class="node">
<title>node0x5b17d0b73180</title>
<path fill="#faaa82" stroke="#203d98" d="M1501,-152.5C1501,-152.5 1675,-152.5 1675,-152.5 1681,-152.5 1687,-158.5 1687,-164.5 1687,-164.5 1687,-255.5 1687,-255.5 1687,-261.5 1681,-267.5 1675,-267.5 1675,-267.5 1501,-267.5 1501,-267.5 1495,-267.5 1489,-261.5 1489,-255.5 1489,-255.5 1489,-164.5 1489,-164.5 1489,-158.5 1495,-152.5 1501,-152.5"/>
<text text-anchor="middle" x="1588" y="-252.3" font-family="Times,serif" font-size="14.00">indx: 0x5b17d0b73180</text>
<polyline fill="none" stroke="#203d98" points="1489,-244.5 1687,-244.5 "/>
<text text-anchor="middle" x="1588" y="-229.3" font-family="Times,serif" font-size="14.00">type: 3</text>
<polyline fill="none" stroke="#203d98" points="1489,-221.5 1687,-221.5 "/>
<text text-anchor="middle" x="1588" y="-206.3" font-family="Times,serif" font-size="14.00">value: 10.00</text>
<polyline fill="none" stroke="#203d98" points="1489,-198.5 1687,-198.5 "/>
<text text-anchor="middle" x="1588" y="-183.3" font-family="Times,serif" font-size="14.00">parent: 0x5b17d0b73120</text>
<polyline fill="none" stroke="#203d98" points="1489,-175.5 1687,-175.5 "/>
<text text-anchor="middle" x="1535.5" y="-160.3" font-family="Times,serif" font-size="14.00">left: (nil)</text>
<polyline fill="none" stroke="#203d98" points="1582,-152.5 1582,-175.5 "/>
<text text-anchor="middle" x="1634.5" y="-160.3" font-family="Times,serif" font-size="14.00">right: (nil)</text>
</g>
<!-- node0x5b17d0b73120&#45;&gt;node0x5b17d0b73180 -->
<g id="edge16" class="edge">
<title>node0x5b17d0b73120&#45;&gt;node0x5b17d0b73180</title>
<path fill="none" stroke="#203d98" d="M1486,-304.29C1496.69,-294.52 1507.86,-284.3 1518.72,-274.37"/>
<polygon fill="#203d98" stroke="#203d98" points="1521.17,-276.87 1526.18,-267.54 1516.44,-271.71 1521.17,-276.87"/>
</g>
<!-- node0x5b17d0b730c0 -->
<g id="node19" class="node">
<title>node0x5b17d0b730c0</title>
<path fill="#faaa82" stroke="#203d98" d="M1717,-152.5C1717,-152.5 1887,-152.5 1887,-152.5 1893,-152.5 1899,-158.5 1899,-164.5 1899,-164.5 1899,-255.5 1899,-255.5 1899,-261.5 1893,-267.5 1887,-267.5 1887,-267.5 1717,-267.5 1717,-267.5 1711,-267.5 1705,-261.5 1705,-255.5 1705,-255.5 1705,-164.5 1705,-164.5 1705,-158.5 1711,-152.5 1717,-152.5"/>
<text text-anchor="middle" x="1802" y="-252.3" font-family="Times,serif" font-size="14.00">indx: 0x5b17d0b730c0</text>
<polyline fill="none" stroke="#203d98" points="1705,-244.5 1899,-244.5 "/>
<text text-anchor="middle" x="1802" y="-229.3" font-family="Times,serif" font-size="14.00">type: 3</text>
<polyline fill="none" stroke="#203d98" points="1705,-221.5 1899,-221.5 "/>
<text text-anchor="middle" x="1802" y="-206.3" font-family="Times,serif" font-size="14.00">value: 0.00</text>
<polyline fill="none" stroke="#203d98" points="1705,-198.5 1899,-198.5 "/>
<text text-anchor="middle" x="1802" y="-183.3" font-family="Times,serif" font-size="14.00">parent: 0x5b17d0b730f0</text>
<polyline fill="none" stroke="#203d98" points="1705,-175.5 1899,-175.5 "/>
<text text-anchor="middle" x="1750.5" y="-160.3" font-family="Times,serif" font-size="14.00">left: (nil)</text>
<polyline fill="none" stroke="#203d98" points="1796,-152.5 1796,-175.5 "/>
<text text-anchor="middle" x="1847.5" y="-160.3" font-family="Times,serif" font-size="14.00">right: (nil)</text>
</g>
<!-- node0x5b17d0b730f0&#45;&gt;node0x5b17d0b730c0 -->
<g id="edge18" class="edge">
<title>node0x5b17d0b730f0&#45;&gt;node0x5b17d0b730c0</title>
<path fill="none" stroke="#203d98" d="M1802,-304.29C1802,-295.7 1802,-286.78 1802,-278"/>
<polygon fill="#203d98" stroke="#203d98" points="1805.5,-277.79 1802,-267.79 1798.5,-277.79 1805.5,-277.79"/>
</g>
<!-- node0x5b17d0b73090 -->
<g id="node20" class="node">
<title>node0x5b17d0b73090</title>
<path fill="#faaa82" stroke="#203d98" d="M1929,-152.5C1929,-152.5 2099,-152.5 2099,-152.5 2105,-152.5 2111,-158.5 2111,-164.5 2111,-164.5 2111,-255.5 2111,-255.5 2111,-261.5 2105,-267.5 2099,-267.5 2099,-267.5 1929,-267.5 1929,-267.5 1923,-267.5 1917,-261.5 1917,-255.5 1917,-255.5 1917,-164.5 1917,-164.5 1917,-158.5 1923,-152.5 1929,-152.5"/>
<text text-anchor="middle" x="2014" y="-252.3" font-family="Times,serif" font-size="14.00">indx: 0x5b17d0b73090</text>
<polyline fill="none" stroke="#203d98" points="1917,-244.5 2111,-244.5 "/>
<text text-anchor="middle" x="2014" y="-229.3" font-family="Times,serif" font-size="14.00">type: 3</text>
<polyline fill="none" stroke="#203d98" points="1917,-221.5 2111,-221.5 "/>
<text text-anchor="middle" x="2014" y="-206.3" font-family="Times,serif" font-size="14.00">value: 1.00</text>
<polyline fill="none" stroke="#203d98" points="1917,-198.5 2111,-198.5 "/>
<text text-anchor="middle" x="2014" y="-183.3" font-family="Times,serif" font-size="14.00">parent: 0x5b17d0b730f0</text>
<polyline fill="none" stroke="#203d98" points="1917,-175.5 2111,-175.5 "/>
<text text-anchor="middle" x="1962.5" y="-160.3" font-family="Times,serif" font-size="14.00">left: (nil)</text>
<polyline fill="none" stroke="#203d98" points="2008,-152.5 2008,-175.5 "/>
<text text-anchor="middle" x="2059.5" y="-160.3" font-family="Times,serif" font-size="14.00">right: (nil)</text>
</g>
<!-- node0x5b17d0b730f0&#45;&gt;node0x5b17d0b73090 -->
<g id="edge19" class="edge">
<title>node0x5b17d0b730f0&#45;&gt;node0x5b17d0b73090</title>
<path fill="none" stroke="#203d98" d="M1882.15,-304.29C1896.36,-294.24 1911.23,-283.71 1925.66,-273.51"/>
<polygon fill="#203d98" stroke="#203d98" points="1927.95,-276.17 1934.09,-267.54 1923.91,-270.46 1927.95,-276.17"/>
</g>
<!-- node0x5b17d0b73240 -->
<g id="node22" class="node">
<title>node0x5b17d0b73240</title>
<path fill="#e07082" stroke="#203d98" d="M1931,-456.5C1931,-456.5 2267,-456.5 2267,-456.5 2273,-456.5 2279,-462.5 2279,-468.5 2279,-468.5 2279,-559.5 2279,-559.5 2279,-565.5 2273,-571.5 2267,-571.5 2267,-571.5 1931,-571.5 1931,-571.5 1925,-571.5 1919,-565.5 1919,-559.5 1919,-559.5 1919,-468.5 1919,-468.5 1919,-462.5 1925,-456.5 1931,-456.5"/>
<text text-anchor="middle" x="2099" y="-556.3" font-family="Times,serif" font-size="14.00">indx: 0x5b17d0b73240</text>
<polyline fill="none" stroke="#203d98" points="1919,-548.5 2279,-548.5 "/>
<text text-anchor="middle" x="2099" y="-533.3" font-family="Times,serif" font-size="14.00">type: 1</text>
<polyline fill="none" stroke="#203d98" points="1919,-525.5 2279,-525.5 "/>
<text text-anchor="middle" x="2099" y="-510.3" font-family="Times,serif" font-size="14.00">value: +</text>
<polyline fill="none" stroke="#203d98" points="1919,-502.5 2279,-502.5 "/>
<text text-anchor="middle" x="2099" y="-487.3" font-family="Times,serif" font-size="14.00">parent: 0x5b17d0b73300</text>
<polyline fill="none" stroke="#203d98" points="1919,-479.5 2279,-479.5 "/>
<text text-anchor="middle" x="2006.5" y="-464.3" font-family="Times,serif" font-size="14.00">left: 0x5b17d0b73270</text>
<polyline fill="none" stroke="#203d98" points="2094,-456.5 2094,-479.5 "/>
<text text-anchor="middle" x="2186.5" y="-464.3" font-family="Times,serif" font-size="14.00">right: 0x5b17d0b732a0</text>
</g>
<!-- node0x5b17d0b73300&#45;&gt;node0x5b17d0b73240 -->
<g id="edge21" class="edge">
<title>node0x5b17d0b73300&#45;&gt;node0x5b17d0b73240</title>
<path fill="none" stroke="#203d98" d="M2099,-608.29C2099,-599.7 2099,-590.78 2099,-582"/>
<polygon fill="#203d98" stroke="#203d98" points="2102.5,-581.79 2099,-571.79 2095.5,-581.79 2102.5,-581.79"/>
</g>
<!-- node0x5b17d0b732d0 -->
<g id="node25" class="node">
<title>node0x5b17d0b732d0</title>
<path fill="#faaa82" stroke="#203d98" d="M2309,-456.5C2309,-456.5 2483,-456.5 2483,-456.5 2489,-456.5 2495,-462.5 2495,-468.5 2495,-468.5 2495,-559.5 2495,-559.5 2495,-565.5 2489,-571.5 2483,-571.5 2483,-571.5 2309,-571.5 2309,-571.5 2303,-571.5 2297,-565.5 2297,-559.5 2297,-559.5 2297,-468.5 2297,-468.5 2297,-462.5 2303,-456.5 2309,-456.5"/>
<text text-anchor="middle" x="2396" y="-556.3" font-family="Times,serif" font-size="14.00">indx: 0x5b17d0b732d0</text>
<polyline fill="none" stroke="#203d98" points="2297,-548.5 2495,-548.5 "/>
<text text-anchor="middle" x="2396" y="-533.3" font-family="Times,serif" font-size="14.00">type: 3</text>
<polyline fill="none" stroke="#203d98" points="2297,-525.5 2495,-525.5 "/>
<text text-anchor="middle" x="2396" y="-510.3" font-family="Times,serif" font-size="14.00">value: 2.00</text>
<polyline fill="none" stroke="#203d98" points="2297,-502.5 2495,-502.5 "/>
<text text-anchor="middle" x="2396" y="-487.3" font-family="Times,serif" font-size="14.00">parent: 0x5b17d0b73300</text>
<polyline fill="none" stroke="#203d98" points="2297,-479.5 2495,-479.5 "/>
<text text-anchor="middle" x="2343.5" y="-464.3" font-family="Times,serif" font-size="14.00">left: (nil)</text>
<polyline fill="none" stroke="#203d98" points="2390,-456.5 2390,-479.5 "/>
<text text-anchor="middle" x="2442.5" y="-464.3" font-family="Times,serif" font-size="14.00">right: (nil)</text>
</g>
<!-- node0x5b17d0b73300&#45;&gt;node0x5b17d0b732d0 -->
<g id="edge24" class="edge">
<title>node0x5b17d0b73300&#45;&gt;node0x5b17d0b732d0</title>
<path fill="none" stroke="#203d98" d="M2215.2,-608.46C2237.07,-597.66 2259.82,-586.31 2287.98,-571.99"/>
<polygon fill="#203d98" stroke="#203d98" points="2289.57,-575.11 2296.89,-567.45 2286.39,-568.87 2289.57,-575.11"/>
</g>
<!-- node0x5b17d0b73270 -->
<g id="node23" class="node">
<title>node0x5b17d0b73270</title>
<path fill="#faaa82" stroke="#203d98" d="M2012,-304.5C2012,-304.5 2186,-304.5 2186,-304.5 2192,-304.5 2198,-310.5 2198,-316.5 2198,-316.5 2198,-407.5 2198,-407.5 2198,-413.5 2192,-419.5 2186,-419.5 2186,-419.5 2012,-419.5 2012,-419.5 2006,-419.5 2000,-413.5 2000,-407.5 2000,-407.5 2000,-316.5 2000,-316.5 2000,-310.5 2006,-304.5 2012,-304.5"/>
<text text-anchor="middle" x="2099" y="-404.3" font-family="Times,serif" font-size="14.00">indx: 0x5b17d0b73270</text>
<polyline fill="none" stroke="#203d98" points="2000,-396.5 2198,-396.5 "/>
<text text-anchor="middle" x="2099" y="-381.3" font-family="Times,serif" font-size="14.00">type: 3</text>
<polyline fill="none" stroke="#203d98" points="2000,-373.5 2198,-373.5 "/>
<text text-anchor="middle" x="2099" y="-358.3" font-family="Times,serif" font-size="14.00">value: 2.00</text>
<polyline fill="none" stroke="#203d98" points="2000,-350.5 2198,-350.5 "/>
<text text-anchor="middle" x="2099" y="-335.3" font-family="Times,serif" font-size="14.00">parent: 0x5b17d0b73240</text>
<polyline fill="none" stroke="#203d98" points="2000,-327.5 2198,-327.5 "/>
<text text-anchor="middle" x="2046.5" y="-312.3" font-family="Times,serif" font-size="14.00">left: (nil)</text>
<polyline fill="none" stroke="#203d98" points="2093,-304.5 2093,-327.5 "/>
<text text-anchor="middle" x="2145.5" y="-312.3" font-family="Times,serif" font-size="14.00">right: (nil)</text>
</g>
<!-- node0x5b17d0b73240&#45;&gt;node0x5b17d0b73270 -->
<g id="edge22" class="edge">
<title>node0x5b17d0b73240&#45;&gt;node0x5b17d0b73270</title>
<path fill="none" stroke="#203d98" d="M2099,-456.29C2099,-447.7 2099,-438.78 2099,-430"/>
<polygon fill="#203d98" stroke="#203d98" points="2102.5,-429.79 2099,-419.79 2095.5,-429.79 2102.5,-429.79"/>
</g>
<!-- node0x5b17d0b732a0 -->
<g id="node24" class="node">
<title>node0x5b17d0b732a0</title>
<path fill="#a24892" stroke="#203d98" d="M2228,-304.5C2228,-304.5 2402,-304.5 2402,-304.5 2408,-304.5 2414,-310.5 2414,-316.5 2414,-316.5 2414,-407.5 2414,-407.5 2414,-413.5 2408,-419.5 2402,-419.5 2402,-419.5 2228,-419.5 2228,-419.5 2222,-419.5 2216,-413.5 2216,-407.5 2216,-407.5 2216,-316.5 2216,-316.5 2216,-310.5 2222,-304.5 2228,-304.5"/>
<text text-anchor="middle" x="2315" y="-404.3" font-family="Times,serif" font-size="14.00">indx: 0x5b17d0b732a0</text>
<polyline fill="none" stroke="#203d98" points="2216,-396.5 2414,-396.5 "/>
<text text-anchor="middle" x="2315" y="-381.3" font-family="Times,serif" font-size="14.00">type: 2</text>
<polyline fill="none" stroke="#203d98" points="2216,-373.5 2414,-373.5 "/>
<text text-anchor="middle" x="2315" y="-358.3" font-family="Times,serif" font-size="14.00">value: x</text>
<polyline fill="none" stroke="#203d98" points="2216,-350.5 2414,-350.5 "/>
<text text-anchor="middle" x="2315" y="-335.3" font-family="Times,serif" font-size="14.00">parent: 0x5b17d0b73240</text>
<polyline fill="none" stroke="#203d98" points="2216,-327.5 2414,-327.5 "/>
<text text-anchor="middle" x="2262.5" y="-312.3" font-family="Times,serif" font-size="14.00">left: (nil)</text>
<polyline fill="none" stroke="#203d98" points="2309,-304.5 2309,-327.5 "/>
<text text-anchor="middle" x="2361.5" y="-312.3" font-family="Times,serif" font-size="14.00">right: (nil)</text>
</g>
<!-- node0x5b17d0b73240&#45;&gt;node0x5b17d0b732a0 -->
<g id="edge23" class="edge">
<title>node0x5b17d0b73240&#45;&gt;node0x5b17d0b732a0</title>
<path fill="none" stroke="#203d98" d="M2180.66,-456.29C2195.14,-446.24 2210.29,-435.71 2224.99,-425.51"/>
<polygon fill="#203d98" stroke="#203d98" points="2227.37,-428.12 2233.58,-419.54 2223.37,-422.37 2227.37,-428.12"/>
</g>
</g>
</svg>
