<?xml version="1.0" encoding="UTF-8" standalone="no"?>
<!DOCTYPE svg PUBLIC "-//W3C//DTD SVG 1.1//EN"
 "http://www.w3.org/Graphics/SVG/1.1/DTD/svg11.dtd">
<!-- Generated by graphviz version 2.43.0 (0)
 -->
<!-- Title: Tree Pages: 1 -->
<svg width="600pt" height="428pt"
 viewBox="0.00 0.00 600.00 428.00" xmlns="http://www.w3.org/2000/svg" xmlns:xlink="http://www.w3.org/1999/xlink">
<g id="graph0" class="graph" transform="scale(1 1) rotate(0) translate(4 424)">
<title>Tree</title>
<polygon fill="#ffe7a5" stroke="transparent" points="-4,4 -4,-424 596,-424 596,4 -4,4"/>
<!-- node0x5e3548c500f0 -->
<g id="node1" class="node">
<title>node0x5e3548c500f0</title>
<path fill="#e07082" stroke="#203d98" d="M183.5,-304.5C183.5,-304.5 514.5,-304.5 514.5,-304.5 520.5,-304.5 526.5,-310.5 526.5,-316.5 526.5,-316.5 526.5,-407.5 526.5,-407.5 526.5,-413.5 520.5,-419.5 514.5,-419.5 514.5,-419.5 183.5,-419.5 183.5,-419.5 177.5,-419.5 171.5,-413.5 171.5,-407.5 171.5,-407.5 171.5,-316.5 171.5,-316.5 171.5,-310.5 177.5,-304.5 183.5,-304.5"/>
<text text-anchor="middle" x="349" y="-404.3" font-family="Times,serif" font-size="14.00">indx: 0x5e3548c500f0</text>
<polyline fill="none" stroke="#203d98" points="171.5,-396.5 526.5,-396.5 "/>
<text text-anchor="middle" x="349" y="-381.3" font-family="Times,serif" font-size="14.00">type: 1</text>
<polyline fill="none" stroke="#203d98" points="171.5,-373.5 526.5,-373.5 "/>
<text text-anchor="middle" x="349" y="-358.3" font-family="Times,serif" font-size="14.00">value: +</text>
<polyline fill="none" stroke="#203d98" points="171.5,-350.5 526.5,-350.5 "/>
<text text-anchor="middle" x="349" y="-335.3" font-family="Times,serif" font-size="14.00">parent: (nil)</text>
<polyline fill="none" stroke="#203d98" points="171.5,-327.5 526.5,-327.5 "/>
<text text-anchor="middle" x="257" y="-312.3" font-family="Times,serif" font-size="14.00">left: 0x5e3548c500c0</text>
<polyline fill="none" stroke="#203d98" points="342.5,-304.5 342.5,-327.5 "/>
<text text-anchor="middle" x="434.5" y="-312.3" font-family="Times,serif" font-size="14.00">right: 0x5e3548c50030</text>
</g>
<!-- node0x5e3548c500c0 -->
<g id="node2" class="node">
<title>node0x5e3548c500c0</title>
<path fill="#e07082" stroke="#203d98" d="M36.5,-152.5C36.5,-152.5 369.5,-152.5 369.5,-152.5 375.5,-152.5 381.5,-158.5 381.5,-164.5 381.5,-164.5 381.5,-255.5 381.5,-255.5 381.5,-261.5 375.5,-267.5 369.5,-267.5 369.5,-267.5 36.5,-267.5 36.5,-267.5 30.5,-267.5 24.5,-261.5 24.5,-255.5 24.5,-255.5 24.5,-164.5 24.5,-164.5 24.5,-158.5 30.5,-152.5 36.5,-152.5"/>
<text text-anchor="middle" x="203" y="-252.3" font-family="Times,serif" font-size="14.00">indx: 0x5e3548c500c0</text>
<polyline fill="none" stroke="#203d98" points="24.5,-244.5 381.5,-244.5 "/>
<text text-anchor="middle" x="203" y="-229.3" font-family="Times,serif" font-size="14.00">type: 1</text>
<polyline fill="none" stroke="#203d98" points="24.5,-221.5 381.5,-221.5 "/>
<text text-anchor="middle" x="203" y="-206.3" font-family="Times,serif" font-size="14.00">value: +</text>
<polyline fill="none" stroke="#203d98" points="24.5,-198.5 381.5,-198.5 "/>
<text text-anchor="middle" x="203" y="-183.3" font-family="Times,serif" font-size="14.00">parent: 0x5e3548c500f0</text>
<polyline fill="none" stroke="#203d98" points="24.5,-175.5 381.5,-175.5 "/>
<text text-anchor="middle" x="111" y="-160.3" font-family="Times,serif" font-size="14.00">left: 0x5e3548c50090</text>
<polyline fill="none" stroke="#203d98" points="197.5,-152.5 197.5,-175.5 "/>
<text text-anchor="middle" x="289.5" y="-160.3" font-family="Times,serif" font-size="14.00">right: 0x5e3548c50060</text>
</g>
<!-- node0x5e3548c500f0&#45;&gt;node0x5e3548c500c0 -->
<g id="edge1" class="edge">
<title>node0x5e3548c500f0&#45;&gt;node0x5e3548c500c0</title>
<path fill="none" stroke="#203d98" d="M293.8,-304.29C284.54,-294.77 274.86,-284.83 265.43,-275.14"/>
<polygon fill="#203d98" stroke="#203d98" points="267.76,-272.51 258.27,-267.79 262.74,-277.4 267.76,-272.51"/>
</g>
<!-- node0x5e3548c50030 -->
<g id="node5" class="node">
<title>node0x5e3548c50030</title>
<path fill="#faaa82" stroke="#203d98" d="M412,-152.5C412,-152.5 580,-152.5 580,-152.5 586,-152.5 592,-158.5 592,-164.5 592,-164.5 592,-255.5 592,-255.5 592,-261.5 586,-267.5 580,-267.5 580,-267.5 412,-267.5 412,-267.5 406,-267.5 400,-261.5 400,-255.5 400,-255.5 400,-164.5 400,-164.5 400,-158.5 406,-152.5 412,-152.5"/>
<text text-anchor="middle" x="496" y="-252.3" font-family="Times,serif" font-size="14.00">indx: 0x5e3548c50030</text>
<polyline fill="none" stroke="#203d98" points="400,-244.5 592,-244.5 "/>
<text text-anchor="middle" x="496" y="-229.3" font-family="Times,serif" font-size="14.00">type: 3</text>
<polyline fill="none" stroke="#203d98" points="400,-221.5 592,-221.5 "/>
<text text-anchor="middle" x="496" y="-206.3" font-family="Times,serif" font-size="14.00">value: 1.00</text>
<polyline fill="none" stroke="#203d98" points="400,-198.5 592,-198.5 "/>
<text text-anchor="middle" x="496" y="-183.3" font-family="Times,serif" font-size="14.00">parent: 0x5e3548c500f0</text>
<polyline fill="none" stroke="#203d98" points="400,-175.5 592,-175.5 "/>
<text text-anchor="middle" x="445" y="-160.3" font-family="Times,serif" font-size="14.00">left: (nil)</text>
<polyline fill="none" stroke="#203d98" points="490,-152.5 490,-175.5 "/>
<text text-anchor="middle" x="541" y="-160.3" font-family="Times,serif" font-size="14.00">right: (nil)</text>
</g>
<!-- node0x5e3548c500f0&#45;&gt;node0x5e3548c50030 -->
<g id="edge4" class="edge">
<title>node0x5e3548c500f0&#45;&gt;node0x5e3548c50030</title>
<path fill="none" stroke="#203d98" d="M404.57,-304.29C413.9,-294.77 423.64,-284.83 433.14,-275.14"/>
<polygon fill="#203d98" stroke="#203d98" points="435.85,-277.38 440.35,-267.79 430.85,-272.48 435.85,-277.38"/>
</g>
<!-- node0x5e3548c50090 -->
<g id="node3" class="node">
<title>node0x5e3548c50090</title>
<path fill="#faaa82" stroke="#203d98" d="M12,-0.5C12,-0.5 182,-0.5 182,-0.5 188,-0.5 194,-6.5 194,-12.5 194,-12.5 194,-103.5 194,-103.5 194,-109.5 188,-115.5 182,-115.5 182,-115.5 12,-115.5 12,-115.5 6,-115.5 0,-109.5 0,-103.5 0,-103.5 0,-12.5 0,-12.5 0,-6.5 6,-0.5 12,-0.5"/>
<text text-anchor="middle" x="97" y="-100.3" font-family="Times,serif" font-size="14.00">indx: 0x5e3548c50090</text>
<polyline fill="none" stroke="#203d98" points="0,-92.5 194,-92.5 "/>
<text text-anchor="middle" x="97" y="-77.3" font-family="Times,serif" font-size="14.00">type: 3</text>
<polyline fill="none" stroke="#203d98" points="0,-69.5 194,-69.5 "/>
<text text-anchor="middle" x="97" y="-54.3" font-family="Times,serif" font-size="14.00">value: 0.00</text>
<polyline fill="none" stroke="#203d98" points="0,-46.5 194,-46.5 "/>
<text text-anchor="middle" x="97" y="-31.3" font-family="Times,serif" font-size="14.00">parent: 0x5e3548c500c0</text>
<polyline fill="none" stroke="#203d98" points="0,-23.5 194,-23.5 "/>
<text text-anchor="middle" x="45.5" y="-8.3" font-family="Times,serif" font-size="14.00">left: (nil)</text>
<polyline fill="none" stroke="#203d98" points="91,-0.5 91,-23.5 "/>
<text text-anchor="middle" x="142.5" y="-8.3" font-family="Times,serif" font-size="14.00">right: (nil)</text>
</g>
<!-- node0x5e3548c500c0&#45;&gt;node0x5e3548c50090 -->
<g id="edge2" class="edge">
<title>node0x5e3548c500c0&#45;&gt;node0x5e3548c50090</title>
<path fill="none" stroke="#203d98" d="M162.93,-152.29C156.4,-143.05 149.59,-133.42 142.93,-124"/>
<polygon fill="#203d98" stroke="#203d98" points="145.76,-121.94 137.13,-115.79 140.04,-125.98 145.76,-121.94"/>
</g>
<!-- node0x5e3548c50060 -->
<g id="node4" class="node">
<title>node0x5e3548c50060</title>
<path fill="#faaa82" stroke="#203d98" d="M224,-0.5C224,-0.5 394,-0.5 394,-0.5 400,-0.5 406,-6.5 406,-12.5 406,-12.5 406,-103.5 406,-103.5 406,-109.5 400,-115.5 394,-115.5 394,-115.5 224,-115.5 224,-115.5 218,-115.5 212,-109.5 212,-103.5 212,-103.5 212,-12.5 212,-12.5 212,-6.5 218,-0.5 224,-0.5"/>
<text text-anchor="middle" x="309" y="-100.3" font-family="Times,serif" font-size="14.00">indx: 0x5e3548c50060</text>
<polyline fill="none" stroke="#203d98" points="212,-92.5 406,-92.5 "/>
<text text-anchor="middle" x="309" y="-77.3" font-family="Times,serif" font-size="14.00">type: 3</text>
<polyline fill="none" stroke="#203d98" points="212,-69.5 406,-69.5 "/>
<text text-anchor="middle" x="309" y="-54.3" font-family="Times,serif" font-size="14.00">value: 0.00</text>
<polyline fill="none" stroke="#203d98" points="212,-46.5 406,-46.5 "/>
<text text-anchor="middle" x="309" y="-31.3" font-family="Times,serif" font-size="14.00">parent: 0x5e3548c500c0</text>
<polyline fill="none" stroke="#203d98" points="212,-23.5 406,-23.5 "/>
<text text-anchor="middle" x="257.5" y="-8.3" font-family="Times,serif" font-size="14.00">left: (nil)</text>
<polyline fill="none" stroke="#203d98" points="303,-0.5 303,-23.5 "/>
<text text-anchor="middle" x="354.5" y="-8.3" font-family="Times,serif" font-size="14.00">right: (nil)</text>
</g>
<!-- node0x5e3548c500c0&#45;&gt;node0x5e3548c50060 -->
<g id="edge3" class="edge">
<title>node0x5e3548c500c0&#45;&gt;node0x5e3548c50060</title>
<path fill="none" stroke="#203d98" d="M243.07,-152.29C249.6,-143.05 256.41,-133.42 263.07,-124"/>
<polygon fill="#203d98" stroke="#203d98" points="265.96,-125.98 268.87,-115.79 260.24,-121.94 265.96,-125.98"/>
</g>
</g>
</svg>
