<?xml version="1.0" encoding="UTF-8" standalone="no"?>
<!DOCTYPE svg PUBLIC "-//W3C//DTD SVG 1.1//EN"
 "http://www.w3.org/Graphics/SVG/1.1/DTD/svg11.dtd">
<!-- Generated by graphviz version 2.43.0 (0)
 -->
<!-- Title: Tree Pages: 1 -->
<svg width="872pt" height="732pt"
 viewBox="0.00 0.00 872.00 732.00" xmlns="http://www.w3.org/2000/svg" xmlns:xlink="http://www.w3.org/1999/xlink">
<g id="graph0" class="graph" transform="scale(1 1) rotate(0) translate(4 728)">
<title>Tree</title>
<polygon fill="#ffe7a5" stroke="transparent" points="-4,4 -4,-728 868,-728 868,4 -4,4"/>
<!-- node0x62af83f36620 -->
<g id="node1" class="node">
<title>node0x62af83f36620</title>
<path fill="#e07082" stroke="#203d98" d="M468.5,-608.5C468.5,-608.5 783.5,-608.5 783.5,-608.5 789.5,-608.5 795.5,-614.5 795.5,-620.5 795.5,-620.5 795.5,-711.5 795.5,-711.5 795.5,-717.5 789.5,-723.5 783.5,-723.5 783.5,-723.5 468.5,-723.5 468.5,-723.5 462.5,-723.5 456.5,-717.5 456.5,-711.5 456.5,-711.5 456.5,-620.5 456.5,-620.5 456.5,-614.5 462.5,-608.5 468.5,-608.5"/>
<text text-anchor="middle" x="626" y="-708.3" font-family="Times,serif" font-size="14.00">indx: 0x62af83f36620</text>
<polyline fill="none" stroke="#203d98" points="456.5,-700.5 795.5,-700.5 "/>
<text text-anchor="middle" x="626" y="-685.3" font-family="Times,serif" font-size="14.00">type: 1</text>
<polyline fill="none" stroke="#203d98" points="456.5,-677.5 795.5,-677.5 "/>
<text text-anchor="middle" x="626" y="-662.3" font-family="Times,serif" font-size="14.00">value: *</text>
<polyline fill="none" stroke="#203d98" points="456.5,-654.5 795.5,-654.5 "/>
<text text-anchor="middle" x="626" y="-639.3" font-family="Times,serif" font-size="14.00">parent: (nil)</text>
<polyline fill="none" stroke="#203d98" points="456.5,-631.5 795.5,-631.5 "/>
<text text-anchor="middle" x="539" y="-616.3" font-family="Times,serif" font-size="14.00">left: 0x62af83f365c0</text>
<polyline fill="none" stroke="#203d98" points="621.5,-608.5 621.5,-631.5 "/>
<text text-anchor="middle" x="708.5" y="-616.3" font-family="Times,serif" font-size="14.00">right: 0x62af83f365f0</text>
</g>
<!-- node0x62af83f365c0 -->
<g id="node2" class="node">
<title>node0x62af83f365c0</title>
<path fill="#e07082" stroke="#203d98" d="M322.5,-456.5C322.5,-456.5 643.5,-456.5 643.5,-456.5 649.5,-456.5 655.5,-462.5 655.5,-468.5 655.5,-468.5 655.5,-559.5 655.5,-559.5 655.5,-565.5 649.5,-571.5 643.5,-571.5 643.5,-571.5 322.5,-571.5 322.5,-571.5 316.5,-571.5 310.5,-565.5 310.5,-559.5 310.5,-559.5 310.5,-468.5 310.5,-468.5 310.5,-462.5 316.5,-456.5 322.5,-456.5"/>
<text text-anchor="middle" x="483" y="-556.3" font-family="Times,serif" font-size="14.00">indx: 0x62af83f365c0</text>
<polyline fill="none" stroke="#203d98" points="310.5,-548.5 655.5,-548.5 "/>
<text text-anchor="middle" x="483" y="-533.3" font-family="Times,serif" font-size="14.00">type: 1</text>
<polyline fill="none" stroke="#203d98" points="310.5,-525.5 655.5,-525.5 "/>
<text text-anchor="middle" x="483" y="-510.3" font-family="Times,serif" font-size="14.00">value: +</text>
<polyline fill="none" stroke="#203d98" points="310.5,-502.5 655.5,-502.5 "/>
<text text-anchor="middle" x="483" y="-487.3" font-family="Times,serif" font-size="14.00">parent: 0x62af83f36620</text>
<polyline fill="none" stroke="#203d98" points="310.5,-479.5 655.5,-479.5 "/>
<text text-anchor="middle" x="394" y="-464.3" font-family="Times,serif" font-size="14.00">left: 0x62af83f36560</text>
<polyline fill="none" stroke="#203d98" points="477.5,-456.5 477.5,-479.5 "/>
<text text-anchor="middle" x="566.5" y="-464.3" font-family="Times,serif" font-size="14.00">right: 0x62af83f36590</text>
</g>
<!-- node0x62af83f36620&#45;&gt;node0x62af83f365c0 -->
<g id="edge1" class="edge">
<title>node0x62af83f36620&#45;&gt;node0x62af83f365c0</title>
<path fill="none" stroke="#203d98" d="M571.94,-608.29C562.86,-598.77 553.39,-588.83 544.15,-579.14"/>
<polygon fill="#203d98" stroke="#203d98" points="546.57,-576.61 537.14,-571.79 541.51,-581.44 546.57,-576.61"/>
</g>
<!-- node0x62af83f365f0 -->
<g id="node9" class="node">
<title>node0x62af83f365f0</title>
<path fill="#faaa82" stroke="#203d98" d="M686,-456.5C686,-456.5 852,-456.5 852,-456.5 858,-456.5 864,-462.5 864,-468.5 864,-468.5 864,-559.5 864,-559.5 864,-565.5 858,-571.5 852,-571.5 852,-571.5 686,-571.5 686,-571.5 680,-571.5 674,-565.5 674,-559.5 674,-559.5 674,-468.5 674,-468.5 674,-462.5 680,-456.5 686,-456.5"/>
<text text-anchor="middle" x="769" y="-556.3" font-family="Times,serif" font-size="14.00">indx: 0x62af83f365f0</text>
<polyline fill="none" stroke="#203d98" points="674,-548.5 864,-548.5 "/>
<text text-anchor="middle" x="769" y="-533.3" font-family="Times,serif" font-size="14.00">type: 3</text>
<polyline fill="none" stroke="#203d98" points="674,-525.5 864,-525.5 "/>
<text text-anchor="middle" x="769" y="-510.3" font-family="Times,serif" font-size="14.00">value: 10.00</text>
<polyline fill="none" stroke="#203d98" points="674,-502.5 864,-502.5 "/>
<text text-anchor="middle" x="769" y="-487.3" font-family="Times,serif" font-size="14.00">parent: 0x62af83f36620</text>
<polyline fill="none" stroke="#203d98" points="674,-479.5 864,-479.5 "/>
<text text-anchor="middle" x="718.5" y="-464.3" font-family="Times,serif" font-size="14.00">left: (nil)</text>
<polyline fill="none" stroke="#203d98" points="763,-456.5 763,-479.5 "/>
<text text-anchor="middle" x="813.5" y="-464.3" font-family="Times,serif" font-size="14.00">right: (nil)</text>
</g>
<!-- node0x62af83f36620&#45;&gt;node0x62af83f365f0 -->
<g id="edge8" class="edge">
<title>node0x62af83f36620&#45;&gt;node0x62af83f365f0</title>
<path fill="none" stroke="#203d98" d="M680.06,-608.29C689.14,-598.77 698.61,-588.83 707.85,-579.14"/>
<polygon fill="#203d98" stroke="#203d98" points="710.49,-581.44 714.86,-571.79 705.43,-576.61 710.49,-581.44"/>
</g>
<!-- node0x62af83f36560 -->
<g id="node3" class="node">
<title>node0x62af83f36560</title>
<path fill="#e07082" stroke="#203d98" d="M180.5,-304.5C180.5,-304.5 501.5,-304.5 501.5,-304.5 507.5,-304.5 513.5,-310.5 513.5,-316.5 513.5,-316.5 513.5,-407.5 513.5,-407.5 513.5,-413.5 507.5,-419.5 501.5,-419.5 501.5,-419.5 180.5,-419.5 180.5,-419.5 174.5,-419.5 168.5,-413.5 168.5,-407.5 168.5,-407.5 168.5,-316.5 168.5,-316.5 168.5,-310.5 174.5,-304.5 180.5,-304.5"/>
<text text-anchor="middle" x="341" y="-404.3" font-family="Times,serif" font-size="14.00">indx: 0x62af83f36560</text>
<polyline fill="none" stroke="#203d98" points="168.5,-396.5 513.5,-396.5 "/>
<text text-anchor="middle" x="341" y="-381.3" font-family="Times,serif" font-size="14.00">type: 1</text>
<polyline fill="none" stroke="#203d98" points="168.5,-373.5 513.5,-373.5 "/>
<text text-anchor="middle" x="341" y="-358.3" font-family="Times,serif" font-size="14.00">value: &#45;</text>
<polyline fill="none" stroke="#203d98" points="168.5,-350.5 513.5,-350.5 "/>
<text text-anchor="middle" x="341" y="-335.3" font-family="Times,serif" font-size="14.00">parent: 0x62af83f365c0</text>
<polyline fill="none" stroke="#203d98" points="168.5,-327.5 513.5,-327.5 "/>
<text text-anchor="middle" x="252" y="-312.3" font-family="Times,serif" font-size="14.00">left: 0x62af83f36500</text>
<polyline fill="none" stroke="#203d98" points="335.5,-304.5 335.5,-327.5 "/>
<text text-anchor="middle" x="424.5" y="-312.3" font-family="Times,serif" font-size="14.00">right: 0x62af83f36530</text>
</g>
<!-- node0x62af83f365c0&#45;&gt;node0x62af83f36560 -->
<g id="edge2" class="edge">
<title>node0x62af83f365c0&#45;&gt;node0x62af83f36560</title>
<path fill="none" stroke="#203d98" d="M429.32,-456.29C420.3,-446.77 410.89,-436.83 401.72,-427.14"/>
<polygon fill="#203d98" stroke="#203d98" points="404.18,-424.64 394.76,-419.79 399.09,-429.46 404.18,-424.64"/>
</g>
<!-- node0x62af83f36590 -->
<g id="node8" class="node">
<title>node0x62af83f36590</title>
<path fill="#faaa82" stroke="#203d98" d="M544,-304.5C544,-304.5 708,-304.5 708,-304.5 714,-304.5 720,-310.5 720,-316.5 720,-316.5 720,-407.5 720,-407.5 720,-413.5 714,-419.5 708,-419.5 708,-419.5 544,-419.5 544,-419.5 538,-419.5 532,-413.5 532,-407.5 532,-407.5 532,-316.5 532,-316.5 532,-310.5 538,-304.5 544,-304.5"/>
<text text-anchor="middle" x="626" y="-404.3" font-family="Times,serif" font-size="14.00">indx: 0x62af83f36590</text>
<polyline fill="none" stroke="#203d98" points="532,-396.5 720,-396.5 "/>
<text text-anchor="middle" x="626" y="-381.3" font-family="Times,serif" font-size="14.00">type: 3</text>
<polyline fill="none" stroke="#203d98" points="532,-373.5 720,-373.5 "/>
<text text-anchor="middle" x="626" y="-358.3" font-family="Times,serif" font-size="14.00">value: 9.00</text>
<polyline fill="none" stroke="#203d98" points="532,-350.5 720,-350.5 "/>
<text text-anchor="middle" x="626" y="-335.3" font-family="Times,serif" font-size="14.00">parent: 0x62af83f365c0</text>
<polyline fill="none" stroke="#203d98" points="532,-327.5 720,-327.5 "/>
<text text-anchor="middle" x="576" y="-312.3" font-family="Times,serif" font-size="14.00">left: (nil)</text>
<polyline fill="none" stroke="#203d98" points="620,-304.5 620,-327.5 "/>
<text text-anchor="middle" x="670" y="-312.3" font-family="Times,serif" font-size="14.00">right: (nil)</text>
</g>
<!-- node0x62af83f365c0&#45;&gt;node0x62af83f36590 -->
<g id="edge7" class="edge">
<title>node0x62af83f365c0&#45;&gt;node0x62af83f36590</title>
<path fill="none" stroke="#203d98" d="M537.06,-456.29C546.14,-446.77 555.61,-436.83 564.85,-427.14"/>
<polygon fill="#203d98" stroke="#203d98" points="567.49,-429.44 571.86,-419.79 562.43,-424.61 567.49,-429.44"/>
</g>
<!-- node0x62af83f36500 -->
<g id="node4" class="node">
<title>node0x62af83f36500</title>
<path fill="#e07082" stroke="#203d98" d="M39,-152.5C39,-152.5 359,-152.5 359,-152.5 365,-152.5 371,-158.5 371,-164.5 371,-164.5 371,-255.5 371,-255.5 371,-261.5 365,-267.5 359,-267.5 359,-267.5 39,-267.5 39,-267.5 33,-267.5 27,-261.5 27,-255.5 27,-255.5 27,-164.5 27,-164.5 27,-158.5 33,-152.5 39,-152.5"/>
<text text-anchor="middle" x="199" y="-252.3" font-family="Times,serif" font-size="14.00">indx: 0x62af83f36500</text>
<polyline fill="none" stroke="#203d98" points="27,-244.5 371,-244.5 "/>
<text text-anchor="middle" x="199" y="-229.3" font-family="Times,serif" font-size="14.00">type: 1</text>
<polyline fill="none" stroke="#203d98" points="27,-221.5 371,-221.5 "/>
<text text-anchor="middle" x="199" y="-206.3" font-family="Times,serif" font-size="14.00">value: +</text>
<polyline fill="none" stroke="#203d98" points="27,-198.5 371,-198.5 "/>
<text text-anchor="middle" x="199" y="-183.3" font-family="Times,serif" font-size="14.00">parent: 0x62af83f36560</text>
<polyline fill="none" stroke="#203d98" points="27,-175.5 371,-175.5 "/>
<text text-anchor="middle" x="110" y="-160.3" font-family="Times,serif" font-size="14.00">left: 0x62af83f364a0</text>
<polyline fill="none" stroke="#203d98" points="193,-152.5 193,-175.5 "/>
<text text-anchor="middle" x="282" y="-160.3" font-family="Times,serif" font-size="14.00">right: 0x62af83f364d0</text>
</g>
<!-- node0x62af83f36560&#45;&gt;node0x62af83f36500 -->
<g id="edge3" class="edge">
<title>node0x62af83f36560&#45;&gt;node0x62af83f36500</title>
<path fill="none" stroke="#203d98" d="M287.32,-304.29C278.3,-294.77 268.89,-284.83 259.72,-275.14"/>
<polygon fill="#203d98" stroke="#203d98" points="262.18,-272.64 252.76,-267.79 257.09,-277.46 262.18,-272.64"/>
</g>
<!-- node0x62af83f36530 -->
<g id="node7" class="node">
<title>node0x62af83f36530</title>
<path fill="#faaa82" stroke="#203d98" d="M401,-152.5C401,-152.5 567,-152.5 567,-152.5 573,-152.5 579,-158.5 579,-164.5 579,-164.5 579,-255.5 579,-255.5 579,-261.5 573,-267.5 567,-267.5 567,-267.5 401,-267.5 401,-267.5 395,-267.5 389,-261.5 389,-255.5 389,-255.5 389,-164.5 389,-164.5 389,-158.5 395,-152.5 401,-152.5"/>
<text text-anchor="middle" x="484" y="-252.3" font-family="Times,serif" font-size="14.00">indx: 0x62af83f36530</text>
<polyline fill="none" stroke="#203d98" points="389,-244.5 579,-244.5 "/>
<text text-anchor="middle" x="484" y="-229.3" font-family="Times,serif" font-size="14.00">type: 3</text>
<polyline fill="none" stroke="#203d98" points="389,-221.5 579,-221.5 "/>
<text text-anchor="middle" x="484" y="-206.3" font-family="Times,serif" font-size="14.00">value: 8.00</text>
<polyline fill="none" stroke="#203d98" points="389,-198.5 579,-198.5 "/>
<text text-anchor="middle" x="484" y="-183.3" font-family="Times,serif" font-size="14.00">parent: 0x62af83f36560</text>
<polyline fill="none" stroke="#203d98" points="389,-175.5 579,-175.5 "/>
<text text-anchor="middle" x="433.5" y="-160.3" font-family="Times,serif" font-size="14.00">left: (nil)</text>
<polyline fill="none" stroke="#203d98" points="478,-152.5 478,-175.5 "/>
<text text-anchor="middle" x="528.5" y="-160.3" font-family="Times,serif" font-size="14.00">right: (nil)</text>
</g>
<!-- node0x62af83f36560&#45;&gt;node0x62af83f36530 -->
<g id="edge6" class="edge">
<title>node0x62af83f36560&#45;&gt;node0x62af83f36530</title>
<path fill="none" stroke="#203d98" d="M395.06,-304.29C404.14,-294.77 413.61,-284.83 422.85,-275.14"/>
<polygon fill="#203d98" stroke="#203d98" points="425.49,-277.44 429.86,-267.79 420.43,-272.61 425.49,-277.44"/>
</g>
<!-- node0x62af83f364a0 -->
<g id="node5" class="node">
<title>node0x62af83f364a0</title>
<path fill="#faaa82" stroke="#203d98" d="M12,-0.5C12,-0.5 178,-0.5 178,-0.5 184,-0.5 190,-6.5 190,-12.5 190,-12.5 190,-103.5 190,-103.5 190,-109.5 184,-115.5 178,-115.5 178,-115.5 12,-115.5 12,-115.5 6,-115.5 0,-109.5 0,-103.5 0,-103.5 0,-12.5 0,-12.5 0,-6.5 6,-0.5 12,-0.5"/>
<text text-anchor="middle" x="95" y="-100.3" font-family="Times,serif" font-size="14.00">indx: 0x62af83f364a0</text>
<polyline fill="none" stroke="#203d98" points="0,-92.5 190,-92.5 "/>
<text text-anchor="middle" x="95" y="-77.3" font-family="Times,serif" font-size="14.00">type: 3</text>
<polyline fill="none" stroke="#203d98" points="0,-69.5 190,-69.5 "/>
<text text-anchor="middle" x="95" y="-54.3" font-family="Times,serif" font-size="14.00">value: 7.00</text>
<polyline fill="none" stroke="#203d98" points="0,-46.5 190,-46.5 "/>
<text text-anchor="middle" x="95" y="-31.3" font-family="Times,serif" font-size="14.00">parent: 0x62af83f36500</text>
<polyline fill="none" stroke="#203d98" points="0,-23.5 190,-23.5 "/>
<text text-anchor="middle" x="44.5" y="-8.3" font-family="Times,serif" font-size="14.00">left: (nil)</text>
<polyline fill="none" stroke="#203d98" points="89,-0.5 89,-23.5 "/>
<text text-anchor="middle" x="139.5" y="-8.3" font-family="Times,serif" font-size="14.00">right: (nil)</text>
</g>
<!-- node0x62af83f36500&#45;&gt;node0x62af83f364a0 -->
<g id="edge4" class="edge">
<title>node0x62af83f36500&#45;&gt;node0x62af83f364a0</title>
<path fill="none" stroke="#203d98" d="M159.68,-152.29C153.34,-143.14 146.73,-133.61 140.26,-124.28"/>
<polygon fill="#203d98" stroke="#203d98" points="142.95,-122.01 134.37,-115.79 137.2,-126 142.95,-122.01"/>
</g>
<!-- node0x62af83f364d0 -->
<g id="node6" class="node">
<title>node0x62af83f364d0</title>
<path fill="#a24892" stroke="#203d98" d="M220,-0.5C220,-0.5 386,-0.5 386,-0.5 392,-0.5 398,-6.5 398,-12.5 398,-12.5 398,-103.5 398,-103.5 398,-109.5 392,-115.5 386,-115.5 386,-115.5 220,-115.5 220,-115.5 214,-115.5 208,-109.5 208,-103.5 208,-103.5 208,-12.5 208,-12.5 208,-6.5 214,-0.5 220,-0.5"/>
<text text-anchor="middle" x="303" y="-100.3" font-family="Times,serif" font-size="14.00">indx: 0x62af83f364d0</text>
<polyline fill="none" stroke="#203d98" points="208,-92.5 398,-92.5 "/>
<text text-anchor="middle" x="303" y="-77.3" font-family="Times,serif" font-size="14.00">type: 2</text>
<polyline fill="none" stroke="#203d98" points="208,-69.5 398,-69.5 "/>
<text text-anchor="middle" x="303" y="-54.3" font-family="Times,serif" font-size="14.00">value: x</text>
<polyline fill="none" stroke="#203d98" points="208,-46.5 398,-46.5 "/>
<text text-anchor="middle" x="303" y="-31.3" font-family="Times,serif" font-size="14.00">parent: 0x62af83f36500</text>
<polyline fill="none" stroke="#203d98" points="208,-23.5 398,-23.5 "/>
<text text-anchor="middle" x="252.5" y="-8.3" font-family="Times,serif" font-size="14.00">left: (nil)</text>
<polyline fill="none" stroke="#203d98" points="297,-0.5 297,-23.5 "/>
<text text-anchor="middle" x="347.5" y="-8.3" font-family="Times,serif" font-size="14.00">right: (nil)</text>
</g>
<!-- node0x62af83f36500&#45;&gt;node0x62af83f364d0 -->
<g id="edge5" class="edge">
<title>node0x62af83f36500&#45;&gt;node0x62af83f364d0</title>
<path fill="none" stroke="#203d98" d="M238.32,-152.29C244.66,-143.14 251.27,-133.61 257.74,-124.28"/>
<polygon fill="#203d98" stroke="#203d98" points="260.8,-126 263.63,-115.79 255.05,-122.01 260.8,-126"/>
</g>
</g>
</svg>
