<?xml version="1.0" encoding="UTF-8" standalone="no"?>
<!DOCTYPE svg PUBLIC "-//W3C//DTD SVG 1.1//EN"
 "http://www.w3.org/Graphics/SVG/1.1/DTD/svg11.dtd">
<!-- Generated by graphviz version 2.43.0 (0)
 -->
<!-- Title: Tree Pages: 1 -->
<svg width="406pt" height="276pt"
 viewBox="0.00 0.00 406.00 276.00" xmlns="http://www.w3.org/2000/svg" xmlns:xlink="http://www.w3.org/1999/xlink">
<g id="graph0" class="graph" transform="scale(1 1) rotate(0) translate(4 272)">
<title>Tree</title>
<polygon fill="#ffe7a5" stroke="transparent" points="-4,4 -4,-272 402,-272 402,4 -4,4"/>
<!-- node0x5bb894ff3150 -->
<g id="node1" class="node">
<title>node0x5bb894ff3150</title>
<path fill="#e07082" stroke="#203d98" d="M40.5,-152.5C40.5,-152.5 357.5,-152.5 357.5,-152.5 363.5,-152.5 369.5,-158.5 369.5,-164.5 369.5,-164.5 369.5,-255.5 369.5,-255.5 369.5,-261.5 363.5,-267.5 357.5,-267.5 357.5,-267.5 40.5,-267.5 40.5,-267.5 34.5,-267.5 28.5,-261.5 28.5,-255.5 28.5,-255.5 28.5,-164.5 28.5,-164.5 28.5,-158.5 34.5,-152.5 40.5,-152.5"/>
<text text-anchor="middle" x="199" y="-252.3" font-family="Times,serif" font-size="14.00">indx: 0x5bb894ff3150</text>
<polyline fill="none" stroke="#203d98" points="28.5,-244.5 369.5,-244.5 "/>
<text text-anchor="middle" x="199" y="-229.3" font-family="Times,serif" font-size="14.00">type: 1</text>
<polyline fill="none" stroke="#203d98" points="28.5,-221.5 369.5,-221.5 "/>
<text text-anchor="middle" x="199" y="-206.3" font-family="Times,serif" font-size="14.00">value: c</text>
<polyline fill="none" stroke="#203d98" points="28.5,-198.5 369.5,-198.5 "/>
<text text-anchor="middle" x="199" y="-183.3" font-family="Times,serif" font-size="14.00">parent: (nil)</text>
<polyline fill="none" stroke="#203d98" points="28.5,-175.5 369.5,-175.5 "/>
<text text-anchor="middle" x="112" y="-160.3" font-family="Times,serif" font-size="14.00">left: 0x5bb894ff3120</text>
<polyline fill="none" stroke="#203d98" points="195.5,-152.5 195.5,-175.5 "/>
<text text-anchor="middle" x="282.5" y="-160.3" font-family="Times,serif" font-size="14.00">right: 0x5bb894ff30f0</text>
</g>
<!-- node0x5bb894ff3120 -->
<g id="node2" class="node">
<title>node0x5bb894ff3120</title>
<path fill="#faaa82" stroke="#203d98" d="M12,-0.5C12,-0.5 178,-0.5 178,-0.5 184,-0.5 190,-6.5 190,-12.5 190,-12.5 190,-103.5 190,-103.5 190,-109.5 184,-115.5 178,-115.5 178,-115.5 12,-115.5 12,-115.5 6,-115.5 0,-109.5 0,-103.5 0,-103.5 0,-12.5 0,-12.5 0,-6.5 6,-0.5 12,-0.5"/>
<text text-anchor="middle" x="95" y="-100.3" font-family="Times,serif" font-size="14.00">indx: 0x5bb894ff3120</text>
<polyline fill="none" stroke="#203d98" points="0,-92.5 190,-92.5 "/>
<text text-anchor="middle" x="95" y="-77.3" font-family="Times,serif" font-size="14.00">type: 3</text>
<polyline fill="none" stroke="#203d98" points="0,-69.5 190,-69.5 "/>
<text text-anchor="middle" x="95" y="-54.3" font-family="Times,serif" font-size="14.00">value: 1.00</text>
<polyline fill="none" stroke="#203d98" points="0,-46.5 190,-46.5 "/>
<text text-anchor="middle" x="95" y="-31.3" font-family="Times,serif" font-size="14.00">parent: 0x5bb894ff3150</text>
<polyline fill="none" stroke="#203d98" points="0,-23.5 190,-23.5 "/>
<text text-anchor="middle" x="44.5" y="-8.3" font-family="Times,serif" font-size="14.00">left: (nil)</text>
<polyline fill="none" stroke="#203d98" points="89,-0.5 89,-23.5 "/>
<text text-anchor="middle" x="139.5" y="-8.3" font-family="Times,serif" font-size="14.00">right: (nil)</text>
</g>
<!-- node0x5bb894ff3150&#45;&gt;node0x5bb894ff3120 -->
<g id="edge1" class="edge">
<title>node0x5bb894ff3150&#45;&gt;node0x5bb894ff3120</title>
<path fill="none" stroke="#203d98" d="M159.68,-152.29C153.34,-143.14 146.73,-133.61 140.26,-124.28"/>
<polygon fill="#203d98" stroke="#203d98" points="142.95,-122.01 134.37,-115.79 137.2,-126 142.95,-122.01"/>
</g>
<!-- node0x5bb894ff30f0 -->
<g id="node3" class="node">
<title>node0x5bb894ff30f0</title>
<path fill="#faaa82" stroke="#203d98" d="M220,-0.5C220,-0.5 386,-0.5 386,-0.5 392,-0.5 398,-6.5 398,-12.5 398,-12.5 398,-103.5 398,-103.5 398,-109.5 392,-115.5 386,-115.5 386,-115.5 220,-115.5 220,-115.5 214,-115.5 208,-109.5 208,-103.5 208,-103.5 208,-12.5 208,-12.5 208,-6.5 214,-0.5 220,-0.5"/>
<text text-anchor="middle" x="303" y="-100.3" font-family="Times,serif" font-size="14.00">indx: 0x5bb894ff30f0</text>
<polyline fill="none" stroke="#203d98" points="208,-92.5 398,-92.5 "/>
<text text-anchor="middle" x="303" y="-77.3" font-family="Times,serif" font-size="14.00">type: 3</text>
<polyline fill="none" stroke="#203d98" points="208,-69.5 398,-69.5 "/>
<text text-anchor="middle" x="303" y="-54.3" font-family="Times,serif" font-size="14.00">value: 0.00</text>
<polyline fill="none" stroke="#203d98" points="208,-46.5 398,-46.5 "/>
<text text-anchor="middle" x="303" y="-31.3" font-family="Times,serif" font-size="14.00">parent: 0x5bb894ff3150</text>
<polyline fill="none" stroke="#203d98" points="208,-23.5 398,-23.5 "/>
<text text-anchor="middle" x="252.5" y="-8.3" font-family="Times,serif" font-size="14.00">left: (nil)</text>
<polyline fill="none" stroke="#203d98" points="297,-0.5 297,-23.5 "/>
<text text-anchor="middle" x="347.5" y="-8.3" font-family="Times,serif" font-size="14.00">right: (nil)</text>
</g>
<!-- node0x5bb894ff3150&#45;&gt;node0x5bb894ff30f0 -->
<g id="edge2" class="edge">
<title>node0x5bb894ff3150&#45;&gt;node0x5bb894ff30f0</title>
<path fill="none" stroke="#203d98" d="M238.32,-152.29C244.66,-143.14 251.27,-133.61 257.74,-124.28"/>
<polygon fill="#203d98" stroke="#203d98" points="260.8,-126 263.63,-115.79 255.05,-122.01 260.8,-126"/>
</g>
</g>
</svg>
