<?xml version="1.0" encoding="UTF-8" standalone="no"?>
<!DOCTYPE svg PUBLIC "-//W3C//DTD SVG 1.1//EN"
 "http://www.w3.org/Graphics/SVG/1.1/DTD/svg11.dtd">
<!-- Generated by graphviz version 2.43.0 (0)
 -->
<!-- Title: Tree Pages: 1 -->
<svg width="1192pt" height="1036pt"
 viewBox="0.00 0.00 1192.00 1036.00" xmlns="http://www.w3.org/2000/svg" xmlns:xlink="http://www.w3.org/1999/xlink">
<g id="graph0" class="graph" transform="scale(1 1) rotate(0) translate(4 1032)">
<title>Tree</title>
<polygon fill="#ffe7a5" stroke="transparent" points="-4,4 -4,-1032 1188,-1032 1188,4 -4,4"/>
<!-- node0x60abf3eb30d0 -->
<g id="node1" class="node">
<title>node0x60abf3eb30d0</title>
<path fill="#e07082" stroke="#203d98" d="M385,-912.5C385,-912.5 710,-912.5 710,-912.5 716,-912.5 722,-918.5 722,-924.5 722,-924.5 722,-1015.5 722,-1015.5 722,-1021.5 716,-1027.5 710,-1027.5 710,-1027.5 385,-1027.5 385,-1027.5 379,-1027.5 373,-1021.5 373,-1015.5 373,-1015.5 373,-924.5 373,-924.5 373,-918.5 379,-912.5 385,-912.5"/>
<text text-anchor="middle" x="547.5" y="-1012.3" font-family="Times,serif" font-size="14.00">indx: 0x60abf3eb30d0</text>
<polyline fill="none" stroke="#203d98" points="373,-1004.5 722,-1004.5 "/>
<text text-anchor="middle" x="547.5" y="-989.3" font-family="Times,serif" font-size="14.00">type: 1</text>
<polyline fill="none" stroke="#203d98" points="373,-981.5 722,-981.5 "/>
<text text-anchor="middle" x="547.5" y="-966.3" font-family="Times,serif" font-size="14.00">value: /</text>
<polyline fill="none" stroke="#203d98" points="373,-958.5 722,-958.5 "/>
<text text-anchor="middle" x="547.5" y="-943.3" font-family="Times,serif" font-size="14.00">parent: (nil)</text>
<polyline fill="none" stroke="#203d98" points="373,-935.5 722,-935.5 "/>
<text text-anchor="middle" x="458" y="-920.3" font-family="Times,serif" font-size="14.00">left: 0x60abf3eb3940</text>
<polyline fill="none" stroke="#203d98" points="543,-912.5 543,-935.5 "/>
<text text-anchor="middle" x="632.5" y="-920.3" font-family="Times,serif" font-size="14.00">right: 0x60abf3eb3c40</text>
</g>
<!-- node0x60abf3eb3940 -->
<g id="node2" class="node">
<title>node0x60abf3eb3940</title>
<path fill="#e07082" stroke="#203d98" d="M239.5,-760.5C239.5,-760.5 565.5,-760.5 565.5,-760.5 571.5,-760.5 577.5,-766.5 577.5,-772.5 577.5,-772.5 577.5,-863.5 577.5,-863.5 577.5,-869.5 571.5,-875.5 565.5,-875.5 565.5,-875.5 239.5,-875.5 239.5,-875.5 233.5,-875.5 227.5,-869.5 227.5,-863.5 227.5,-863.5 227.5,-772.5 227.5,-772.5 227.5,-766.5 233.5,-760.5 239.5,-760.5"/>
<text text-anchor="middle" x="402.5" y="-860.3" font-family="Times,serif" font-size="14.00">indx: 0x60abf3eb3940</text>
<polyline fill="none" stroke="#203d98" points="227.5,-852.5 577.5,-852.5 "/>
<text text-anchor="middle" x="402.5" y="-837.3" font-family="Times,serif" font-size="14.00">type: 1</text>
<polyline fill="none" stroke="#203d98" points="227.5,-829.5 577.5,-829.5 "/>
<text text-anchor="middle" x="402.5" y="-814.3" font-family="Times,serif" font-size="14.00">value: *</text>
<polyline fill="none" stroke="#203d98" points="227.5,-806.5 577.5,-806.5 "/>
<text text-anchor="middle" x="402.5" y="-791.3" font-family="Times,serif" font-size="14.00">parent: 0x60abf3eb30d0</text>
<polyline fill="none" stroke="#203d98" points="227.5,-783.5 577.5,-783.5 "/>
<text text-anchor="middle" x="312.5" y="-768.3" font-family="Times,serif" font-size="14.00">left: 0x60abf3eb3910</text>
<polyline fill="none" stroke="#203d98" points="397.5,-760.5 397.5,-783.5 "/>
<text text-anchor="middle" x="487.5" y="-768.3" font-family="Times,serif" font-size="14.00">right: 0x60abf3eb36a0</text>
</g>
<!-- node0x60abf3eb30d0&#45;&gt;node0x60abf3eb3940 -->
<g id="edge1" class="edge">
<title>node0x60abf3eb30d0&#45;&gt;node0x60abf3eb3940</title>
<path fill="none" stroke="#203d98" d="M492.68,-912.29C483.48,-902.77 473.87,-892.83 464.5,-883.14"/>
<polygon fill="#203d98" stroke="#203d98" points="466.86,-880.55 457.4,-875.79 461.83,-885.41 466.86,-880.55"/>
</g>
<!-- node0x60abf3eb3c40 -->
<g id="node17" class="node">
<title>node0x60abf3eb3c40</title>
<path fill="#faaa82" stroke="#203d98" d="M608,-760.5C608,-760.5 777,-760.5 777,-760.5 783,-760.5 789,-766.5 789,-772.5 789,-772.5 789,-863.5 789,-863.5 789,-869.5 783,-875.5 777,-875.5 777,-875.5 608,-875.5 608,-875.5 602,-875.5 596,-869.5 596,-863.5 596,-863.5 596,-772.5 596,-772.5 596,-766.5 602,-760.5 608,-760.5"/>
<text text-anchor="middle" x="692.5" y="-860.3" font-family="Times,serif" font-size="14.00">indx: 0x60abf3eb3c40</text>
<polyline fill="none" stroke="#203d98" points="596,-852.5 789,-852.5 "/>
<text text-anchor="middle" x="692.5" y="-837.3" font-family="Times,serif" font-size="14.00">type: 3</text>
<polyline fill="none" stroke="#203d98" points="596,-829.5 789,-829.5 "/>
<text text-anchor="middle" x="692.5" y="-814.3" font-family="Times,serif" font-size="14.00">value: 1296.00</text>
<polyline fill="none" stroke="#203d98" points="596,-806.5 789,-806.5 "/>
<text text-anchor="middle" x="692.5" y="-791.3" font-family="Times,serif" font-size="14.00">parent: 0x60abf3eb30d0</text>
<polyline fill="none" stroke="#203d98" points="596,-783.5 789,-783.5 "/>
<text text-anchor="middle" x="641.5" y="-768.3" font-family="Times,serif" font-size="14.00">left: (nil)</text>
<polyline fill="none" stroke="#203d98" points="687,-760.5 687,-783.5 "/>
<text text-anchor="middle" x="738" y="-768.3" font-family="Times,serif" font-size="14.00">right: (nil)</text>
</g>
<!-- node0x60abf3eb30d0&#45;&gt;node0x60abf3eb3c40 -->
<g id="edge16" class="edge">
<title>node0x60abf3eb30d0&#45;&gt;node0x60abf3eb3c40</title>
<path fill="none" stroke="#203d98" d="M602.32,-912.29C611.52,-902.77 621.13,-892.83 630.5,-883.14"/>
<polygon fill="#203d98" stroke="#203d98" points="633.17,-885.41 637.6,-875.79 628.14,-880.55 633.17,-885.41"/>
</g>
<!-- node0x60abf3eb3910 -->
<g id="node3" class="node">
<title>node0x60abf3eb3910</title>
<path fill="#faaa82" stroke="#203d98" d="M173,-608.5C173,-608.5 342,-608.5 342,-608.5 348,-608.5 354,-614.5 354,-620.5 354,-620.5 354,-711.5 354,-711.5 354,-717.5 348,-723.5 342,-723.5 342,-723.5 173,-723.5 173,-723.5 167,-723.5 161,-717.5 161,-711.5 161,-711.5 161,-620.5 161,-620.5 161,-614.5 167,-608.5 173,-608.5"/>
<text text-anchor="middle" x="257.5" y="-708.3" font-family="Times,serif" font-size="14.00">indx: 0x60abf3eb3910</text>
<polyline fill="none" stroke="#203d98" points="161,-700.5 354,-700.5 "/>
<text text-anchor="middle" x="257.5" y="-685.3" font-family="Times,serif" font-size="14.00">type: 3</text>
<polyline fill="none" stroke="#203d98" points="161,-677.5 354,-677.5 "/>
<text text-anchor="middle" x="257.5" y="-662.3" font-family="Times,serif" font-size="14.00">value: 216.00</text>
<polyline fill="none" stroke="#203d98" points="161,-654.5 354,-654.5 "/>
<text text-anchor="middle" x="257.5" y="-639.3" font-family="Times,serif" font-size="14.00">parent: 0x60abf3eb3940</text>
<polyline fill="none" stroke="#203d98" points="161,-631.5 354,-631.5 "/>
<text text-anchor="middle" x="206.5" y="-616.3" font-family="Times,serif" font-size="14.00">left: (nil)</text>
<polyline fill="none" stroke="#203d98" points="252,-608.5 252,-631.5 "/>
<text text-anchor="middle" x="303" y="-616.3" font-family="Times,serif" font-size="14.00">right: (nil)</text>
</g>
<!-- node0x60abf3eb3940&#45;&gt;node0x60abf3eb3910 -->
<g id="edge2" class="edge">
<title>node0x60abf3eb3940&#45;&gt;node0x60abf3eb3910</title>
<path fill="none" stroke="#203d98" d="M347.68,-760.29C338.48,-750.77 328.87,-740.83 319.5,-731.14"/>
<polygon fill="#203d98" stroke="#203d98" points="321.86,-728.55 312.4,-723.79 316.83,-733.41 321.86,-728.55"/>
</g>
<!-- node0x60abf3eb36a0 -->
<g id="node4" class="node">
<title>node0x60abf3eb36a0</title>
<path fill="#e07082" stroke="#203d98" d="M384,-608.5C384,-608.5 711,-608.5 711,-608.5 717,-608.5 723,-614.5 723,-620.5 723,-620.5 723,-711.5 723,-711.5 723,-717.5 717,-723.5 711,-723.5 711,-723.5 384,-723.5 384,-723.5 378,-723.5 372,-717.5 372,-711.5 372,-711.5 372,-620.5 372,-620.5 372,-614.5 378,-608.5 384,-608.5"/>
<text text-anchor="middle" x="547.5" y="-708.3" font-family="Times,serif" font-size="14.00">indx: 0x60abf3eb36a0</text>
<polyline fill="none" stroke="#203d98" points="372,-700.5 723,-700.5 "/>
<text text-anchor="middle" x="547.5" y="-685.3" font-family="Times,serif" font-size="14.00">type: 1</text>
<polyline fill="none" stroke="#203d98" points="372,-677.5 723,-677.5 "/>
<text text-anchor="middle" x="547.5" y="-662.3" font-family="Times,serif" font-size="14.00">value: +</text>
<polyline fill="none" stroke="#203d98" points="372,-654.5 723,-654.5 "/>
<text text-anchor="middle" x="547.5" y="-639.3" font-family="Times,serif" font-size="14.00">parent: 0x60abf3eb3940</text>
<polyline fill="none" stroke="#203d98" points="372,-631.5 723,-631.5 "/>
<text text-anchor="middle" x="457" y="-616.3" font-family="Times,serif" font-size="14.00">left: 0x60abf3eb36d0</text>
<polyline fill="none" stroke="#203d98" points="542,-608.5 542,-631.5 "/>
<text text-anchor="middle" x="632.5" y="-616.3" font-family="Times,serif" font-size="14.00">right: 0x60abf3eb3820</text>
</g>
<!-- node0x60abf3eb3940&#45;&gt;node0x60abf3eb36a0 -->
<g id="edge3" class="edge">
<title>node0x60abf3eb3940&#45;&gt;node0x60abf3eb36a0</title>
<path fill="none" stroke="#203d98" d="M457.32,-760.29C466.52,-750.77 476.13,-740.83 485.5,-731.14"/>
<polygon fill="#203d98" stroke="#203d98" points="488.17,-733.41 492.6,-723.79 483.14,-728.55 488.17,-733.41"/>
</g>
<!-- node0x60abf3eb36d0 -->
<g id="node5" class="node">
<title>node0x60abf3eb36d0</title>
<path fill="#e07082" stroke="#203d98" d="M200,-456.5C200,-456.5 527,-456.5 527,-456.5 533,-456.5 539,-462.5 539,-468.5 539,-468.5 539,-559.5 539,-559.5 539,-565.5 533,-571.5 527,-571.5 527,-571.5 200,-571.5 200,-571.5 194,-571.5 188,-565.5 188,-559.5 188,-559.5 188,-468.5 188,-468.5 188,-462.5 194,-456.5 200,-456.5"/>
<text text-anchor="middle" x="363.5" y="-556.3" font-family="Times,serif" font-size="14.00">indx: 0x60abf3eb36d0</text>
<polyline fill="none" stroke="#203d98" points="188,-548.5 539,-548.5 "/>
<text text-anchor="middle" x="363.5" y="-533.3" font-family="Times,serif" font-size="14.00">type: 1</text>
<polyline fill="none" stroke="#203d98" points="188,-525.5 539,-525.5 "/>
<text text-anchor="middle" x="363.5" y="-510.3" font-family="Times,serif" font-size="14.00">value: *</text>
<polyline fill="none" stroke="#203d98" points="188,-502.5 539,-502.5 "/>
<text text-anchor="middle" x="363.5" y="-487.3" font-family="Times,serif" font-size="14.00">parent: 0x60abf3eb36a0</text>
<polyline fill="none" stroke="#203d98" points="188,-479.5 539,-479.5 "/>
<text text-anchor="middle" x="273" y="-464.3" font-family="Times,serif" font-size="14.00">left: 0x60abf3eb3700</text>
<polyline fill="none" stroke="#203d98" points="358,-456.5 358,-479.5 "/>
<text text-anchor="middle" x="448.5" y="-464.3" font-family="Times,serif" font-size="14.00">right: 0x60abf3eb3730</text>
</g>
<!-- node0x60abf3eb36a0&#45;&gt;node0x60abf3eb36d0 -->
<g id="edge4" class="edge">
<title>node0x60abf3eb36a0&#45;&gt;node0x60abf3eb36d0</title>
<path fill="none" stroke="#203d98" d="M477.94,-608.29C465.83,-598.42 453.18,-588.11 440.88,-578.08"/>
<polygon fill="#203d98" stroke="#203d98" points="442.82,-575.15 432.86,-571.54 438.39,-580.57 442.82,-575.15"/>
</g>
<!-- node0x60abf3eb3820 -->
<g id="node12" class="node">
<title>node0x60abf3eb3820</title>
<path fill="#e07082" stroke="#203d98" d="M569,-456.5C569,-456.5 896,-456.5 896,-456.5 902,-456.5 908,-462.5 908,-468.5 908,-468.5 908,-559.5 908,-559.5 908,-565.5 902,-571.5 896,-571.5 896,-571.5 569,-571.5 569,-571.5 563,-571.5 557,-565.5 557,-559.5 557,-559.5 557,-468.5 557,-468.5 557,-462.5 563,-456.5 569,-456.5"/>
<text text-anchor="middle" x="732.5" y="-556.3" font-family="Times,serif" font-size="14.00">indx: 0x60abf3eb3820</text>
<polyline fill="none" stroke="#203d98" points="557,-548.5 908,-548.5 "/>
<text text-anchor="middle" x="732.5" y="-533.3" font-family="Times,serif" font-size="14.00">type: 1</text>
<polyline fill="none" stroke="#203d98" points="557,-525.5 908,-525.5 "/>
<text text-anchor="middle" x="732.5" y="-510.3" font-family="Times,serif" font-size="14.00">value: *</text>
<polyline fill="none" stroke="#203d98" points="557,-502.5 908,-502.5 "/>
<text text-anchor="middle" x="732.5" y="-487.3" font-family="Times,serif" font-size="14.00">parent: 0x60abf3eb36a0</text>
<polyline fill="none" stroke="#203d98" points="557,-479.5 908,-479.5 "/>
<text text-anchor="middle" x="642" y="-464.3" font-family="Times,serif" font-size="14.00">left: 0x60abf3eb3850</text>
<polyline fill="none" stroke="#203d98" points="727,-456.5 727,-479.5 "/>
<text text-anchor="middle" x="817.5" y="-464.3" font-family="Times,serif" font-size="14.00">right: 0x60abf3eb3880</text>
</g>
<!-- node0x60abf3eb36a0&#45;&gt;node0x60abf3eb3820 -->
<g id="edge11" class="edge">
<title>node0x60abf3eb36a0&#45;&gt;node0x60abf3eb3820</title>
<path fill="none" stroke="#203d98" d="M617.44,-608.29C629.61,-598.42 642.34,-588.11 654.7,-578.08"/>
<polygon fill="#203d98" stroke="#203d98" points="657.2,-580.56 662.77,-571.54 652.8,-575.12 657.2,-580.56"/>
</g>
<!-- node0x60abf3eb3700 -->
<g id="node6" class="node">
<title>node0x60abf3eb3700</title>
<path fill="#faaa82" stroke="#203d98" d="M12,-304.5C12,-304.5 181,-304.5 181,-304.5 187,-304.5 193,-310.5 193,-316.5 193,-316.5 193,-407.5 193,-407.5 193,-413.5 187,-419.5 181,-419.5 181,-419.5 12,-419.5 12,-419.5 6,-419.5 0,-413.5 0,-407.5 0,-407.5 0,-316.5 0,-316.5 0,-310.5 6,-304.5 12,-304.5"/>
<text text-anchor="middle" x="96.5" y="-404.3" font-family="Times,serif" font-size="14.00">indx: 0x60abf3eb3700</text>
<polyline fill="none" stroke="#203d98" points="0,-396.5 193,-396.5 "/>
<text text-anchor="middle" x="96.5" y="-381.3" font-family="Times,serif" font-size="14.00">type: 3</text>
<polyline fill="none" stroke="#203d98" points="0,-373.5 193,-373.5 "/>
<text text-anchor="middle" x="96.5" y="-358.3" font-family="Times,serif" font-size="14.00">value: &#45;30.25</text>
<polyline fill="none" stroke="#203d98" points="0,-350.5 193,-350.5 "/>
<text text-anchor="middle" x="96.5" y="-335.3" font-family="Times,serif" font-size="14.00">parent: 0x60abf3eb36d0</text>
<polyline fill="none" stroke="#203d98" points="0,-327.5 193,-327.5 "/>
<text text-anchor="middle" x="45.5" y="-312.3" font-family="Times,serif" font-size="14.00">left: (nil)</text>
<polyline fill="none" stroke="#203d98" points="91,-304.5 91,-327.5 "/>
<text text-anchor="middle" x="142" y="-312.3" font-family="Times,serif" font-size="14.00">right: (nil)</text>
</g>
<!-- node0x60abf3eb36d0&#45;&gt;node0x60abf3eb3700 -->
<g id="edge5" class="edge">
<title>node0x60abf3eb36d0&#45;&gt;node0x60abf3eb3700</title>
<path fill="none" stroke="#203d98" d="M262.56,-456.29C242.75,-445.16 221.92,-433.46 201.97,-422.25"/>
<polygon fill="#203d98" stroke="#203d98" points="203.6,-419.16 193.17,-417.31 200.17,-425.26 203.6,-419.16"/>
</g>
<!-- node0x60abf3eb3730 -->
<g id="node7" class="node">
<title>node0x60abf3eb3730</title>
<path fill="#e07082" stroke="#203d98" d="M223,-304.5C223,-304.5 546,-304.5 546,-304.5 552,-304.5 558,-310.5 558,-316.5 558,-316.5 558,-407.5 558,-407.5 558,-413.5 552,-419.5 546,-419.5 546,-419.5 223,-419.5 223,-419.5 217,-419.5 211,-413.5 211,-407.5 211,-407.5 211,-316.5 211,-316.5 211,-310.5 217,-304.5 223,-304.5"/>
<text text-anchor="middle" x="384.5" y="-404.3" font-family="Times,serif" font-size="14.00">indx: 0x60abf3eb3730</text>
<polyline fill="none" stroke="#203d98" points="211,-396.5 558,-396.5 "/>
<text text-anchor="middle" x="384.5" y="-381.3" font-family="Times,serif" font-size="14.00">type: 1</text>
<polyline fill="none" stroke="#203d98" points="211,-373.5 558,-373.5 "/>
<text text-anchor="middle" x="384.5" y="-358.3" font-family="Times,serif" font-size="14.00">value: sin</text>
<polyline fill="none" stroke="#203d98" points="211,-350.5 558,-350.5 "/>
<text text-anchor="middle" x="384.5" y="-335.3" font-family="Times,serif" font-size="14.00">parent: 0x60abf3eb36d0</text>
<polyline fill="none" stroke="#203d98" points="211,-327.5 558,-327.5 "/>
<text text-anchor="middle" x="296" y="-312.3" font-family="Times,serif" font-size="14.00">left: 0x60abf3eb3760</text>
<polyline fill="none" stroke="#203d98" points="381,-304.5 381,-327.5 "/>
<text text-anchor="middle" x="469.5" y="-312.3" font-family="Times,serif" font-size="14.00">right: 0x60abf3eb37f0</text>
</g>
<!-- node0x60abf3eb36d0&#45;&gt;node0x60abf3eb3730 -->
<g id="edge6" class="edge">
<title>node0x60abf3eb36d0&#45;&gt;node0x60abf3eb3730</title>
<path fill="none" stroke="#203d98" d="M371.44,-456.29C372.65,-447.61 373.92,-438.58 375.16,-429.71"/>
<polygon fill="#203d98" stroke="#203d98" points="378.63,-430.18 376.55,-419.79 371.7,-429.21 378.63,-430.18"/>
</g>
<!-- node0x60abf3eb3760 -->
<g id="node8" class="node">
<title>node0x60abf3eb3760</title>
<path fill="#e07082" stroke="#203d98" d="M136,-152.5C136,-152.5 461,-152.5 461,-152.5 467,-152.5 473,-158.5 473,-164.5 473,-164.5 473,-255.5 473,-255.5 473,-261.5 467,-267.5 461,-267.5 461,-267.5 136,-267.5 136,-267.5 130,-267.5 124,-261.5 124,-255.5 124,-255.5 124,-164.5 124,-164.5 124,-158.5 130,-152.5 136,-152.5"/>
<text text-anchor="middle" x="298.5" y="-252.3" font-family="Times,serif" font-size="14.00">indx: 0x60abf3eb3760</text>
<polyline fill="none" stroke="#203d98" points="124,-244.5 473,-244.5 "/>
<text text-anchor="middle" x="298.5" y="-229.3" font-family="Times,serif" font-size="14.00">type: 1</text>
<polyline fill="none" stroke="#203d98" points="124,-221.5 473,-221.5 "/>
<text text-anchor="middle" x="298.5" y="-206.3" font-family="Times,serif" font-size="14.00">value: *</text>
<polyline fill="none" stroke="#203d98" points="124,-198.5 473,-198.5 "/>
<text text-anchor="middle" x="298.5" y="-183.3" font-family="Times,serif" font-size="14.00">parent: 0x60abf3eb3730</text>
<polyline fill="none" stroke="#203d98" points="124,-175.5 473,-175.5 "/>
<text text-anchor="middle" x="209" y="-160.3" font-family="Times,serif" font-size="14.00">left: 0x60abf3eb3790</text>
<polyline fill="none" stroke="#203d98" points="294,-152.5 294,-175.5 "/>
<text text-anchor="middle" x="383.5" y="-160.3" font-family="Times,serif" font-size="14.00">right: 0x60abf3eb37c0</text>
</g>
<!-- node0x60abf3eb3730&#45;&gt;node0x60abf3eb3760 -->
<g id="edge7" class="edge">
<title>node0x60abf3eb3730&#45;&gt;node0x60abf3eb3760</title>
<path fill="none" stroke="#203d98" d="M351.99,-304.29C346.8,-295.24 341.39,-285.81 336.09,-276.57"/>
<polygon fill="#203d98" stroke="#203d98" points="339.07,-274.72 331.06,-267.79 333,-278.2 339.07,-274.72"/>
</g>
<!-- node0x60abf3eb37f0 -->
<g id="node11" class="node">
<title>node0x60abf3eb37f0</title>
<path fill="#faaa82" stroke="#203d98" d="M503,-152.5C503,-152.5 672,-152.5 672,-152.5 678,-152.5 684,-158.5 684,-164.5 684,-164.5 684,-255.5 684,-255.5 684,-261.5 678,-267.5 672,-267.5 672,-267.5 503,-267.5 503,-267.5 497,-267.5 491,-261.5 491,-255.5 491,-255.5 491,-164.5 491,-164.5 491,-158.5 497,-152.5 503,-152.5"/>
<text text-anchor="middle" x="587.5" y="-252.3" font-family="Times,serif" font-size="14.00">indx: 0x60abf3eb37f0</text>
<polyline fill="none" stroke="#203d98" points="491,-244.5 684,-244.5 "/>
<text text-anchor="middle" x="587.5" y="-229.3" font-family="Times,serif" font-size="14.00">type: 3</text>
<polyline fill="none" stroke="#203d98" points="491,-221.5 684,-221.5 "/>
<text text-anchor="middle" x="587.5" y="-206.3" font-family="Times,serif" font-size="14.00">value: 0.00</text>
<polyline fill="none" stroke="#203d98" points="491,-198.5 684,-198.5 "/>
<text text-anchor="middle" x="587.5" y="-183.3" font-family="Times,serif" font-size="14.00">parent: 0x60abf3eb3730</text>
<polyline fill="none" stroke="#203d98" points="491,-175.5 684,-175.5 "/>
<text text-anchor="middle" x="536.5" y="-160.3" font-family="Times,serif" font-size="14.00">left: (nil)</text>
<polyline fill="none" stroke="#203d98" points="582,-152.5 582,-175.5 "/>
<text text-anchor="middle" x="633" y="-160.3" font-family="Times,serif" font-size="14.00">right: (nil)</text>
</g>
<!-- node0x60abf3eb3730&#45;&gt;node0x60abf3eb37f0 -->
<g id="edge10" class="edge">
<title>node0x60abf3eb3730&#45;&gt;node0x60abf3eb37f0</title>
<path fill="none" stroke="#203d98" d="M461.25,-304.29C474.85,-294.24 489.1,-283.71 502.91,-273.51"/>
<polygon fill="#203d98" stroke="#203d98" points="505.02,-276.3 510.98,-267.54 500.86,-270.67 505.02,-276.3"/>
</g>
<!-- node0x60abf3eb3790 -->
<g id="node9" class="node">
<title>node0x60abf3eb3790</title>
<path fill="#faaa82" stroke="#203d98" d="M109,-0.5C109,-0.5 278,-0.5 278,-0.5 284,-0.5 290,-6.5 290,-12.5 290,-12.5 290,-103.5 290,-103.5 290,-109.5 284,-115.5 278,-115.5 278,-115.5 109,-115.5 109,-115.5 103,-115.5 97,-109.5 97,-103.5 97,-103.5 97,-12.5 97,-12.5 97,-6.5 103,-0.5 109,-0.5"/>
<text text-anchor="middle" x="193.5" y="-100.3" font-family="Times,serif" font-size="14.00">indx: 0x60abf3eb3790</text>
<polyline fill="none" stroke="#203d98" points="97,-92.5 290,-92.5 "/>
<text text-anchor="middle" x="193.5" y="-77.3" font-family="Times,serif" font-size="14.00">type: 3</text>
<polyline fill="none" stroke="#203d98" points="97,-69.5 290,-69.5 "/>
<text text-anchor="middle" x="193.5" y="-54.3" font-family="Times,serif" font-size="14.00">value: 5.50</text>
<polyline fill="none" stroke="#203d98" points="97,-46.5 290,-46.5 "/>
<text text-anchor="middle" x="193.5" y="-31.3" font-family="Times,serif" font-size="14.00">parent: 0x60abf3eb3760</text>
<polyline fill="none" stroke="#203d98" points="97,-23.5 290,-23.5 "/>
<text text-anchor="middle" x="142.5" y="-8.3" font-family="Times,serif" font-size="14.00">left: (nil)</text>
<polyline fill="none" stroke="#203d98" points="188,-0.5 188,-23.5 "/>
<text text-anchor="middle" x="239" y="-8.3" font-family="Times,serif" font-size="14.00">right: (nil)</text>
</g>
<!-- node0x60abf3eb3760&#45;&gt;node0x60abf3eb3790 -->
<g id="edge8" class="edge">
<title>node0x60abf3eb3760&#45;&gt;node0x60abf3eb3790</title>
<path fill="none" stroke="#203d98" d="M258.8,-152.29C252.34,-143.05 245.59,-133.42 239,-124"/>
<polygon fill="#203d98" stroke="#203d98" points="241.85,-121.97 233.25,-115.79 236.12,-125.99 241.85,-121.97"/>
</g>
<!-- node0x60abf3eb37c0 -->
<g id="node10" class="node">
<title>node0x60abf3eb37c0</title>
<path fill="#a24892" stroke="#203d98" d="M320,-0.5C320,-0.5 489,-0.5 489,-0.5 495,-0.5 501,-6.5 501,-12.5 501,-12.5 501,-103.5 501,-103.5 501,-109.5 495,-115.5 489,-115.5 489,-115.5 320,-115.5 320,-115.5 314,-115.5 308,-109.5 308,-103.5 308,-103.5 308,-12.5 308,-12.5 308,-6.5 314,-0.5 320,-0.5"/>
<text text-anchor="middle" x="404.5" y="-100.3" font-family="Times,serif" font-size="14.00">indx: 0x60abf3eb37c0</text>
<polyline fill="none" stroke="#203d98" points="308,-92.5 501,-92.5 "/>
<text text-anchor="middle" x="404.5" y="-77.3" font-family="Times,serif" font-size="14.00">type: 2</text>
<polyline fill="none" stroke="#203d98" points="308,-69.5 501,-69.5 "/>
<text text-anchor="middle" x="404.5" y="-54.3" font-family="Times,serif" font-size="14.00">value: x</text>
<polyline fill="none" stroke="#203d98" points="308,-46.5 501,-46.5 "/>
<text text-anchor="middle" x="404.5" y="-31.3" font-family="Times,serif" font-size="14.00">parent: 0x60abf3eb3760</text>
<polyline fill="none" stroke="#203d98" points="308,-23.5 501,-23.5 "/>
<text text-anchor="middle" x="353.5" y="-8.3" font-family="Times,serif" font-size="14.00">left: (nil)</text>
<polyline fill="none" stroke="#203d98" points="399,-0.5 399,-23.5 "/>
<text text-anchor="middle" x="450" y="-8.3" font-family="Times,serif" font-size="14.00">right: (nil)</text>
</g>
<!-- node0x60abf3eb3760&#45;&gt;node0x60abf3eb37c0 -->
<g id="edge9" class="edge">
<title>node0x60abf3eb3760&#45;&gt;node0x60abf3eb37c0</title>
<path fill="none" stroke="#203d98" d="M338.57,-152.29C345.1,-143.05 351.91,-133.42 358.57,-124"/>
<polygon fill="#203d98" stroke="#203d98" points="361.46,-125.98 364.37,-115.79 355.74,-121.94 361.46,-125.98"/>
</g>
<!-- node0x60abf3eb3850 -->
<g id="node13" class="node">
<title>node0x60abf3eb3850</title>
<path fill="#faaa82" stroke="#203d98" d="M628,-304.5C628,-304.5 797,-304.5 797,-304.5 803,-304.5 809,-310.5 809,-316.5 809,-316.5 809,-407.5 809,-407.5 809,-413.5 803,-419.5 797,-419.5 797,-419.5 628,-419.5 628,-419.5 622,-419.5 616,-413.5 616,-407.5 616,-407.5 616,-316.5 616,-316.5 616,-310.5 622,-304.5 628,-304.5"/>
<text text-anchor="middle" x="712.5" y="-404.3" font-family="Times,serif" font-size="14.00">indx: 0x60abf3eb3850</text>
<polyline fill="none" stroke="#203d98" points="616,-396.5 809,-396.5 "/>
<text text-anchor="middle" x="712.5" y="-381.3" font-family="Times,serif" font-size="14.00">type: 3</text>
<polyline fill="none" stroke="#203d98" points="616,-373.5 809,-373.5 "/>
<text text-anchor="middle" x="712.5" y="-358.3" font-family="Times,serif" font-size="14.00">value: 12.00</text>
<polyline fill="none" stroke="#203d98" points="616,-350.5 809,-350.5 "/>
<text text-anchor="middle" x="712.5" y="-335.3" font-family="Times,serif" font-size="14.00">parent: 0x60abf3eb3820</text>
<polyline fill="none" stroke="#203d98" points="616,-327.5 809,-327.5 "/>
<text text-anchor="middle" x="661.5" y="-312.3" font-family="Times,serif" font-size="14.00">left: (nil)</text>
<polyline fill="none" stroke="#203d98" points="707,-304.5 707,-327.5 "/>
<text text-anchor="middle" x="758" y="-312.3" font-family="Times,serif" font-size="14.00">right: (nil)</text>
</g>
<!-- node0x60abf3eb3820&#45;&gt;node0x60abf3eb3850 -->
<g id="edge12" class="edge">
<title>node0x60abf3eb3820&#45;&gt;node0x60abf3eb3850</title>
<path fill="none" stroke="#203d98" d="M724.94,-456.29C723.78,-447.61 722.58,-438.58 721.39,-429.71"/>
<polygon fill="#203d98" stroke="#203d98" points="724.86,-429.24 720.07,-419.79 717.92,-430.16 724.86,-429.24"/>
</g>
<!-- node0x60abf3eb3880 -->
<g id="node14" class="node">
<title>node0x60abf3eb3880</title>
<path fill="#e07082" stroke="#203d98" d="M839.5,-304.5C839.5,-304.5 1165.5,-304.5 1165.5,-304.5 1171.5,-304.5 1177.5,-310.5 1177.5,-316.5 1177.5,-316.5 1177.5,-407.5 1177.5,-407.5 1177.5,-413.5 1171.5,-419.5 1165.5,-419.5 1165.5,-419.5 839.5,-419.5 839.5,-419.5 833.5,-419.5 827.5,-413.5 827.5,-407.5 827.5,-407.5 827.5,-316.5 827.5,-316.5 827.5,-310.5 833.5,-304.5 839.5,-304.5"/>
<text text-anchor="middle" x="1002.5" y="-404.3" font-family="Times,serif" font-size="14.00">indx: 0x60abf3eb3880</text>
<polyline fill="none" stroke="#203d98" points="827.5,-396.5 1177.5,-396.5 "/>
<text text-anchor="middle" x="1002.5" y="-381.3" font-family="Times,serif" font-size="14.00">type: 1</text>
<polyline fill="none" stroke="#203d98" points="827.5,-373.5 1177.5,-373.5 "/>
<text text-anchor="middle" x="1002.5" y="-358.3" font-family="Times,serif" font-size="14.00">value: ^</text>
<polyline fill="none" stroke="#203d98" points="827.5,-350.5 1177.5,-350.5 "/>
<text text-anchor="middle" x="1002.5" y="-335.3" font-family="Times,serif" font-size="14.00">parent: 0x60abf3eb3820</text>
<polyline fill="none" stroke="#203d98" points="827.5,-327.5 1177.5,-327.5 "/>
<text text-anchor="middle" x="912.5" y="-312.3" font-family="Times,serif" font-size="14.00">left: 0x60abf3eb38b0</text>
<polyline fill="none" stroke="#203d98" points="997.5,-304.5 997.5,-327.5 "/>
<text text-anchor="middle" x="1087.5" y="-312.3" font-family="Times,serif" font-size="14.00">right: 0x60abf3eb38e0</text>
</g>
<!-- node0x60abf3eb3820&#45;&gt;node0x60abf3eb3880 -->
<g id="edge13" class="edge">
<title>node0x60abf3eb3820&#45;&gt;node0x60abf3eb3880</title>
<path fill="none" stroke="#203d98" d="M834.58,-456.29C853.27,-445.91 872.86,-435.02 891.79,-424.51"/>
<polygon fill="#203d98" stroke="#203d98" points="893.69,-427.46 900.73,-419.54 890.29,-421.34 893.69,-427.46"/>
</g>
<!-- node0x60abf3eb38b0 -->
<g id="node15" class="node">
<title>node0x60abf3eb38b0</title>
<path fill="#a24892" stroke="#203d98" d="M792,-152.5C792,-152.5 961,-152.5 961,-152.5 967,-152.5 973,-158.5 973,-164.5 973,-164.5 973,-255.5 973,-255.5 973,-261.5 967,-267.5 961,-267.5 961,-267.5 792,-267.5 792,-267.5 786,-267.5 780,-261.5 780,-255.5 780,-255.5 780,-164.5 780,-164.5 780,-158.5 786,-152.5 792,-152.5"/>
<text text-anchor="middle" x="876.5" y="-252.3" font-family="Times,serif" font-size="14.00">indx: 0x60abf3eb38b0</text>
<polyline fill="none" stroke="#203d98" points="780,-244.5 973,-244.5 "/>
<text text-anchor="middle" x="876.5" y="-229.3" font-family="Times,serif" font-size="14.00">type: 2</text>
<polyline fill="none" stroke="#203d98" points="780,-221.5 973,-221.5 "/>
<text text-anchor="middle" x="876.5" y="-206.3" font-family="Times,serif" font-size="14.00">value: x</text>
<polyline fill="none" stroke="#203d98" points="780,-198.5 973,-198.5 "/>
<text text-anchor="middle" x="876.5" y="-183.3" font-family="Times,serif" font-size="14.00">parent: 0x60abf3eb3880</text>
<polyline fill="none" stroke="#203d98" points="780,-175.5 973,-175.5 "/>
<text text-anchor="middle" x="825.5" y="-160.3" font-family="Times,serif" font-size="14.00">left: (nil)</text>
<polyline fill="none" stroke="#203d98" points="871,-152.5 871,-175.5 "/>
<text text-anchor="middle" x="922" y="-160.3" font-family="Times,serif" font-size="14.00">right: (nil)</text>
</g>
<!-- node0x60abf3eb3880&#45;&gt;node0x60abf3eb38b0 -->
<g id="edge14" class="edge">
<title>node0x60abf3eb3880&#45;&gt;node0x60abf3eb38b0</title>
<path fill="none" stroke="#203d98" d="M954.86,-304.29C947.02,-294.96 938.85,-285.22 930.86,-275.71"/>
<polygon fill="#203d98" stroke="#203d98" points="933.31,-273.19 924.2,-267.79 927.95,-277.7 933.31,-273.19"/>
</g>
<!-- node0x60abf3eb38e0 -->
<g id="node16" class="node">
<title>node0x60abf3eb38e0</title>
<path fill="#faaa82" stroke="#203d98" d="M1003,-152.5C1003,-152.5 1172,-152.5 1172,-152.5 1178,-152.5 1184,-158.5 1184,-164.5 1184,-164.5 1184,-255.5 1184,-255.5 1184,-261.5 1178,-267.5 1172,-267.5 1172,-267.5 1003,-267.5 1003,-267.5 997,-267.5 991,-261.5 991,-255.5 991,-255.5 991,-164.5 991,-164.5 991,-158.5 997,-152.5 1003,-152.5"/>
<text text-anchor="middle" x="1087.5" y="-252.3" font-family="Times,serif" font-size="14.00">indx: 0x60abf3eb38e0</text>
<polyline fill="none" stroke="#203d98" points="991,-244.5 1184,-244.5 "/>
<text text-anchor="middle" x="1087.5" y="-229.3" font-family="Times,serif" font-size="14.00">type: 3</text>
<polyline fill="none" stroke="#203d98" points="991,-221.5 1184,-221.5 "/>
<text text-anchor="middle" x="1087.5" y="-206.3" font-family="Times,serif" font-size="14.00">value: 2.00</text>
<polyline fill="none" stroke="#203d98" points="991,-198.5 1184,-198.5 "/>
<text text-anchor="middle" x="1087.5" y="-183.3" font-family="Times,serif" font-size="14.00">parent: 0x60abf3eb3880</text>
<polyline fill="none" stroke="#203d98" points="991,-175.5 1184,-175.5 "/>
<text text-anchor="middle" x="1036.5" y="-160.3" font-family="Times,serif" font-size="14.00">left: (nil)</text>
<polyline fill="none" stroke="#203d98" points="1082,-152.5 1082,-175.5 "/>
<text text-anchor="middle" x="1133" y="-160.3" font-family="Times,serif" font-size="14.00">right: (nil)</text>
</g>
<!-- node0x60abf3eb3880&#45;&gt;node0x60abf3eb38e0 -->
<g id="edge15" class="edge">
<title>node0x60abf3eb3880&#45;&gt;node0x60abf3eb38e0</title>
<path fill="none" stroke="#203d98" d="M1034.63,-304.29C1039.77,-295.24 1045.11,-285.81 1050.34,-276.57"/>
<polygon fill="#203d98" stroke="#203d98" points="1053.43,-278.21 1055.32,-267.79 1047.34,-274.76 1053.43,-278.21"/>
</g>
</g>
</svg>
