<?xml version="1.0" encoding="UTF-8" standalone="no"?>
<!DOCTYPE svg PUBLIC "-//W3C//DTD SVG 1.1//EN"
 "http://www.w3.org/Graphics/SVG/1.1/DTD/svg11.dtd">
<!-- Generated by graphviz version 2.43.0 (0)
 -->
<!-- Title: Tree Pages: 1 -->
<svg width="904pt" height="878pt"
 viewBox="0.00 0.00 904.00 878.00" xmlns="http://www.w3.org/2000/svg" xmlns:xlink="http://www.w3.org/1999/xlink">
<g id="graph0" class="graph" transform="scale(1 1) rotate(0) translate(4 874)">
<title>Tree</title>
<polygon fill="#ffe7a5" stroke="transparent" points="-4,4 -4,-874 900,-874 900,4 -4,4"/>
<!-- node0x5e3adc6bc8f0 -->
<g id="node1" class="node">
<title>node0x5e3adc6bc8f0</title>
<path fill="#e07082" stroke="#203d98" d="M371,-833.5C371,-833.5 401,-833.5 401,-833.5 407,-833.5 413,-839.5 413,-845.5 413,-845.5 413,-857.5 413,-857.5 413,-863.5 407,-869.5 401,-869.5 401,-869.5 371,-869.5 371,-869.5 365,-869.5 359,-863.5 359,-857.5 359,-857.5 359,-845.5 359,-845.5 359,-839.5 365,-833.5 371,-833.5"/>
<text text-anchor="middle" x="386" y="-847.8" font-family="Times,serif" font-size="14.00">/</text>
</g>
<!-- node0x5e3adc6bd160 -->
<g id="node2" class="node">
<title>node0x5e3adc6bd160</title>
<path fill="#e07082" stroke="#203d98" d="M304,-721C304,-721 334,-721 334,-721 340,-721 346,-727 346,-733 346,-733 346,-745 346,-745 346,-751 340,-757 334,-757 334,-757 304,-757 304,-757 298,-757 292,-751 292,-745 292,-745 292,-733 292,-733 292,-727 298,-721 304,-721"/>
<text text-anchor="middle" x="319" y="-735.3" font-family="Times,serif" font-size="14.00">*</text>
</g>
<!-- node0x5e3adc6bc8f0&#45;&gt;node0x5e3adc6bd160 -->
<g id="edge1" class="edge">
<title>node0x5e3adc6bc8f0&#45;&gt;node0x5e3adc6bd160</title>
<path fill="none" stroke="#203d98" d="M375.53,-833.23C364.57,-815.15 347.22,-786.55 334.63,-765.79"/>
<polygon fill="#203d98" stroke="#203d98" points="337.57,-763.88 329.4,-757.14 331.59,-767.51 337.57,-763.88"/>
</g>
<!-- node0x5e3adc6bd460 -->
<g id="node17" class="node">
<title>node0x5e3adc6bd460</title>
<path fill="#faaa82" stroke="#203d98" d="M376.5,-681.5C376.5,-681.5 531.5,-681.5 531.5,-681.5 537.5,-681.5 543.5,-687.5 543.5,-693.5 543.5,-693.5 543.5,-784.5 543.5,-784.5 543.5,-790.5 537.5,-796.5 531.5,-796.5 531.5,-796.5 376.5,-796.5 376.5,-796.5 370.5,-796.5 364.5,-790.5 364.5,-784.5 364.5,-784.5 364.5,-693.5 364.5,-693.5 364.5,-687.5 370.5,-681.5 376.5,-681.5"/>
<text text-anchor="middle" x="454" y="-781.3" font-family="Times,serif" font-size="14.00">indx: 0x5e3adc6bd460</text>
<polyline fill="none" stroke="#203d98" points="364.5,-773.5 543.5,-773.5 "/>
<text text-anchor="middle" x="454" y="-758.3" font-family="Times,serif" font-size="14.00">type: 3</text>
<polyline fill="none" stroke="#203d98" points="364.5,-750.5 543.5,-750.5 "/>
<text text-anchor="middle" x="454" y="-735.3" font-family="Times,serif" font-size="14.00">value: 1296.00</text>
<polyline fill="none" stroke="#203d98" points="364.5,-727.5 543.5,-727.5 "/>
<text text-anchor="middle" x="454" y="-712.3" font-family="Times,serif" font-size="14.00">parent: (nil)</text>
<polyline fill="none" stroke="#203d98" points="364.5,-704.5 543.5,-704.5 "/>
<text text-anchor="middle" x="406.5" y="-689.3" font-family="Times,serif" font-size="14.00">left: (nil)</text>
<polyline fill="none" stroke="#203d98" points="448.5,-681.5 448.5,-704.5 "/>
<text text-anchor="middle" x="496" y="-689.3" font-family="Times,serif" font-size="14.00">right: (nil)</text>
</g>
<!-- node0x5e3adc6bc8f0&#45;&gt;node0x5e3adc6bd460 -->
<g id="edge16" class="edge">
<title>node0x5e3adc6bc8f0&#45;&gt;node0x5e3adc6bd460</title>
<path fill="none" stroke="#203d98" d="M396.62,-833.23C401.41,-825.46 407.39,-815.73 413.68,-805.53"/>
<polygon fill="#203d98" stroke="#203d98" points="416.74,-807.22 419,-796.87 410.78,-803.55 416.74,-807.22"/>
</g>
<!-- node0x5e3adc6bd130 -->
<g id="node3" class="node">
<title>node0x5e3adc6bd130</title>
<path fill="#faaa82" stroke="#203d98" d="M162.5,-529.5C162.5,-529.5 333.5,-529.5 333.5,-529.5 339.5,-529.5 345.5,-535.5 345.5,-541.5 345.5,-541.5 345.5,-632.5 345.5,-632.5 345.5,-638.5 339.5,-644.5 333.5,-644.5 333.5,-644.5 162.5,-644.5 162.5,-644.5 156.5,-644.5 150.5,-638.5 150.5,-632.5 150.5,-632.5 150.5,-541.5 150.5,-541.5 150.5,-535.5 156.5,-529.5 162.5,-529.5"/>
<text text-anchor="middle" x="248" y="-629.3" font-family="Times,serif" font-size="14.00">indx: 0x5e3adc6bd130</text>
<polyline fill="none" stroke="#203d98" points="150.5,-621.5 345.5,-621.5 "/>
<text text-anchor="middle" x="248" y="-606.3" font-family="Times,serif" font-size="14.00">type: 3</text>
<polyline fill="none" stroke="#203d98" points="150.5,-598.5 345.5,-598.5 "/>
<text text-anchor="middle" x="248" y="-583.3" font-family="Times,serif" font-size="14.00">value: 216.00</text>
<polyline fill="none" stroke="#203d98" points="150.5,-575.5 345.5,-575.5 "/>
<text text-anchor="middle" x="248" y="-560.3" font-family="Times,serif" font-size="14.00">parent: 0x5e3adc6bd160</text>
<polyline fill="none" stroke="#203d98" points="150.5,-552.5 345.5,-552.5 "/>
<text text-anchor="middle" x="196.5" y="-537.3" font-family="Times,serif" font-size="14.00">left: (nil)</text>
<polyline fill="none" stroke="#203d98" points="242.5,-529.5 242.5,-552.5 "/>
<text text-anchor="middle" x="294" y="-537.3" font-family="Times,serif" font-size="14.00">right: (nil)</text>
</g>
<!-- node0x5e3adc6bd160&#45;&gt;node0x5e3adc6bd130 -->
<g id="edge2" class="edge">
<title>node0x5e3adc6bd160&#45;&gt;node0x5e3adc6bd130</title>
<path fill="none" stroke="#203d98" d="M310.86,-720.79C303.07,-704.35 290.84,-678.5 279.22,-653.96"/>
<polygon fill="#203d98" stroke="#203d98" points="282.25,-652.18 274.81,-644.64 275.92,-655.17 282.25,-652.18"/>
</g>
<!-- node0x5e3adc6bcec0 -->
<g id="node4" class="node">
<title>node0x5e3adc6bcec0</title>
<path fill="#e07082" stroke="#203d98" d="M376,-569C376,-569 406,-569 406,-569 412,-569 418,-575 418,-581 418,-581 418,-593 418,-593 418,-599 412,-605 406,-605 406,-605 376,-605 376,-605 370,-605 364,-599 364,-593 364,-593 364,-581 364,-581 364,-575 370,-569 376,-569"/>
<text text-anchor="middle" x="391" y="-583.3" font-family="Times,serif" font-size="14.00">+</text>
</g>
<!-- node0x5e3adc6bd160&#45;&gt;node0x5e3adc6bcec0 -->
<g id="edge3" class="edge">
<title>node0x5e3adc6bd160&#45;&gt;node0x5e3adc6bcec0</title>
<path fill="none" stroke="#203d98" d="M327.26,-720.79C339.79,-694.68 363.7,-644.87 378.41,-614.23"/>
<polygon fill="#203d98" stroke="#203d98" points="381.66,-615.54 382.84,-605.01 375.35,-612.51 381.66,-615.54"/>
</g>
<!-- node0x5e3adc6bcef0 -->
<g id="node5" class="node">
<title>node0x5e3adc6bcef0</title>
<path fill="#e07082" stroke="#203d98" d="M305,-456.5C305,-456.5 335,-456.5 335,-456.5 341,-456.5 347,-462.5 347,-468.5 347,-468.5 347,-480.5 347,-480.5 347,-486.5 341,-492.5 335,-492.5 335,-492.5 305,-492.5 305,-492.5 299,-492.5 293,-486.5 293,-480.5 293,-480.5 293,-468.5 293,-468.5 293,-462.5 299,-456.5 305,-456.5"/>
<text text-anchor="middle" x="320" y="-470.8" font-family="Times,serif" font-size="14.00">*</text>
</g>
<!-- node0x5e3adc6bcec0&#45;&gt;node0x5e3adc6bcef0 -->
<g id="edge4" class="edge">
<title>node0x5e3adc6bcec0&#45;&gt;node0x5e3adc6bcef0</title>
<path fill="none" stroke="#203d98" d="M379.91,-568.73C368.29,-550.65 349.91,-522.05 336.57,-501.29"/>
<polygon fill="#203d98" stroke="#203d98" points="339.37,-499.17 331.02,-492.64 333.48,-502.95 339.37,-499.17"/>
</g>
<!-- node0x5e3adc6bd040 -->
<g id="node12" class="node">
<title>node0x5e3adc6bd040</title>
<path fill="#e07082" stroke="#203d98" d="M448,-456.5C448,-456.5 478,-456.5 478,-456.5 484,-456.5 490,-462.5 490,-468.5 490,-468.5 490,-480.5 490,-480.5 490,-486.5 484,-492.5 478,-492.5 478,-492.5 448,-492.5 448,-492.5 442,-492.5 436,-486.5 436,-480.5 436,-480.5 436,-468.5 436,-468.5 436,-462.5 442,-456.5 448,-456.5"/>
<text text-anchor="middle" x="463" y="-470.8" font-family="Times,serif" font-size="14.00">*</text>
</g>
<!-- node0x5e3adc6bcec0&#45;&gt;node0x5e3adc6bd040 -->
<g id="edge11" class="edge">
<title>node0x5e3adc6bcec0&#45;&gt;node0x5e3adc6bd040</title>
<path fill="none" stroke="#203d98" d="M402.25,-568.73C414.03,-550.65 432.67,-522.05 446.2,-501.29"/>
<polygon fill="#203d98" stroke="#203d98" points="449.3,-502.93 451.83,-492.64 443.44,-499.11 449.3,-502.93"/>
</g>
<!-- node0x5e3adc6bcf20 -->
<g id="node6" class="node">
<title>node0x5e3adc6bcf20</title>
<path fill="#faaa82" stroke="#203d98" d="M97.5,-304.5C97.5,-304.5 262.5,-304.5 262.5,-304.5 268.5,-304.5 274.5,-310.5 274.5,-316.5 274.5,-316.5 274.5,-407.5 274.5,-407.5 274.5,-413.5 268.5,-419.5 262.5,-419.5 262.5,-419.5 97.5,-419.5 97.5,-419.5 91.5,-419.5 85.5,-413.5 85.5,-407.5 85.5,-407.5 85.5,-316.5 85.5,-316.5 85.5,-310.5 91.5,-304.5 97.5,-304.5"/>
<text text-anchor="middle" x="180" y="-404.3" font-family="Times,serif" font-size="14.00">indx: 0x5e3adc6bcf20</text>
<polyline fill="none" stroke="#203d98" points="85.5,-396.5 274.5,-396.5 "/>
<text text-anchor="middle" x="180" y="-381.3" font-family="Times,serif" font-size="14.00">type: 3</text>
<polyline fill="none" stroke="#203d98" points="85.5,-373.5 274.5,-373.5 "/>
<text text-anchor="middle" x="180" y="-358.3" font-family="Times,serif" font-size="14.00">value: &#45;25.00</text>
<polyline fill="none" stroke="#203d98" points="85.5,-350.5 274.5,-350.5 "/>
<text text-anchor="middle" x="180" y="-335.3" font-family="Times,serif" font-size="14.00">parent: 0x5e3adc6bcef0</text>
<polyline fill="none" stroke="#203d98" points="85.5,-327.5 274.5,-327.5 "/>
<text text-anchor="middle" x="130" y="-312.3" font-family="Times,serif" font-size="14.00">left: (nil)</text>
<polyline fill="none" stroke="#203d98" points="174.5,-304.5 174.5,-327.5 "/>
<text text-anchor="middle" x="224.5" y="-312.3" font-family="Times,serif" font-size="14.00">right: (nil)</text>
</g>
<!-- node0x5e3adc6bcef0&#45;&gt;node0x5e3adc6bcf20 -->
<g id="edge5" class="edge">
<title>node0x5e3adc6bcef0&#45;&gt;node0x5e3adc6bcf20</title>
<path fill="none" stroke="#203d98" d="M298.43,-456.48C287.69,-448 273.96,-437.16 259.68,-425.89"/>
<polygon fill="#203d98" stroke="#203d98" points="261.73,-423.05 251.71,-419.6 257.39,-428.54 261.73,-423.05"/>
</g>
<!-- node0x5e3adc6bcf50 -->
<g id="node7" class="node">
<title>node0x5e3adc6bcf50</title>
<path fill="#e07082" stroke="#203d98" d="M305,-344C305,-344 335,-344 335,-344 341,-344 347,-350 347,-356 347,-356 347,-368 347,-368 347,-374 341,-380 335,-380 335,-380 305,-380 305,-380 299,-380 293,-374 293,-368 293,-368 293,-356 293,-356 293,-350 299,-344 305,-344"/>
<text text-anchor="middle" x="320" y="-358.3" font-family="Times,serif" font-size="14.00">sin</text>
</g>
<!-- node0x5e3adc6bcef0&#45;&gt;node0x5e3adc6bcf50 -->
<g id="edge6" class="edge">
<title>node0x5e3adc6bcef0&#45;&gt;node0x5e3adc6bcf50</title>
<path fill="none" stroke="#203d98" d="M320,-456.23C320,-438.56 320,-410.82 320,-390.19"/>
<polygon fill="#203d98" stroke="#203d98" points="323.5,-390.14 320,-380.14 316.5,-390.14 323.5,-390.14"/>
</g>
<!-- node0x5e3adc6bcf80 -->
<g id="node8" class="node">
<title>node0x5e3adc6bcf80</title>
<path fill="#e07082" stroke="#203d98" d="M184,-192C184,-192 214,-192 214,-192 220,-192 226,-198 226,-204 226,-204 226,-216 226,-216 226,-222 220,-228 214,-228 214,-228 184,-228 184,-228 178,-228 172,-222 172,-216 172,-216 172,-204 172,-204 172,-198 178,-192 184,-192"/>
<text text-anchor="middle" x="199" y="-206.3" font-family="Times,serif" font-size="14.00">*</text>
</g>
<!-- node0x5e3adc6bcf50&#45;&gt;node0x5e3adc6bcf80 -->
<g id="edge7" class="edge">
<title>node0x5e3adc6bcf50&#45;&gt;node0x5e3adc6bcf80</title>
<path fill="none" stroke="#203d98" d="M311.04,-343.93C304.29,-331.98 294.28,-316.07 283,-304 264.79,-284.52 253.09,-287.6 235,-268 226.49,-258.78 218.8,-247.29 212.73,-237.04"/>
<polygon fill="#203d98" stroke="#203d98" points="215.62,-235.05 207.63,-228.09 209.53,-238.51 215.62,-235.05"/>
</g>
<!-- node0x5e3adc6bd010 -->
<g id="node11" class="node">
<title>node0x5e3adc6bd010</title>
<path fill="#faaa82" stroke="#203d98" d="M256,-152.5C256,-152.5 422,-152.5 422,-152.5 428,-152.5 434,-158.5 434,-164.5 434,-164.5 434,-255.5 434,-255.5 434,-261.5 428,-267.5 422,-267.5 422,-267.5 256,-267.5 256,-267.5 250,-267.5 244,-261.5 244,-255.5 244,-255.5 244,-164.5 244,-164.5 244,-158.5 250,-152.5 256,-152.5"/>
<text text-anchor="middle" x="339" y="-252.3" font-family="Times,serif" font-size="14.00">indx: 0x5e3adc6bd010</text>
<polyline fill="none" stroke="#203d98" points="244,-244.5 434,-244.5 "/>
<text text-anchor="middle" x="339" y="-229.3" font-family="Times,serif" font-size="14.00">type: 3</text>
<polyline fill="none" stroke="#203d98" points="244,-221.5 434,-221.5 "/>
<text text-anchor="middle" x="339" y="-206.3" font-family="Times,serif" font-size="14.00">value: 0.00</text>
<polyline fill="none" stroke="#203d98" points="244,-198.5 434,-198.5 "/>
<text text-anchor="middle" x="339" y="-183.3" font-family="Times,serif" font-size="14.00">parent: 0x5e3adc6bcf50</text>
<polyline fill="none" stroke="#203d98" points="244,-175.5 434,-175.5 "/>
<text text-anchor="middle" x="288.5" y="-160.3" font-family="Times,serif" font-size="14.00">left: (nil)</text>
<polyline fill="none" stroke="#203d98" points="333,-152.5 333,-175.5 "/>
<text text-anchor="middle" x="383.5" y="-160.3" font-family="Times,serif" font-size="14.00">right: (nil)</text>
</g>
<!-- node0x5e3adc6bcf50&#45;&gt;node0x5e3adc6bd010 -->
<g id="edge10" class="edge">
<title>node0x5e3adc6bcf50&#45;&gt;node0x5e3adc6bd010</title>
<path fill="none" stroke="#203d98" d="M322.18,-343.79C324.24,-327.49 327.48,-301.95 330.56,-277.61"/>
<polygon fill="#203d98" stroke="#203d98" points="334.04,-278 331.83,-267.64 327.1,-277.12 334.04,-278"/>
</g>
<!-- node0x5e3adc6bcfb0 -->
<g id="node9" class="node">
<title>node0x5e3adc6bcfb0</title>
<path fill="#faaa82" stroke="#203d98" d="M12,-0.5C12,-0.5 178,-0.5 178,-0.5 184,-0.5 190,-6.5 190,-12.5 190,-12.5 190,-103.5 190,-103.5 190,-109.5 184,-115.5 178,-115.5 178,-115.5 12,-115.5 12,-115.5 6,-115.5 0,-109.5 0,-103.5 0,-103.5 0,-12.5 0,-12.5 0,-6.5 6,-0.5 12,-0.5"/>
<text text-anchor="middle" x="95" y="-100.3" font-family="Times,serif" font-size="14.00">indx: 0x5e3adc6bcfb0</text>
<polyline fill="none" stroke="#203d98" points="0,-92.5 190,-92.5 "/>
<text text-anchor="middle" x="95" y="-77.3" font-family="Times,serif" font-size="14.00">type: 3</text>
<polyline fill="none" stroke="#203d98" points="0,-69.5 190,-69.5 "/>
<text text-anchor="middle" x="95" y="-54.3" font-family="Times,serif" font-size="14.00">value: 5.00</text>
<polyline fill="none" stroke="#203d98" points="0,-46.5 190,-46.5 "/>
<text text-anchor="middle" x="95" y="-31.3" font-family="Times,serif" font-size="14.00">parent: 0x5e3adc6bcf80</text>
<polyline fill="none" stroke="#203d98" points="0,-23.5 190,-23.5 "/>
<text text-anchor="middle" x="44.5" y="-8.3" font-family="Times,serif" font-size="14.00">left: (nil)</text>
<polyline fill="none" stroke="#203d98" points="89,-0.5 89,-23.5 "/>
<text text-anchor="middle" x="139.5" y="-8.3" font-family="Times,serif" font-size="14.00">right: (nil)</text>
</g>
<!-- node0x5e3adc6bcf80&#45;&gt;node0x5e3adc6bcfb0 -->
<g id="edge8" class="edge">
<title>node0x5e3adc6bcf80&#45;&gt;node0x5e3adc6bcfb0</title>
<path fill="none" stroke="#203d98" d="M187.07,-191.79C175.52,-175.13 157.27,-148.81 140.06,-123.98"/>
<polygon fill="#203d98" stroke="#203d98" points="142.84,-121.86 134.27,-115.64 137.09,-125.85 142.84,-121.86"/>
</g>
<!-- node0x5e3adc6bcfe0 -->
<g id="node10" class="node">
<title>node0x5e3adc6bcfe0</title>
<path fill="#a24892" stroke="#203d98" d="M220,-0.5C220,-0.5 386,-0.5 386,-0.5 392,-0.5 398,-6.5 398,-12.5 398,-12.5 398,-103.5 398,-103.5 398,-109.5 392,-115.5 386,-115.5 386,-115.5 220,-115.5 220,-115.5 214,-115.5 208,-109.5 208,-103.5 208,-103.5 208,-12.5 208,-12.5 208,-6.5 214,-0.5 220,-0.5"/>
<text text-anchor="middle" x="303" y="-100.3" font-family="Times,serif" font-size="14.00">indx: 0x5e3adc6bcfe0</text>
<polyline fill="none" stroke="#203d98" points="208,-92.5 398,-92.5 "/>
<text text-anchor="middle" x="303" y="-77.3" font-family="Times,serif" font-size="14.00">type: 2</text>
<polyline fill="none" stroke="#203d98" points="208,-69.5 398,-69.5 "/>
<text text-anchor="middle" x="303" y="-54.3" font-family="Times,serif" font-size="14.00">value: x</text>
<polyline fill="none" stroke="#203d98" points="208,-46.5 398,-46.5 "/>
<text text-anchor="middle" x="303" y="-31.3" font-family="Times,serif" font-size="14.00">parent: 0x5e3adc6bcf80</text>
<polyline fill="none" stroke="#203d98" points="208,-23.5 398,-23.5 "/>
<text text-anchor="middle" x="252.5" y="-8.3" font-family="Times,serif" font-size="14.00">left: (nil)</text>
<polyline fill="none" stroke="#203d98" points="297,-0.5 297,-23.5 "/>
<text text-anchor="middle" x="347.5" y="-8.3" font-family="Times,serif" font-size="14.00">right: (nil)</text>
</g>
<!-- node0x5e3adc6bcf80&#45;&gt;node0x5e3adc6bcfe0 -->
<g id="edge9" class="edge">
<title>node0x5e3adc6bcf80&#45;&gt;node0x5e3adc6bcfe0</title>
<path fill="none" stroke="#203d98" d="M209.41,-191.84C216.45,-180.43 226.05,-165.16 235,-152 241.26,-142.79 248.02,-133.19 254.76,-123.8"/>
<polygon fill="#203d98" stroke="#203d98" points="257.65,-125.77 260.66,-115.61 251.97,-121.68 257.65,-125.77"/>
</g>
<!-- node0x5e3adc6bd070 -->
<g id="node13" class="node">
<title>node0x5e3adc6bd070</title>
<path fill="#faaa82" stroke="#203d98" d="M377.5,-304.5C377.5,-304.5 548.5,-304.5 548.5,-304.5 554.5,-304.5 560.5,-310.5 560.5,-316.5 560.5,-316.5 560.5,-407.5 560.5,-407.5 560.5,-413.5 554.5,-419.5 548.5,-419.5 548.5,-419.5 377.5,-419.5 377.5,-419.5 371.5,-419.5 365.5,-413.5 365.5,-407.5 365.5,-407.5 365.5,-316.5 365.5,-316.5 365.5,-310.5 371.5,-304.5 377.5,-304.5"/>
<text text-anchor="middle" x="463" y="-404.3" font-family="Times,serif" font-size="14.00">indx: 0x5e3adc6bd070</text>
<polyline fill="none" stroke="#203d98" points="365.5,-396.5 560.5,-396.5 "/>
<text text-anchor="middle" x="463" y="-381.3" font-family="Times,serif" font-size="14.00">type: 3</text>
<polyline fill="none" stroke="#203d98" points="365.5,-373.5 560.5,-373.5 "/>
<text text-anchor="middle" x="463" y="-358.3" font-family="Times,serif" font-size="14.00">value: 12.00</text>
<polyline fill="none" stroke="#203d98" points="365.5,-350.5 560.5,-350.5 "/>
<text text-anchor="middle" x="463" y="-335.3" font-family="Times,serif" font-size="14.00">parent: 0x5e3adc6bd040</text>
<polyline fill="none" stroke="#203d98" points="365.5,-327.5 560.5,-327.5 "/>
<text text-anchor="middle" x="411.5" y="-312.3" font-family="Times,serif" font-size="14.00">left: (nil)</text>
<polyline fill="none" stroke="#203d98" points="457.5,-304.5 457.5,-327.5 "/>
<text text-anchor="middle" x="509" y="-312.3" font-family="Times,serif" font-size="14.00">right: (nil)</text>
</g>
<!-- node0x5e3adc6bd040&#45;&gt;node0x5e3adc6bd070 -->
<g id="edge12" class="edge">
<title>node0x5e3adc6bd040&#45;&gt;node0x5e3adc6bd070</title>
<path fill="none" stroke="#203d98" d="M463,-456.23C463,-448.85 463,-439.7 463,-430.05"/>
<polygon fill="#203d98" stroke="#203d98" points="466.5,-429.87 463,-419.87 459.5,-429.87 466.5,-429.87"/>
</g>
<!-- node0x5e3adc6bd0a0 -->
<g id="node14" class="node">
<title>node0x5e3adc6bd0a0</title>
<path fill="#e07082" stroke="#203d98" d="M591,-344C591,-344 621,-344 621,-344 627,-344 633,-350 633,-356 633,-356 633,-368 633,-368 633,-374 627,-380 621,-380 621,-380 591,-380 591,-380 585,-380 579,-374 579,-368 579,-368 579,-356 579,-356 579,-350 585,-344 591,-344"/>
<text text-anchor="middle" x="606" y="-358.3" font-family="Times,serif" font-size="14.00">^</text>
</g>
<!-- node0x5e3adc6bd040&#45;&gt;node0x5e3adc6bd0a0 -->
<g id="edge13" class="edge">
<title>node0x5e3adc6bd040&#45;&gt;node0x5e3adc6bd0a0</title>
<path fill="none" stroke="#203d98" d="M490.18,-464.37C513.11,-455.66 545.83,-440.79 569,-420 578.64,-411.35 586.82,-399.63 593.02,-389.07"/>
<polygon fill="#203d98" stroke="#203d98" points="596.15,-390.63 597.94,-380.19 590.03,-387.24 596.15,-390.63"/>
</g>
<!-- node0x5e3adc6bd0d0 -->
<g id="node15" class="node">
<title>node0x5e3adc6bd0d0</title>
<path fill="#a24892" stroke="#203d98" d="M502,-152.5C502,-152.5 672,-152.5 672,-152.5 678,-152.5 684,-158.5 684,-164.5 684,-164.5 684,-255.5 684,-255.5 684,-261.5 678,-267.5 672,-267.5 672,-267.5 502,-267.5 502,-267.5 496,-267.5 490,-261.5 490,-255.5 490,-255.5 490,-164.5 490,-164.5 490,-158.5 496,-152.5 502,-152.5"/>
<text text-anchor="middle" x="587" y="-252.3" font-family="Times,serif" font-size="14.00">indx: 0x5e3adc6bd0d0</text>
<polyline fill="none" stroke="#203d98" points="490,-244.5 684,-244.5 "/>
<text text-anchor="middle" x="587" y="-229.3" font-family="Times,serif" font-size="14.00">type: 2</text>
<polyline fill="none" stroke="#203d98" points="490,-221.5 684,-221.5 "/>
<text text-anchor="middle" x="587" y="-206.3" font-family="Times,serif" font-size="14.00">value: x</text>
<polyline fill="none" stroke="#203d98" points="490,-198.5 684,-198.5 "/>
<text text-anchor="middle" x="587" y="-183.3" font-family="Times,serif" font-size="14.00">parent: 0x5e3adc6bd0a0</text>
<polyline fill="none" stroke="#203d98" points="490,-175.5 684,-175.5 "/>
<text text-anchor="middle" x="535.5" y="-160.3" font-family="Times,serif" font-size="14.00">left: (nil)</text>
<polyline fill="none" stroke="#203d98" points="581,-152.5 581,-175.5 "/>
<text text-anchor="middle" x="632.5" y="-160.3" font-family="Times,serif" font-size="14.00">right: (nil)</text>
</g>
<!-- node0x5e3adc6bd0a0&#45;&gt;node0x5e3adc6bd0d0 -->
<g id="edge14" class="edge">
<title>node0x5e3adc6bd0a0&#45;&gt;node0x5e3adc6bd0d0</title>
<path fill="none" stroke="#203d98" d="M603.82,-343.79C601.76,-327.49 598.52,-301.95 595.44,-277.61"/>
<polygon fill="#203d98" stroke="#203d98" points="598.9,-277.12 594.17,-267.64 591.96,-278 598.9,-277.12"/>
</g>
<!-- node0x5e3adc6bd100 -->
<g id="node16" class="node">
<title>node0x5e3adc6bd100</title>
<path fill="#faaa82" stroke="#203d98" d="M714,-152.5C714,-152.5 884,-152.5 884,-152.5 890,-152.5 896,-158.5 896,-164.5 896,-164.5 896,-255.5 896,-255.5 896,-261.5 890,-267.5 884,-267.5 884,-267.5 714,-267.5 714,-267.5 708,-267.5 702,-261.5 702,-255.5 702,-255.5 702,-164.5 702,-164.5 702,-158.5 708,-152.5 714,-152.5"/>
<text text-anchor="middle" x="799" y="-252.3" font-family="Times,serif" font-size="14.00">indx: 0x5e3adc6bd100</text>
<polyline fill="none" stroke="#203d98" points="702,-244.5 896,-244.5 "/>
<text text-anchor="middle" x="799" y="-229.3" font-family="Times,serif" font-size="14.00">type: 3</text>
<polyline fill="none" stroke="#203d98" points="702,-221.5 896,-221.5 "/>
<text text-anchor="middle" x="799" y="-206.3" font-family="Times,serif" font-size="14.00">value: 2.00</text>
<polyline fill="none" stroke="#203d98" points="702,-198.5 896,-198.5 "/>
<text text-anchor="middle" x="799" y="-183.3" font-family="Times,serif" font-size="14.00">parent: 0x5e3adc6bd0a0</text>
<polyline fill="none" stroke="#203d98" points="702,-175.5 896,-175.5 "/>
<text text-anchor="middle" x="747.5" y="-160.3" font-family="Times,serif" font-size="14.00">left: (nil)</text>
<polyline fill="none" stroke="#203d98" points="793,-152.5 793,-175.5 "/>
<text text-anchor="middle" x="844.5" y="-160.3" font-family="Times,serif" font-size="14.00">right: (nil)</text>
</g>
<!-- node0x5e3adc6bd0a0&#45;&gt;node0x5e3adc6bd100 -->
<g id="edge15" class="edge">
<title>node0x5e3adc6bd0a0&#45;&gt;node0x5e3adc6bd100</title>
<path fill="none" stroke="#203d98" d="M628.14,-343.79C650.14,-326.7 685.22,-299.43 717.88,-274.05"/>
<polygon fill="#203d98" stroke="#203d98" points="720.38,-276.54 726.13,-267.64 716.08,-271.01 720.38,-276.54"/>
</g>
</g>
</svg>
