<?xml version="1.0" encoding="UTF-8" standalone="no"?>
<!DOCTYPE svg PUBLIC "-//W3C//DTD SVG 1.1//EN"
 "http://www.w3.org/Graphics/SVG/1.1/DTD/svg11.dtd">
<!-- Generated by graphviz version 2.43.0 (0)
 -->
<!-- Title: Tree Pages: 1 -->
<svg width="188pt" height="124pt"
 viewBox="0.00 0.00 188.00 124.00" xmlns="http://www.w3.org/2000/svg" xmlns:xlink="http://www.w3.org/1999/xlink">
<g id="graph0" class="graph" transform="scale(1 1) rotate(0) translate(4 120)">
<title>Tree</title>
<polygon fill="#ffe7a5" stroke="transparent" points="-4,4 -4,-120 184,-120 184,4 -4,4"/>
<!-- node0x579b28d6a0e0 -->
<g id="node1" class="node">
<title>node0x579b28d6a0e0</title>
<path fill="#faaa82" stroke="#203d98" d="M12,-0.5C12,-0.5 168,-0.5 168,-0.5 174,-0.5 180,-6.5 180,-12.5 180,-12.5 180,-103.5 180,-103.5 180,-109.5 174,-115.5 168,-115.5 168,-115.5 12,-115.5 12,-115.5 6,-115.5 0,-109.5 0,-103.5 0,-103.5 0,-12.5 0,-12.5 0,-6.5 6,-0.5 12,-0.5"/>
<text text-anchor="middle" x="90" y="-100.3" font-family="Times,serif" font-size="14.00">indx: 0x579b28d6a0e0</text>
<polyline fill="none" stroke="#203d98" points="0,-92.5 180,-92.5 "/>
<text text-anchor="middle" x="90" y="-77.3" font-family="Times,serif" font-size="14.00">type: 3</text>
<polyline fill="none" stroke="#203d98" points="0,-69.5 180,-69.5 "/>
<text text-anchor="middle" x="90" y="-54.3" font-family="Times,serif" font-size="14.00">value: 1.00</text>
<polyline fill="none" stroke="#203d98" points="0,-46.5 180,-46.5 "/>
<text text-anchor="middle" x="90" y="-31.3" font-family="Times,serif" font-size="14.00">parent: (nil)</text>
<polyline fill="none" stroke="#203d98" points="0,-23.5 180,-23.5 "/>
<text text-anchor="middle" x="42" y="-8.3" font-family="Times,serif" font-size="14.00">left: (nil)</text>
<polyline fill="none" stroke="#203d98" points="84,-0.5 84,-23.5 "/>
<text text-anchor="middle" x="132" y="-8.3" font-family="Times,serif" font-size="14.00">right: (nil)</text>
</g>
</g>
</svg>
