<?xml version="1.0" encoding="UTF-8" standalone="no"?>
<!DOCTYPE svg PUBLIC "-//W3C//DTD SVG 1.1//EN"
 "http://www.w3.org/Graphics/SVG/1.1/DTD/svg11.dtd">
<!-- Generated by graphviz version 2.43.0 (0)
 -->
<!-- Title: Tree Pages: 1 -->
<svg width="931pt" height="428pt"
 viewBox="0.00 0.00 931.00 428.00" xmlns="http://www.w3.org/2000/svg" xmlns:xlink="http://www.w3.org/1999/xlink">
<g id="graph0" class="graph" transform="scale(1 1) rotate(0) translate(4 424)">
<title>Tree</title>
<polygon fill="#ffe7a5" stroke="transparent" points="-4,4 -4,-424 927,-424 927,4 -4,4"/>
<!-- node0x59232866e4b0 -->
<g id="node1" class="node">
<title>node0x59232866e4b0</title>
<path fill="#e07082" stroke="#203d98" d="M293.5,-304.5C293.5,-304.5 627.5,-304.5 627.5,-304.5 633.5,-304.5 639.5,-310.5 639.5,-316.5 639.5,-316.5 639.5,-407.5 639.5,-407.5 639.5,-413.5 633.5,-419.5 627.5,-419.5 627.5,-419.5 293.5,-419.5 293.5,-419.5 287.5,-419.5 281.5,-413.5 281.5,-407.5 281.5,-407.5 281.5,-316.5 281.5,-316.5 281.5,-310.5 287.5,-304.5 293.5,-304.5"/>
<text text-anchor="middle" x="460.5" y="-404.3" font-family="Times,serif" font-size="14.00">indx: 0x59232866e4b0</text>
<polyline fill="none" stroke="#203d98" points="281.5,-396.5 639.5,-396.5 "/>
<text text-anchor="middle" x="460.5" y="-381.3" font-family="Times,serif" font-size="14.00">type: 1</text>
<polyline fill="none" stroke="#203d98" points="281.5,-373.5 639.5,-373.5 "/>
<text text-anchor="middle" x="460.5" y="-358.3" font-family="Times,serif" font-size="14.00">value: +</text>
<polyline fill="none" stroke="#203d98" points="281.5,-350.5 639.5,-350.5 "/>
<text text-anchor="middle" x="460.5" y="-335.3" font-family="Times,serif" font-size="14.00">parent: (nil)</text>
<polyline fill="none" stroke="#203d98" points="281.5,-327.5 639.5,-327.5 "/>
<text text-anchor="middle" x="368" y="-312.3" font-family="Times,serif" font-size="14.00">left: 0x59232866e4e0</text>
<polyline fill="none" stroke="#203d98" points="454.5,-304.5 454.5,-327.5 "/>
<text text-anchor="middle" x="547" y="-312.3" font-family="Times,serif" font-size="14.00">right: 0x59232866e570</text>
</g>
<!-- node0x59232866e4e0 -->
<g id="node2" class="node">
<title>node0x59232866e4e0</title>
<path fill="#e07082" stroke="#203d98" d="M105,-152.5C105,-152.5 440,-152.5 440,-152.5 446,-152.5 452,-158.5 452,-164.5 452,-164.5 452,-255.5 452,-255.5 452,-261.5 446,-267.5 440,-267.5 440,-267.5 105,-267.5 105,-267.5 99,-267.5 93,-261.5 93,-255.5 93,-255.5 93,-164.5 93,-164.5 93,-158.5 99,-152.5 105,-152.5"/>
<text text-anchor="middle" x="272.5" y="-252.3" font-family="Times,serif" font-size="14.00">indx: 0x59232866e4e0</text>
<polyline fill="none" stroke="#203d98" points="93,-244.5 452,-244.5 "/>
<text text-anchor="middle" x="272.5" y="-229.3" font-family="Times,serif" font-size="14.00">type: 1</text>
<polyline fill="none" stroke="#203d98" points="93,-221.5 452,-221.5 "/>
<text text-anchor="middle" x="272.5" y="-206.3" font-family="Times,serif" font-size="14.00">value: *</text>
<polyline fill="none" stroke="#203d98" points="93,-198.5 452,-198.5 "/>
<text text-anchor="middle" x="272.5" y="-183.3" font-family="Times,serif" font-size="14.00">parent: 0x59232866e4b0</text>
<polyline fill="none" stroke="#203d98" points="93,-175.5 452,-175.5 "/>
<text text-anchor="middle" x="180" y="-160.3" font-family="Times,serif" font-size="14.00">left: 0x59232866e510</text>
<polyline fill="none" stroke="#203d98" points="267,-152.5 267,-175.5 "/>
<text text-anchor="middle" x="359.5" y="-160.3" font-family="Times,serif" font-size="14.00">right: 0x59232866e540</text>
</g>
<!-- node0x59232866e4b0&#45;&gt;node0x59232866e4e0 -->
<g id="edge1" class="edge">
<title>node0x59232866e4b0&#45;&gt;node0x59232866e4e0</title>
<path fill="none" stroke="#203d98" d="M389.43,-304.29C376.94,-294.33 363.88,-283.91 351.2,-273.79"/>
<polygon fill="#203d98" stroke="#203d98" points="353.36,-271.04 343.36,-267.54 349,-276.51 353.36,-271.04"/>
</g>
<!-- node0x59232866e570 -->
<g id="node5" class="node">
<title>node0x59232866e570</title>
<path fill="#e07082" stroke="#203d98" d="M482.5,-152.5C482.5,-152.5 816.5,-152.5 816.5,-152.5 822.5,-152.5 828.5,-158.5 828.5,-164.5 828.5,-164.5 828.5,-255.5 828.5,-255.5 828.5,-261.5 822.5,-267.5 816.5,-267.5 816.5,-267.5 482.5,-267.5 482.5,-267.5 476.5,-267.5 470.5,-261.5 470.5,-255.5 470.5,-255.5 470.5,-164.5 470.5,-164.5 470.5,-158.5 476.5,-152.5 482.5,-152.5"/>
<text text-anchor="middle" x="649.5" y="-252.3" font-family="Times,serif" font-size="14.00">indx: 0x59232866e570</text>
<polyline fill="none" stroke="#203d98" points="470.5,-244.5 828.5,-244.5 "/>
<text text-anchor="middle" x="649.5" y="-229.3" font-family="Times,serif" font-size="14.00">type: 1</text>
<polyline fill="none" stroke="#203d98" points="470.5,-221.5 828.5,-221.5 "/>
<text text-anchor="middle" x="649.5" y="-206.3" font-family="Times,serif" font-size="14.00">value: /</text>
<polyline fill="none" stroke="#203d98" points="470.5,-198.5 828.5,-198.5 "/>
<text text-anchor="middle" x="649.5" y="-183.3" font-family="Times,serif" font-size="14.00">parent: 0x59232866e4b0</text>
<polyline fill="none" stroke="#203d98" points="470.5,-175.5 828.5,-175.5 "/>
<text text-anchor="middle" x="557" y="-160.3" font-family="Times,serif" font-size="14.00">left: 0x59232866e5a0</text>
<polyline fill="none" stroke="#203d98" points="643.5,-152.5 643.5,-175.5 "/>
<text text-anchor="middle" x="736" y="-160.3" font-family="Times,serif" font-size="14.00">right: 0x59232866e5d0</text>
</g>
<!-- node0x59232866e4b0&#45;&gt;node0x59232866e570 -->
<g id="edge4" class="edge">
<title>node0x59232866e4b0&#45;&gt;node0x59232866e570</title>
<path fill="none" stroke="#203d98" d="M531.95,-304.29C544.51,-294.33 557.64,-283.91 570.38,-273.79"/>
<polygon fill="#203d98" stroke="#203d98" points="572.6,-276.5 578.26,-267.54 568.25,-271.01 572.6,-276.5"/>
</g>
<!-- node0x59232866e510 -->
<g id="node3" class="node">
<title>node0x59232866e510</title>
<path fill="#faaa82" stroke="#203d98" d="M12,-0.5C12,-0.5 185,-0.5 185,-0.5 191,-0.5 197,-6.5 197,-12.5 197,-12.5 197,-103.5 197,-103.5 197,-109.5 191,-115.5 185,-115.5 185,-115.5 12,-115.5 12,-115.5 6,-115.5 0,-109.5 0,-103.5 0,-103.5 0,-12.5 0,-12.5 0,-6.5 6,-0.5 12,-0.5"/>
<text text-anchor="middle" x="98.5" y="-100.3" font-family="Times,serif" font-size="14.00">indx: 0x59232866e510</text>
<polyline fill="none" stroke="#203d98" points="0,-92.5 197,-92.5 "/>
<text text-anchor="middle" x="98.5" y="-77.3" font-family="Times,serif" font-size="14.00">type: 3</text>
<polyline fill="none" stroke="#203d98" points="0,-69.5 197,-69.5 "/>
<text text-anchor="middle" x="98.5" y="-54.3" font-family="Times,serif" font-size="14.00">value: 3</text>
<polyline fill="none" stroke="#203d98" points="0,-46.5 197,-46.5 "/>
<text text-anchor="middle" x="98.5" y="-31.3" font-family="Times,serif" font-size="14.00">parent: 0x59232866e4e0</text>
<polyline fill="none" stroke="#203d98" points="0,-23.5 197,-23.5 "/>
<text text-anchor="middle" x="46.5" y="-8.3" font-family="Times,serif" font-size="14.00">left: (nil)</text>
<polyline fill="none" stroke="#203d98" points="93,-0.5 93,-23.5 "/>
<text text-anchor="middle" x="145" y="-8.3" font-family="Times,serif" font-size="14.00">right: (nil)</text>
</g>
<!-- node0x59232866e4e0&#45;&gt;node0x59232866e510 -->
<g id="edge2" class="edge">
<title>node0x59232866e4e0&#45;&gt;node0x59232866e510</title>
<path fill="none" stroke="#203d98" d="M206.72,-152.29C195.27,-142.42 183.3,-132.11 171.67,-122.08"/>
<polygon fill="#203d98" stroke="#203d98" points="173.95,-119.42 164.09,-115.54 169.38,-124.72 173.95,-119.42"/>
</g>
<!-- node0x59232866e540 -->
<g id="node4" class="node">
<title>node0x59232866e540</title>
<path fill="#faaa82" stroke="#203d98" d="M227,-0.5C227,-0.5 400,-0.5 400,-0.5 406,-0.5 412,-6.5 412,-12.5 412,-12.5 412,-103.5 412,-103.5 412,-109.5 406,-115.5 400,-115.5 400,-115.5 227,-115.5 227,-115.5 221,-115.5 215,-109.5 215,-103.5 215,-103.5 215,-12.5 215,-12.5 215,-6.5 221,-0.5 227,-0.5"/>
<text text-anchor="middle" x="313.5" y="-100.3" font-family="Times,serif" font-size="14.00">indx: 0x59232866e540</text>
<polyline fill="none" stroke="#203d98" points="215,-92.5 412,-92.5 "/>
<text text-anchor="middle" x="313.5" y="-77.3" font-family="Times,serif" font-size="14.00">type: 3</text>
<polyline fill="none" stroke="#203d98" points="215,-69.5 412,-69.5 "/>
<text text-anchor="middle" x="313.5" y="-54.3" font-family="Times,serif" font-size="14.00">value: 4</text>
<polyline fill="none" stroke="#203d98" points="215,-46.5 412,-46.5 "/>
<text text-anchor="middle" x="313.5" y="-31.3" font-family="Times,serif" font-size="14.00">parent: 0x59232866e4e0</text>
<polyline fill="none" stroke="#203d98" points="215,-23.5 412,-23.5 "/>
<text text-anchor="middle" x="261.5" y="-8.3" font-family="Times,serif" font-size="14.00">left: (nil)</text>
<polyline fill="none" stroke="#203d98" points="308,-0.5 308,-23.5 "/>
<text text-anchor="middle" x="360" y="-8.3" font-family="Times,serif" font-size="14.00">right: (nil)</text>
</g>
<!-- node0x59232866e4e0&#45;&gt;node0x59232866e540 -->
<g id="edge3" class="edge">
<title>node0x59232866e4e0&#45;&gt;node0x59232866e540</title>
<path fill="none" stroke="#203d98" d="M288,-152.29C290.37,-143.61 292.84,-134.58 295.27,-125.71"/>
<polygon fill="#203d98" stroke="#203d98" points="298.72,-126.36 297.98,-115.79 291.96,-124.51 298.72,-126.36"/>
</g>
<!-- node0x59232866e5a0 -->
<g id="node6" class="node">
<title>node0x59232866e5a0</title>
<path fill="#a24892" stroke="#203d98" d="M523,-0.5C523,-0.5 696,-0.5 696,-0.5 702,-0.5 708,-6.5 708,-12.5 708,-12.5 708,-103.5 708,-103.5 708,-109.5 702,-115.5 696,-115.5 696,-115.5 523,-115.5 523,-115.5 517,-115.5 511,-109.5 511,-103.5 511,-103.5 511,-12.5 511,-12.5 511,-6.5 517,-0.5 523,-0.5"/>
<text text-anchor="middle" x="609.5" y="-100.3" font-family="Times,serif" font-size="14.00">indx: 0x59232866e5a0</text>
<polyline fill="none" stroke="#203d98" points="511,-92.5 708,-92.5 "/>
<text text-anchor="middle" x="609.5" y="-77.3" font-family="Times,serif" font-size="14.00">type: 2</text>
<polyline fill="none" stroke="#203d98" points="511,-69.5 708,-69.5 "/>
<text text-anchor="middle" x="609.5" y="-54.3" font-family="Times,serif" font-size="14.00">value: x</text>
<polyline fill="none" stroke="#203d98" points="511,-46.5 708,-46.5 "/>
<text text-anchor="middle" x="609.5" y="-31.3" font-family="Times,serif" font-size="14.00">parent: 0x59232866e570</text>
<polyline fill="none" stroke="#203d98" points="511,-23.5 708,-23.5 "/>
<text text-anchor="middle" x="557.5" y="-8.3" font-family="Times,serif" font-size="14.00">left: (nil)</text>
<polyline fill="none" stroke="#203d98" points="604,-0.5 604,-23.5 "/>
<text text-anchor="middle" x="656" y="-8.3" font-family="Times,serif" font-size="14.00">right: (nil)</text>
</g>
<!-- node0x59232866e570&#45;&gt;node0x59232866e5a0 -->
<g id="edge5" class="edge">
<title>node0x59232866e570&#45;&gt;node0x59232866e5a0</title>
<path fill="none" stroke="#203d98" d="M634.38,-152.29C632.06,-143.61 629.66,-134.58 627.29,-125.71"/>
<polygon fill="#203d98" stroke="#203d98" points="630.6,-124.55 624.64,-115.79 623.84,-126.35 630.6,-124.55"/>
</g>
<!-- node0x59232866e5d0 -->
<g id="node7" class="node">
<title>node0x59232866e5d0</title>
<path fill="#faaa82" stroke="#203d98" d="M738,-0.5C738,-0.5 911,-0.5 911,-0.5 917,-0.5 923,-6.5 923,-12.5 923,-12.5 923,-103.5 923,-103.5 923,-109.5 917,-115.5 911,-115.5 911,-115.5 738,-115.5 738,-115.5 732,-115.5 726,-109.5 726,-103.5 726,-103.5 726,-12.5 726,-12.5 726,-6.5 732,-0.5 738,-0.5"/>
<text text-anchor="middle" x="824.5" y="-100.3" font-family="Times,serif" font-size="14.00">indx: 0x59232866e5d0</text>
<polyline fill="none" stroke="#203d98" points="726,-92.5 923,-92.5 "/>
<text text-anchor="middle" x="824.5" y="-77.3" font-family="Times,serif" font-size="14.00">type: 3</text>
<polyline fill="none" stroke="#203d98" points="726,-69.5 923,-69.5 "/>
<text text-anchor="middle" x="824.5" y="-54.3" font-family="Times,serif" font-size="14.00">value: 2</text>
<polyline fill="none" stroke="#203d98" points="726,-46.5 923,-46.5 "/>
<text text-anchor="middle" x="824.5" y="-31.3" font-family="Times,serif" font-size="14.00">parent: 0x59232866e570</text>
<polyline fill="none" stroke="#203d98" points="726,-23.5 923,-23.5 "/>
<text text-anchor="middle" x="772.5" y="-8.3" font-family="Times,serif" font-size="14.00">left: (nil)</text>
<polyline fill="none" stroke="#203d98" points="819,-0.5 819,-23.5 "/>
<text text-anchor="middle" x="871" y="-8.3" font-family="Times,serif" font-size="14.00">right: (nil)</text>
</g>
<!-- node0x59232866e570&#45;&gt;node0x59232866e5d0 -->
<g id="edge6" class="edge">
<title>node0x59232866e570&#45;&gt;node0x59232866e5d0</title>
<path fill="none" stroke="#203d98" d="M715.66,-152.29C727.17,-142.42 739.21,-132.11 750.91,-122.08"/>
<polygon fill="#203d98" stroke="#203d98" points="753.22,-124.71 758.54,-115.54 748.67,-119.39 753.22,-124.71"/>
</g>
</g>
</svg>
