<?xml version="1.0" encoding="UTF-8" standalone="no"?>
<!DOCTYPE svg PUBLIC "-//W3C//DTD SVG 1.1//EN"
 "http://www.w3.org/Graphics/SVG/1.1/DTD/svg11.dtd">
<!-- Generated by graphviz version 2.43.0 (0)
 -->
<!-- Title: Tree Pages: 1 -->
<svg width="754pt" height="580pt"
 viewBox="0.00 0.00 754.00 580.00" xmlns="http://www.w3.org/2000/svg" xmlns:xlink="http://www.w3.org/1999/xlink">
<g id="graph0" class="graph" transform="scale(1 1) rotate(0) translate(4 576)">
<title>Tree</title>
<polygon fill="#ffe7a5" stroke="transparent" points="-4,4 -4,-576 750,-576 750,4 -4,4"/>
<!-- node0x63401a6e3bc0 -->
<g id="node1" class="node">
<title>node0x63401a6e3bc0</title>
<path fill="#e07082" stroke="#203d98" d="M334.5,-456.5C334.5,-456.5 666.5,-456.5 666.5,-456.5 672.5,-456.5 678.5,-462.5 678.5,-468.5 678.5,-468.5 678.5,-559.5 678.5,-559.5 678.5,-565.5 672.5,-571.5 666.5,-571.5 666.5,-571.5 334.5,-571.5 334.5,-571.5 328.5,-571.5 322.5,-565.5 322.5,-559.5 322.5,-559.5 322.5,-468.5 322.5,-468.5 322.5,-462.5 328.5,-456.5 334.5,-456.5"/>
<text text-anchor="middle" x="500.5" y="-556.3" font-family="Times,serif" font-size="14.00">indx: 0x63401a6e3bc0</text>
<polyline fill="none" stroke="#203d98" points="322.5,-548.5 678.5,-548.5 "/>
<text text-anchor="middle" x="500.5" y="-533.3" font-family="Times,serif" font-size="14.00">type: 1</text>
<polyline fill="none" stroke="#203d98" points="322.5,-525.5 678.5,-525.5 "/>
<text text-anchor="middle" x="500.5" y="-510.3" font-family="Times,serif" font-size="14.00">value: ^</text>
<polyline fill="none" stroke="#203d98" points="322.5,-502.5 678.5,-502.5 "/>
<text text-anchor="middle" x="500.5" y="-487.3" font-family="Times,serif" font-size="14.00">parent: (nil)</text>
<polyline fill="none" stroke="#203d98" points="322.5,-479.5 678.5,-479.5 "/>
<text text-anchor="middle" x="409" y="-464.3" font-family="Times,serif" font-size="14.00">left: 0x63401a6e3b90</text>
<polyline fill="none" stroke="#203d98" points="495.5,-456.5 495.5,-479.5 "/>
<text text-anchor="middle" x="587" y="-464.3" font-family="Times,serif" font-size="14.00">right: 0x63401a6e36c0</text>
</g>
<!-- node0x63401a6e3b90 -->
<g id="node2" class="node">
<title>node0x63401a6e3b90</title>
<path fill="#e07082" stroke="#203d98" d="M186.5,-304.5C186.5,-304.5 520.5,-304.5 520.5,-304.5 526.5,-304.5 532.5,-310.5 532.5,-316.5 532.5,-316.5 532.5,-407.5 532.5,-407.5 532.5,-413.5 526.5,-419.5 520.5,-419.5 520.5,-419.5 186.5,-419.5 186.5,-419.5 180.5,-419.5 174.5,-413.5 174.5,-407.5 174.5,-407.5 174.5,-316.5 174.5,-316.5 174.5,-310.5 180.5,-304.5 186.5,-304.5"/>
<text text-anchor="middle" x="353.5" y="-404.3" font-family="Times,serif" font-size="14.00">indx: 0x63401a6e3b90</text>
<polyline fill="none" stroke="#203d98" points="174.5,-396.5 532.5,-396.5 "/>
<text text-anchor="middle" x="353.5" y="-381.3" font-family="Times,serif" font-size="14.00">type: 1</text>
<polyline fill="none" stroke="#203d98" points="174.5,-373.5 532.5,-373.5 "/>
<text text-anchor="middle" x="353.5" y="-358.3" font-family="Times,serif" font-size="14.00">value: s</text>
<polyline fill="none" stroke="#203d98" points="174.5,-350.5 532.5,-350.5 "/>
<text text-anchor="middle" x="353.5" y="-335.3" font-family="Times,serif" font-size="14.00">parent: 0x63401a6e3bc0</text>
<polyline fill="none" stroke="#203d98" points="174.5,-327.5 532.5,-327.5 "/>
<text text-anchor="middle" x="261" y="-312.3" font-family="Times,serif" font-size="14.00">left: 0x63401a6e3b30</text>
<polyline fill="none" stroke="#203d98" points="347.5,-304.5 347.5,-327.5 "/>
<text text-anchor="middle" x="440" y="-312.3" font-family="Times,serif" font-size="14.00">right: 0x63401a6e3b60</text>
</g>
<!-- node0x63401a6e3bc0&#45;&gt;node0x63401a6e3b90 -->
<g id="edge1" class="edge">
<title>node0x63401a6e3bc0&#45;&gt;node0x63401a6e3b90</title>
<path fill="none" stroke="#203d98" d="M444.93,-456.29C435.6,-446.77 425.86,-436.83 416.36,-427.14"/>
<polygon fill="#203d98" stroke="#203d98" points="418.65,-424.48 409.15,-419.79 413.65,-429.38 418.65,-424.48"/>
</g>
<!-- node0x63401a6e36c0 -->
<g id="node7" class="node">
<title>node0x63401a6e36c0</title>
<path fill="#faaa82" stroke="#203d98" d="M563,-304.5C563,-304.5 734,-304.5 734,-304.5 740,-304.5 746,-310.5 746,-316.5 746,-316.5 746,-407.5 746,-407.5 746,-413.5 740,-419.5 734,-419.5 734,-419.5 563,-419.5 563,-419.5 557,-419.5 551,-413.5 551,-407.5 551,-407.5 551,-316.5 551,-316.5 551,-310.5 557,-304.5 563,-304.5"/>
<text text-anchor="middle" x="648.5" y="-404.3" font-family="Times,serif" font-size="14.00">indx: 0x63401a6e36c0</text>
<polyline fill="none" stroke="#203d98" points="551,-396.5 746,-396.5 "/>
<text text-anchor="middle" x="648.5" y="-381.3" font-family="Times,serif" font-size="14.00">type: 3</text>
<polyline fill="none" stroke="#203d98" points="551,-373.5 746,-373.5 "/>
<text text-anchor="middle" x="648.5" y="-358.3" font-family="Times,serif" font-size="14.00">value: 3.00</text>
<polyline fill="none" stroke="#203d98" points="551,-350.5 746,-350.5 "/>
<text text-anchor="middle" x="648.5" y="-335.3" font-family="Times,serif" font-size="14.00">parent: 0x63401a6e3bc0</text>
<polyline fill="none" stroke="#203d98" points="551,-327.5 746,-327.5 "/>
<text text-anchor="middle" x="597" y="-312.3" font-family="Times,serif" font-size="14.00">left: (nil)</text>
<polyline fill="none" stroke="#203d98" points="643,-304.5 643,-327.5 "/>
<text text-anchor="middle" x="694.5" y="-312.3" font-family="Times,serif" font-size="14.00">right: (nil)</text>
</g>
<!-- node0x63401a6e3bc0&#45;&gt;node0x63401a6e36c0 -->
<g id="edge6" class="edge">
<title>node0x63401a6e3bc0&#45;&gt;node0x63401a6e36c0</title>
<path fill="none" stroke="#203d98" d="M556.45,-456.29C565.85,-446.77 575.65,-436.83 585.21,-427.14"/>
<polygon fill="#203d98" stroke="#203d98" points="587.94,-429.37 592.47,-419.79 582.95,-424.45 587.94,-429.37"/>
</g>
<!-- node0x63401a6e3b30 -->
<g id="node3" class="node">
<title>node0x63401a6e3b30</title>
<path fill="#e07082" stroke="#203d98" d="M38.5,-152.5C38.5,-152.5 372.5,-152.5 372.5,-152.5 378.5,-152.5 384.5,-158.5 384.5,-164.5 384.5,-164.5 384.5,-255.5 384.5,-255.5 384.5,-261.5 378.5,-267.5 372.5,-267.5 372.5,-267.5 38.5,-267.5 38.5,-267.5 32.5,-267.5 26.5,-261.5 26.5,-255.5 26.5,-255.5 26.5,-164.5 26.5,-164.5 26.5,-158.5 32.5,-152.5 38.5,-152.5"/>
<text text-anchor="middle" x="205.5" y="-252.3" font-family="Times,serif" font-size="14.00">indx: 0x63401a6e3b30</text>
<polyline fill="none" stroke="#203d98" points="26.5,-244.5 384.5,-244.5 "/>
<text text-anchor="middle" x="205.5" y="-229.3" font-family="Times,serif" font-size="14.00">type: 1</text>
<polyline fill="none" stroke="#203d98" points="26.5,-221.5 384.5,-221.5 "/>
<text text-anchor="middle" x="205.5" y="-206.3" font-family="Times,serif" font-size="14.00">value: +</text>
<polyline fill="none" stroke="#203d98" points="26.5,-198.5 384.5,-198.5 "/>
<text text-anchor="middle" x="205.5" y="-183.3" font-family="Times,serif" font-size="14.00">parent: 0x63401a6e3b90</text>
<polyline fill="none" stroke="#203d98" points="26.5,-175.5 384.5,-175.5 "/>
<text text-anchor="middle" x="113" y="-160.3" font-family="Times,serif" font-size="14.00">left: 0x63401a6e35d0</text>
<polyline fill="none" stroke="#203d98" points="199.5,-152.5 199.5,-175.5 "/>
<text text-anchor="middle" x="292" y="-160.3" font-family="Times,serif" font-size="14.00">right: 0x63401a6e3630</text>
</g>
<!-- node0x63401a6e3b90&#45;&gt;node0x63401a6e3b30 -->
<g id="edge2" class="edge">
<title>node0x63401a6e3b90&#45;&gt;node0x63401a6e3b30</title>
<path fill="none" stroke="#203d98" d="M297.55,-304.29C288.15,-294.77 278.35,-284.83 268.79,-275.14"/>
<polygon fill="#203d98" stroke="#203d98" points="271.05,-272.45 261.53,-267.79 266.06,-277.37 271.05,-272.45"/>
</g>
<!-- node0x63401a6e3b60 -->
<g id="node6" class="node">
<title>node0x63401a6e3b60</title>
<path fill="#faaa82" stroke="#203d98" d="M415,-152.5C415,-152.5 588,-152.5 588,-152.5 594,-152.5 600,-158.5 600,-164.5 600,-164.5 600,-255.5 600,-255.5 600,-261.5 594,-267.5 588,-267.5 588,-267.5 415,-267.5 415,-267.5 409,-267.5 403,-261.5 403,-255.5 403,-255.5 403,-164.5 403,-164.5 403,-158.5 409,-152.5 415,-152.5"/>
<text text-anchor="middle" x="501.5" y="-252.3" font-family="Times,serif" font-size="14.00">indx: 0x63401a6e3b60</text>
<polyline fill="none" stroke="#203d98" points="403,-244.5 600,-244.5 "/>
<text text-anchor="middle" x="501.5" y="-229.3" font-family="Times,serif" font-size="14.00">type: 3</text>
<polyline fill="none" stroke="#203d98" points="403,-221.5 600,-221.5 "/>
<text text-anchor="middle" x="501.5" y="-206.3" font-family="Times,serif" font-size="14.00">value: 0.00</text>
<polyline fill="none" stroke="#203d98" points="403,-198.5 600,-198.5 "/>
<text text-anchor="middle" x="501.5" y="-183.3" font-family="Times,serif" font-size="14.00">parent: 0x63401a6e3b90</text>
<polyline fill="none" stroke="#203d98" points="403,-175.5 600,-175.5 "/>
<text text-anchor="middle" x="449.5" y="-160.3" font-family="Times,serif" font-size="14.00">left: (nil)</text>
<polyline fill="none" stroke="#203d98" points="496,-152.5 496,-175.5 "/>
<text text-anchor="middle" x="548" y="-160.3" font-family="Times,serif" font-size="14.00">right: (nil)</text>
</g>
<!-- node0x63401a6e3b90&#45;&gt;node0x63401a6e3b60 -->
<g id="edge5" class="edge">
<title>node0x63401a6e3b90&#45;&gt;node0x63401a6e3b60</title>
<path fill="none" stroke="#203d98" d="M409.45,-304.29C418.85,-294.77 428.65,-284.83 438.21,-275.14"/>
<polygon fill="#203d98" stroke="#203d98" points="440.94,-277.37 445.47,-267.79 435.95,-272.45 440.94,-277.37"/>
</g>
<!-- node0x63401a6e35d0 -->
<g id="node4" class="node">
<title>node0x63401a6e35d0</title>
<path fill="#faaa82" stroke="#203d98" d="M12,-0.5C12,-0.5 185,-0.5 185,-0.5 191,-0.5 197,-6.5 197,-12.5 197,-12.5 197,-103.5 197,-103.5 197,-109.5 191,-115.5 185,-115.5 185,-115.5 12,-115.5 12,-115.5 6,-115.5 0,-109.5 0,-103.5 0,-103.5 0,-12.5 0,-12.5 0,-6.5 6,-0.5 12,-0.5"/>
<text text-anchor="middle" x="98.5" y="-100.3" font-family="Times,serif" font-size="14.00">indx: 0x63401a6e35d0</text>
<polyline fill="none" stroke="#203d98" points="0,-92.5 197,-92.5 "/>
<text text-anchor="middle" x="98.5" y="-77.3" font-family="Times,serif" font-size="14.00">type: 3</text>
<polyline fill="none" stroke="#203d98" points="0,-69.5 197,-69.5 "/>
<text text-anchor="middle" x="98.5" y="-54.3" font-family="Times,serif" font-size="14.00">value: 6.00</text>
<polyline fill="none" stroke="#203d98" points="0,-46.5 197,-46.5 "/>
<text text-anchor="middle" x="98.5" y="-31.3" font-family="Times,serif" font-size="14.00">parent: 0x63401a6e3b30</text>
<polyline fill="none" stroke="#203d98" points="0,-23.5 197,-23.5 "/>
<text text-anchor="middle" x="46.5" y="-8.3" font-family="Times,serif" font-size="14.00">left: (nil)</text>
<polyline fill="none" stroke="#203d98" points="93,-0.5 93,-23.5 "/>
<text text-anchor="middle" x="145" y="-8.3" font-family="Times,serif" font-size="14.00">right: (nil)</text>
</g>
<!-- node0x63401a6e3b30&#45;&gt;node0x63401a6e35d0 -->
<g id="edge3" class="edge">
<title>node0x63401a6e3b30&#45;&gt;node0x63401a6e35d0</title>
<path fill="none" stroke="#203d98" d="M165.05,-152.29C158.46,-143.05 151.58,-133.42 144.86,-124"/>
<polygon fill="#203d98" stroke="#203d98" points="147.67,-121.9 139.01,-115.79 141.97,-125.96 147.67,-121.9"/>
</g>
<!-- node0x63401a6e3630 -->
<g id="node5" class="node">
<title>node0x63401a6e3630</title>
<path fill="#faaa82" stroke="#203d98" d="M227,-0.5C227,-0.5 400,-0.5 400,-0.5 406,-0.5 412,-6.5 412,-12.5 412,-12.5 412,-103.5 412,-103.5 412,-109.5 406,-115.5 400,-115.5 400,-115.5 227,-115.5 227,-115.5 221,-115.5 215,-109.5 215,-103.5 215,-103.5 215,-12.5 215,-12.5 215,-6.5 221,-0.5 227,-0.5"/>
<text text-anchor="middle" x="313.5" y="-100.3" font-family="Times,serif" font-size="14.00">indx: 0x63401a6e3630</text>
<polyline fill="none" stroke="#203d98" points="215,-92.5 412,-92.5 "/>
<text text-anchor="middle" x="313.5" y="-77.3" font-family="Times,serif" font-size="14.00">type: 3</text>
<polyline fill="none" stroke="#203d98" points="215,-69.5 412,-69.5 "/>
<text text-anchor="middle" x="313.5" y="-54.3" font-family="Times,serif" font-size="14.00">value: 9.00</text>
<polyline fill="none" stroke="#203d98" points="215,-46.5 412,-46.5 "/>
<text text-anchor="middle" x="313.5" y="-31.3" font-family="Times,serif" font-size="14.00">parent: 0x63401a6e3b30</text>
<polyline fill="none" stroke="#203d98" points="215,-23.5 412,-23.5 "/>
<text text-anchor="middle" x="261.5" y="-8.3" font-family="Times,serif" font-size="14.00">left: (nil)</text>
<polyline fill="none" stroke="#203d98" points="308,-0.5 308,-23.5 "/>
<text text-anchor="middle" x="360" y="-8.3" font-family="Times,serif" font-size="14.00">right: (nil)</text>
</g>
<!-- node0x63401a6e3b30&#45;&gt;node0x63401a6e3630 -->
<g id="edge4" class="edge">
<title>node0x63401a6e3b30&#45;&gt;node0x63401a6e3630</title>
<path fill="none" stroke="#203d98" d="M246.33,-152.29C252.98,-143.05 259.92,-133.42 266.7,-124"/>
<polygon fill="#203d98" stroke="#203d98" points="269.61,-125.95 272.61,-115.79 263.93,-121.86 269.61,-125.95"/>
</g>
</g>
</svg>
