<?xml version="1.0" encoding="UTF-8" standalone="no"?>
<!DOCTYPE svg PUBLIC "-//W3C//DTD SVG 1.1//EN"
 "http://www.w3.org/Graphics/SVG/1.1/DTD/svg11.dtd">
<!-- Generated by graphviz version 2.43.0 (0)
 -->
<!-- Title: Tree Pages: 1 -->
<svg width="1188pt" height="1036pt"
 viewBox="0.00 0.00 1188.00 1036.00" xmlns="http://www.w3.org/2000/svg" xmlns:xlink="http://www.w3.org/1999/xlink">
<g id="graph0" class="graph" transform="scale(1 1) rotate(0) translate(4 1032)">
<title>Tree</title>
<polygon fill="#ffe7a5" stroke="transparent" points="-4,4 -4,-1032 1184,-1032 1184,4 -4,4"/>
<!-- node0x5f37d5ce5190 -->
<g id="node1" class="node">
<title>node0x5f37d5ce5190</title>
<path fill="#e07082" stroke="#203d98" d="M386,-912.5C386,-912.5 710,-912.5 710,-912.5 716,-912.5 722,-918.5 722,-924.5 722,-924.5 722,-1015.5 722,-1015.5 722,-1021.5 716,-1027.5 710,-1027.5 710,-1027.5 386,-1027.5 386,-1027.5 380,-1027.5 374,-1021.5 374,-1015.5 374,-1015.5 374,-924.5 374,-924.5 374,-918.5 380,-912.5 386,-912.5"/>
<text text-anchor="middle" x="548" y="-1012.3" font-family="Times,serif" font-size="14.00">indx: 0x5f37d5ce5190</text>
<polyline fill="none" stroke="#203d98" points="374,-1004.5 722,-1004.5 "/>
<text text-anchor="middle" x="548" y="-989.3" font-family="Times,serif" font-size="14.00">type: 1</text>
<polyline fill="none" stroke="#203d98" points="374,-981.5 722,-981.5 "/>
<text text-anchor="middle" x="548" y="-966.3" font-family="Times,serif" font-size="14.00">value: /</text>
<polyline fill="none" stroke="#203d98" points="374,-958.5 722,-958.5 "/>
<text text-anchor="middle" x="548" y="-943.3" font-family="Times,serif" font-size="14.00">parent: (nil)</text>
<polyline fill="none" stroke="#203d98" points="374,-935.5 722,-935.5 "/>
<text text-anchor="middle" x="458" y="-920.3" font-family="Times,serif" font-size="14.00">left: 0x5f37d5ce5a00</text>
<polyline fill="none" stroke="#203d98" points="542,-912.5 542,-935.5 "/>
<text text-anchor="middle" x="632" y="-920.3" font-family="Times,serif" font-size="14.00">right: 0x5f37d5ce5d00</text>
</g>
<!-- node0x5f37d5ce5a00 -->
<g id="node2" class="node">
<title>node0x5f37d5ce5a00</title>
<path fill="#e07082" stroke="#203d98" d="M241.5,-760.5C241.5,-760.5 566.5,-760.5 566.5,-760.5 572.5,-760.5 578.5,-766.5 578.5,-772.5 578.5,-772.5 578.5,-863.5 578.5,-863.5 578.5,-869.5 572.5,-875.5 566.5,-875.5 566.5,-875.5 241.5,-875.5 241.5,-875.5 235.5,-875.5 229.5,-869.5 229.5,-863.5 229.5,-863.5 229.5,-772.5 229.5,-772.5 229.5,-766.5 235.5,-760.5 241.5,-760.5"/>
<text text-anchor="middle" x="404" y="-860.3" font-family="Times,serif" font-size="14.00">indx: 0x5f37d5ce5a00</text>
<polyline fill="none" stroke="#203d98" points="229.5,-852.5 578.5,-852.5 "/>
<text text-anchor="middle" x="404" y="-837.3" font-family="Times,serif" font-size="14.00">type: 1</text>
<polyline fill="none" stroke="#203d98" points="229.5,-829.5 578.5,-829.5 "/>
<text text-anchor="middle" x="404" y="-814.3" font-family="Times,serif" font-size="14.00">value: *</text>
<polyline fill="none" stroke="#203d98" points="229.5,-806.5 578.5,-806.5 "/>
<text text-anchor="middle" x="404" y="-791.3" font-family="Times,serif" font-size="14.00">parent: 0x5f37d5ce5190</text>
<polyline fill="none" stroke="#203d98" points="229.5,-783.5 578.5,-783.5 "/>
<text text-anchor="middle" x="314" y="-768.3" font-family="Times,serif" font-size="14.00">left: 0x5f37d5ce59d0</text>
<polyline fill="none" stroke="#203d98" points="398.5,-760.5 398.5,-783.5 "/>
<text text-anchor="middle" x="488.5" y="-768.3" font-family="Times,serif" font-size="14.00">right: 0x5f37d5ce5760</text>
</g>
<!-- node0x5f37d5ce5190&#45;&gt;node0x5f37d5ce5a00 -->
<g id="edge1" class="edge">
<title>node0x5f37d5ce5190&#45;&gt;node0x5f37d5ce5a00</title>
<path fill="none" stroke="#203d98" d="M493.56,-912.29C484.42,-902.77 474.88,-892.83 465.58,-883.14"/>
<polygon fill="#203d98" stroke="#203d98" points="467.97,-880.58 458.52,-875.79 462.92,-885.43 467.97,-880.58"/>
</g>
<!-- node0x5f37d5ce5d00 -->
<g id="node17" class="node">
<title>node0x5f37d5ce5d00</title>
<path fill="#faaa82" stroke="#203d98" d="M609,-760.5C609,-760.5 777,-760.5 777,-760.5 783,-760.5 789,-766.5 789,-772.5 789,-772.5 789,-863.5 789,-863.5 789,-869.5 783,-875.5 777,-875.5 777,-875.5 609,-875.5 609,-875.5 603,-875.5 597,-869.5 597,-863.5 597,-863.5 597,-772.5 597,-772.5 597,-766.5 603,-760.5 609,-760.5"/>
<text text-anchor="middle" x="693" y="-860.3" font-family="Times,serif" font-size="14.00">indx: 0x5f37d5ce5d00</text>
<polyline fill="none" stroke="#203d98" points="597,-852.5 789,-852.5 "/>
<text text-anchor="middle" x="693" y="-837.3" font-family="Times,serif" font-size="14.00">type: 3</text>
<polyline fill="none" stroke="#203d98" points="597,-829.5 789,-829.5 "/>
<text text-anchor="middle" x="693" y="-814.3" font-family="Times,serif" font-size="14.00">value: 1296.00</text>
<polyline fill="none" stroke="#203d98" points="597,-806.5 789,-806.5 "/>
<text text-anchor="middle" x="693" y="-791.3" font-family="Times,serif" font-size="14.00">parent: 0x5f37d5ce5190</text>
<polyline fill="none" stroke="#203d98" points="597,-783.5 789,-783.5 "/>
<text text-anchor="middle" x="642" y="-768.3" font-family="Times,serif" font-size="14.00">left: (nil)</text>
<polyline fill="none" stroke="#203d98" points="687,-760.5 687,-783.5 "/>
<text text-anchor="middle" x="738" y="-768.3" font-family="Times,serif" font-size="14.00">right: (nil)</text>
</g>
<!-- node0x5f37d5ce5190&#45;&gt;node0x5f37d5ce5d00 -->
<g id="edge16" class="edge">
<title>node0x5f37d5ce5190&#45;&gt;node0x5f37d5ce5d00</title>
<path fill="none" stroke="#203d98" d="M602.82,-912.29C612.02,-902.77 621.63,-892.83 631,-883.14"/>
<polygon fill="#203d98" stroke="#203d98" points="633.67,-885.41 638.1,-875.79 628.64,-880.55 633.67,-885.41"/>
</g>
<!-- node0x5f37d5ce59d0 -->
<g id="node3" class="node">
<title>node0x5f37d5ce59d0</title>
<path fill="#faaa82" stroke="#203d98" d="M176.5,-608.5C176.5,-608.5 343.5,-608.5 343.5,-608.5 349.5,-608.5 355.5,-614.5 355.5,-620.5 355.5,-620.5 355.5,-711.5 355.5,-711.5 355.5,-717.5 349.5,-723.5 343.5,-723.5 343.5,-723.5 176.5,-723.5 176.5,-723.5 170.5,-723.5 164.5,-717.5 164.5,-711.5 164.5,-711.5 164.5,-620.5 164.5,-620.5 164.5,-614.5 170.5,-608.5 176.5,-608.5"/>
<text text-anchor="middle" x="260" y="-708.3" font-family="Times,serif" font-size="14.00">indx: 0x5f37d5ce59d0</text>
<polyline fill="none" stroke="#203d98" points="164.5,-700.5 355.5,-700.5 "/>
<text text-anchor="middle" x="260" y="-685.3" font-family="Times,serif" font-size="14.00">type: 3</text>
<polyline fill="none" stroke="#203d98" points="164.5,-677.5 355.5,-677.5 "/>
<text text-anchor="middle" x="260" y="-662.3" font-family="Times,serif" font-size="14.00">value: 216.00</text>
<polyline fill="none" stroke="#203d98" points="164.5,-654.5 355.5,-654.5 "/>
<text text-anchor="middle" x="260" y="-639.3" font-family="Times,serif" font-size="14.00">parent: 0x5f37d5ce5a00</text>
<polyline fill="none" stroke="#203d98" points="164.5,-631.5 355.5,-631.5 "/>
<text text-anchor="middle" x="209.5" y="-616.3" font-family="Times,serif" font-size="14.00">left: (nil)</text>
<polyline fill="none" stroke="#203d98" points="254.5,-608.5 254.5,-631.5 "/>
<text text-anchor="middle" x="305" y="-616.3" font-family="Times,serif" font-size="14.00">right: (nil)</text>
</g>
<!-- node0x5f37d5ce5a00&#45;&gt;node0x5f37d5ce59d0 -->
<g id="edge2" class="edge">
<title>node0x5f37d5ce5a00&#45;&gt;node0x5f37d5ce59d0</title>
<path fill="none" stroke="#203d98" d="M349.56,-760.29C340.42,-750.77 330.88,-740.83 321.58,-731.14"/>
<polygon fill="#203d98" stroke="#203d98" points="323.97,-728.58 314.52,-723.79 318.92,-733.43 323.97,-728.58"/>
</g>
<!-- node0x5f37d5ce5760 -->
<g id="node4" class="node">
<title>node0x5f37d5ce5760</title>
<path fill="#e07082" stroke="#203d98" d="M386,-608.5C386,-608.5 710,-608.5 710,-608.5 716,-608.5 722,-614.5 722,-620.5 722,-620.5 722,-711.5 722,-711.5 722,-717.5 716,-723.5 710,-723.5 710,-723.5 386,-723.5 386,-723.5 380,-723.5 374,-717.5 374,-711.5 374,-711.5 374,-620.5 374,-620.5 374,-614.5 380,-608.5 386,-608.5"/>
<text text-anchor="middle" x="548" y="-708.3" font-family="Times,serif" font-size="14.00">indx: 0x5f37d5ce5760</text>
<polyline fill="none" stroke="#203d98" points="374,-700.5 722,-700.5 "/>
<text text-anchor="middle" x="548" y="-685.3" font-family="Times,serif" font-size="14.00">type: 1</text>
<polyline fill="none" stroke="#203d98" points="374,-677.5 722,-677.5 "/>
<text text-anchor="middle" x="548" y="-662.3" font-family="Times,serif" font-size="14.00">value: +</text>
<polyline fill="none" stroke="#203d98" points="374,-654.5 722,-654.5 "/>
<text text-anchor="middle" x="548" y="-639.3" font-family="Times,serif" font-size="14.00">parent: 0x5f37d5ce5a00</text>
<polyline fill="none" stroke="#203d98" points="374,-631.5 722,-631.5 "/>
<text text-anchor="middle" x="458.5" y="-616.3" font-family="Times,serif" font-size="14.00">left: 0x5f37d5ce5790</text>
<polyline fill="none" stroke="#203d98" points="543,-608.5 543,-631.5 "/>
<text text-anchor="middle" x="632.5" y="-616.3" font-family="Times,serif" font-size="14.00">right: 0x5f37d5ce58e0</text>
</g>
<!-- node0x5f37d5ce5a00&#45;&gt;node0x5f37d5ce5760 -->
<g id="edge3" class="edge">
<title>node0x5f37d5ce5a00&#45;&gt;node0x5f37d5ce5760</title>
<path fill="none" stroke="#203d98" d="M458.44,-760.29C467.58,-750.77 477.12,-740.83 486.42,-731.14"/>
<polygon fill="#203d98" stroke="#203d98" points="489.08,-733.43 493.48,-723.79 484.03,-728.58 489.08,-733.43"/>
</g>
<!-- node0x5f37d5ce5790 -->
<g id="node5" class="node">
<title>node0x5f37d5ce5790</title>
<path fill="#e07082" stroke="#203d98" d="M206.5,-456.5C206.5,-456.5 525.5,-456.5 525.5,-456.5 531.5,-456.5 537.5,-462.5 537.5,-468.5 537.5,-468.5 537.5,-559.5 537.5,-559.5 537.5,-565.5 531.5,-571.5 525.5,-571.5 525.5,-571.5 206.5,-571.5 206.5,-571.5 200.5,-571.5 194.5,-565.5 194.5,-559.5 194.5,-559.5 194.5,-468.5 194.5,-468.5 194.5,-462.5 200.5,-456.5 206.5,-456.5"/>
<text text-anchor="middle" x="366" y="-556.3" font-family="Times,serif" font-size="14.00">indx: 0x5f37d5ce5790</text>
<polyline fill="none" stroke="#203d98" points="194.5,-548.5 537.5,-548.5 "/>
<text text-anchor="middle" x="366" y="-533.3" font-family="Times,serif" font-size="14.00">type: 1</text>
<polyline fill="none" stroke="#203d98" points="194.5,-525.5 537.5,-525.5 "/>
<text text-anchor="middle" x="366" y="-510.3" font-family="Times,serif" font-size="14.00">value: *</text>
<polyline fill="none" stroke="#203d98" points="194.5,-502.5 537.5,-502.5 "/>
<text text-anchor="middle" x="366" y="-487.3" font-family="Times,serif" font-size="14.00">parent: 0x5f37d5ce5760</text>
<polyline fill="none" stroke="#203d98" points="194.5,-479.5 537.5,-479.5 "/>
<text text-anchor="middle" x="278" y="-464.3" font-family="Times,serif" font-size="14.00">left: 0x5f37d5ce57c0</text>
<polyline fill="none" stroke="#203d98" points="361.5,-456.5 361.5,-479.5 "/>
<text text-anchor="middle" x="449.5" y="-464.3" font-family="Times,serif" font-size="14.00">right: 0x5f37d5ce57f0</text>
</g>
<!-- node0x5f37d5ce5760&#45;&gt;node0x5f37d5ce5790 -->
<g id="edge4" class="edge">
<title>node0x5f37d5ce5760&#45;&gt;node0x5f37d5ce5790</title>
<path fill="none" stroke="#203d98" d="M479.19,-608.29C467.22,-598.42 454.7,-588.11 442.54,-578.08"/>
<polygon fill="#203d98" stroke="#203d98" points="444.54,-575.2 434.6,-571.54 440.09,-580.6 444.54,-575.2"/>
</g>
<!-- node0x5f37d5ce58e0 -->
<g id="node12" class="node">
<title>node0x5f37d5ce58e0</title>
<path fill="#e07082" stroke="#203d98" d="M567.5,-456.5C567.5,-456.5 892.5,-456.5 892.5,-456.5 898.5,-456.5 904.5,-462.5 904.5,-468.5 904.5,-468.5 904.5,-559.5 904.5,-559.5 904.5,-565.5 898.5,-571.5 892.5,-571.5 892.5,-571.5 567.5,-571.5 567.5,-571.5 561.5,-571.5 555.5,-565.5 555.5,-559.5 555.5,-559.5 555.5,-468.5 555.5,-468.5 555.5,-462.5 561.5,-456.5 567.5,-456.5"/>
<text text-anchor="middle" x="730" y="-556.3" font-family="Times,serif" font-size="14.00">indx: 0x5f37d5ce58e0</text>
<polyline fill="none" stroke="#203d98" points="555.5,-548.5 904.5,-548.5 "/>
<text text-anchor="middle" x="730" y="-533.3" font-family="Times,serif" font-size="14.00">type: 1</text>
<polyline fill="none" stroke="#203d98" points="555.5,-525.5 904.5,-525.5 "/>
<text text-anchor="middle" x="730" y="-510.3" font-family="Times,serif" font-size="14.00">value: *</text>
<polyline fill="none" stroke="#203d98" points="555.5,-502.5 904.5,-502.5 "/>
<text text-anchor="middle" x="730" y="-487.3" font-family="Times,serif" font-size="14.00">parent: 0x5f37d5ce5760</text>
<polyline fill="none" stroke="#203d98" points="555.5,-479.5 904.5,-479.5 "/>
<text text-anchor="middle" x="640" y="-464.3" font-family="Times,serif" font-size="14.00">left: 0x5f37d5ce5910</text>
<polyline fill="none" stroke="#203d98" points="724.5,-456.5 724.5,-479.5 "/>
<text text-anchor="middle" x="814.5" y="-464.3" font-family="Times,serif" font-size="14.00">right: 0x5f37d5ce5940</text>
</g>
<!-- node0x5f37d5ce5760&#45;&gt;node0x5f37d5ce58e0 -->
<g id="edge11" class="edge">
<title>node0x5f37d5ce5760&#45;&gt;node0x5f37d5ce58e0</title>
<path fill="none" stroke="#203d98" d="M616.81,-608.29C628.78,-598.42 641.3,-588.11 653.46,-578.08"/>
<polygon fill="#203d98" stroke="#203d98" points="655.91,-580.6 661.4,-571.54 651.46,-575.2 655.91,-580.6"/>
</g>
<!-- node0x5f37d5ce57c0 -->
<g id="node6" class="node">
<title>node0x5f37d5ce57c0</title>
<path fill="#faaa82" stroke="#203d98" d="M12,-304.5C12,-304.5 180,-304.5 180,-304.5 186,-304.5 192,-310.5 192,-316.5 192,-316.5 192,-407.5 192,-407.5 192,-413.5 186,-419.5 180,-419.5 180,-419.5 12,-419.5 12,-419.5 6,-419.5 0,-413.5 0,-407.5 0,-407.5 0,-316.5 0,-316.5 0,-310.5 6,-304.5 12,-304.5"/>
<text text-anchor="middle" x="96" y="-404.3" font-family="Times,serif" font-size="14.00">indx: 0x5f37d5ce57c0</text>
<polyline fill="none" stroke="#203d98" points="0,-396.5 192,-396.5 "/>
<text text-anchor="middle" x="96" y="-381.3" font-family="Times,serif" font-size="14.00">type: 3</text>
<polyline fill="none" stroke="#203d98" points="0,-373.5 192,-373.5 "/>
<text text-anchor="middle" x="96" y="-358.3" font-family="Times,serif" font-size="14.00">value: &#45;25.00</text>
<polyline fill="none" stroke="#203d98" points="0,-350.5 192,-350.5 "/>
<text text-anchor="middle" x="96" y="-335.3" font-family="Times,serif" font-size="14.00">parent: 0x5f37d5ce5790</text>
<polyline fill="none" stroke="#203d98" points="0,-327.5 192,-327.5 "/>
<text text-anchor="middle" x="45" y="-312.3" font-family="Times,serif" font-size="14.00">left: (nil)</text>
<polyline fill="none" stroke="#203d98" points="90,-304.5 90,-327.5 "/>
<text text-anchor="middle" x="141" y="-312.3" font-family="Times,serif" font-size="14.00">right: (nil)</text>
</g>
<!-- node0x5f37d5ce5790&#45;&gt;node0x5f37d5ce57c0 -->
<g id="edge5" class="edge">
<title>node0x5f37d5ce5790&#45;&gt;node0x5f37d5ce57c0</title>
<path fill="none" stroke="#203d98" d="M263.92,-456.29C243.41,-444.89 221.81,-432.9 201.2,-421.44"/>
<polygon fill="#203d98" stroke="#203d98" points="202.87,-418.37 192.42,-416.57 199.47,-424.49 202.87,-418.37"/>
</g>
<!-- node0x5f37d5ce57f0 -->
<g id="node7" class="node">
<title>node0x5f37d5ce57f0</title>
<path fill="#e07082" stroke="#203d98" d="M222.5,-304.5C222.5,-304.5 547.5,-304.5 547.5,-304.5 553.5,-304.5 559.5,-310.5 559.5,-316.5 559.5,-316.5 559.5,-407.5 559.5,-407.5 559.5,-413.5 553.5,-419.5 547.5,-419.5 547.5,-419.5 222.5,-419.5 222.5,-419.5 216.5,-419.5 210.5,-413.5 210.5,-407.5 210.5,-407.5 210.5,-316.5 210.5,-316.5 210.5,-310.5 216.5,-304.5 222.5,-304.5"/>
<text text-anchor="middle" x="385" y="-404.3" font-family="Times,serif" font-size="14.00">indx: 0x5f37d5ce57f0</text>
<polyline fill="none" stroke="#203d98" points="210.5,-396.5 559.5,-396.5 "/>
<text text-anchor="middle" x="385" y="-381.3" font-family="Times,serif" font-size="14.00">type: 1</text>
<polyline fill="none" stroke="#203d98" points="210.5,-373.5 559.5,-373.5 "/>
<text text-anchor="middle" x="385" y="-358.3" font-family="Times,serif" font-size="14.00">value: sin</text>
<polyline fill="none" stroke="#203d98" points="210.5,-350.5 559.5,-350.5 "/>
<text text-anchor="middle" x="385" y="-335.3" font-family="Times,serif" font-size="14.00">parent: 0x5f37d5ce5790</text>
<polyline fill="none" stroke="#203d98" points="210.5,-327.5 559.5,-327.5 "/>
<text text-anchor="middle" x="295" y="-312.3" font-family="Times,serif" font-size="14.00">left: 0x5f37d5ce5820</text>
<polyline fill="none" stroke="#203d98" points="379.5,-304.5 379.5,-327.5 "/>
<text text-anchor="middle" x="469.5" y="-312.3" font-family="Times,serif" font-size="14.00">right: 0x5f37d5ce58b0</text>
</g>
<!-- node0x5f37d5ce5790&#45;&gt;node0x5f37d5ce57f0 -->
<g id="edge6" class="edge">
<title>node0x5f37d5ce5790&#45;&gt;node0x5f37d5ce57f0</title>
<path fill="none" stroke="#203d98" d="M373.18,-456.29C374.28,-447.61 375.43,-438.58 376.55,-429.71"/>
<polygon fill="#203d98" stroke="#203d98" points="380.02,-430.15 377.81,-419.79 373.08,-429.27 380.02,-430.15"/>
</g>
<!-- node0x5f37d5ce5820 -->
<g id="node8" class="node">
<title>node0x5f37d5ce5820</title>
<path fill="#e07082" stroke="#203d98" d="M137.5,-152.5C137.5,-152.5 462.5,-152.5 462.5,-152.5 468.5,-152.5 474.5,-158.5 474.5,-164.5 474.5,-164.5 474.5,-255.5 474.5,-255.5 474.5,-261.5 468.5,-267.5 462.5,-267.5 462.5,-267.5 137.5,-267.5 137.5,-267.5 131.5,-267.5 125.5,-261.5 125.5,-255.5 125.5,-255.5 125.5,-164.5 125.5,-164.5 125.5,-158.5 131.5,-152.5 137.5,-152.5"/>
<text text-anchor="middle" x="300" y="-252.3" font-family="Times,serif" font-size="14.00">indx: 0x5f37d5ce5820</text>
<polyline fill="none" stroke="#203d98" points="125.5,-244.5 474.5,-244.5 "/>
<text text-anchor="middle" x="300" y="-229.3" font-family="Times,serif" font-size="14.00">type: 1</text>
<polyline fill="none" stroke="#203d98" points="125.5,-221.5 474.5,-221.5 "/>
<text text-anchor="middle" x="300" y="-206.3" font-family="Times,serif" font-size="14.00">value: *</text>
<polyline fill="none" stroke="#203d98" points="125.5,-198.5 474.5,-198.5 "/>
<text text-anchor="middle" x="300" y="-183.3" font-family="Times,serif" font-size="14.00">parent: 0x5f37d5ce57f0</text>
<polyline fill="none" stroke="#203d98" points="125.5,-175.5 474.5,-175.5 "/>
<text text-anchor="middle" x="210" y="-160.3" font-family="Times,serif" font-size="14.00">left: 0x5f37d5ce5850</text>
<polyline fill="none" stroke="#203d98" points="294.5,-152.5 294.5,-175.5 "/>
<text text-anchor="middle" x="384.5" y="-160.3" font-family="Times,serif" font-size="14.00">right: 0x5f37d5ce5880</text>
</g>
<!-- node0x5f37d5ce57f0&#45;&gt;node0x5f37d5ce5820 -->
<g id="edge7" class="edge">
<title>node0x5f37d5ce57f0&#45;&gt;node0x5f37d5ce5820</title>
<path fill="none" stroke="#203d98" d="M352.87,-304.29C347.73,-295.24 342.39,-285.81 337.16,-276.57"/>
<polygon fill="#203d98" stroke="#203d98" points="340.16,-274.76 332.18,-267.79 334.07,-278.21 340.16,-274.76"/>
</g>
<!-- node0x5f37d5ce58b0 -->
<g id="node11" class="node">
<title>node0x5f37d5ce58b0</title>
<path fill="#faaa82" stroke="#203d98" d="M505,-152.5C505,-152.5 669,-152.5 669,-152.5 675,-152.5 681,-158.5 681,-164.5 681,-164.5 681,-255.5 681,-255.5 681,-261.5 675,-267.5 669,-267.5 669,-267.5 505,-267.5 505,-267.5 499,-267.5 493,-261.5 493,-255.5 493,-255.5 493,-164.5 493,-164.5 493,-158.5 499,-152.5 505,-152.5"/>
<text text-anchor="middle" x="587" y="-252.3" font-family="Times,serif" font-size="14.00">indx: 0x5f37d5ce58b0</text>
<polyline fill="none" stroke="#203d98" points="493,-244.5 681,-244.5 "/>
<text text-anchor="middle" x="587" y="-229.3" font-family="Times,serif" font-size="14.00">type: 3</text>
<polyline fill="none" stroke="#203d98" points="493,-221.5 681,-221.5 "/>
<text text-anchor="middle" x="587" y="-206.3" font-family="Times,serif" font-size="14.00">value: 0.00</text>
<polyline fill="none" stroke="#203d98" points="493,-198.5 681,-198.5 "/>
<text text-anchor="middle" x="587" y="-183.3" font-family="Times,serif" font-size="14.00">parent: 0x5f37d5ce57f0</text>
<polyline fill="none" stroke="#203d98" points="493,-175.5 681,-175.5 "/>
<text text-anchor="middle" x="537" y="-160.3" font-family="Times,serif" font-size="14.00">left: (nil)</text>
<polyline fill="none" stroke="#203d98" points="581,-152.5 581,-175.5 "/>
<text text-anchor="middle" x="631" y="-160.3" font-family="Times,serif" font-size="14.00">right: (nil)</text>
</g>
<!-- node0x5f37d5ce57f0&#45;&gt;node0x5f37d5ce58b0 -->
<g id="edge10" class="edge">
<title>node0x5f37d5ce57f0&#45;&gt;node0x5f37d5ce58b0</title>
<path fill="none" stroke="#203d98" d="M461.37,-304.29C474.91,-294.24 489.08,-283.71 502.82,-273.51"/>
<polygon fill="#203d98" stroke="#203d98" points="504.92,-276.31 510.86,-267.54 500.74,-270.69 504.92,-276.31"/>
</g>
<!-- node0x5f37d5ce5850 -->
<g id="node9" class="node">
<title>node0x5f37d5ce5850</title>
<path fill="#faaa82" stroke="#203d98" d="M111,-0.5C111,-0.5 279,-0.5 279,-0.5 285,-0.5 291,-6.5 291,-12.5 291,-12.5 291,-103.5 291,-103.5 291,-109.5 285,-115.5 279,-115.5 279,-115.5 111,-115.5 111,-115.5 105,-115.5 99,-109.5 99,-103.5 99,-103.5 99,-12.5 99,-12.5 99,-6.5 105,-0.5 111,-0.5"/>
<text text-anchor="middle" x="195" y="-100.3" font-family="Times,serif" font-size="14.00">indx: 0x5f37d5ce5850</text>
<polyline fill="none" stroke="#203d98" points="99,-92.5 291,-92.5 "/>
<text text-anchor="middle" x="195" y="-77.3" font-family="Times,serif" font-size="14.00">type: 3</text>
<polyline fill="none" stroke="#203d98" points="99,-69.5 291,-69.5 "/>
<text text-anchor="middle" x="195" y="-54.3" font-family="Times,serif" font-size="14.00">value: 5.00</text>
<polyline fill="none" stroke="#203d98" points="99,-46.5 291,-46.5 "/>
<text text-anchor="middle" x="195" y="-31.3" font-family="Times,serif" font-size="14.00">parent: 0x5f37d5ce5820</text>
<polyline fill="none" stroke="#203d98" points="99,-23.5 291,-23.5 "/>
<text text-anchor="middle" x="144" y="-8.3" font-family="Times,serif" font-size="14.00">left: (nil)</text>
<polyline fill="none" stroke="#203d98" points="189,-0.5 189,-23.5 "/>
<text text-anchor="middle" x="240" y="-8.3" font-family="Times,serif" font-size="14.00">right: (nil)</text>
</g>
<!-- node0x5f37d5ce5820&#45;&gt;node0x5f37d5ce5850 -->
<g id="edge8" class="edge">
<title>node0x5f37d5ce5820&#45;&gt;node0x5f37d5ce5850</title>
<path fill="none" stroke="#203d98" d="M260.3,-152.29C253.84,-143.05 247.09,-133.42 240.5,-124"/>
<polygon fill="#203d98" stroke="#203d98" points="243.35,-121.97 234.75,-115.79 237.62,-125.99 243.35,-121.97"/>
</g>
<!-- node0x5f37d5ce5880 -->
<g id="node10" class="node">
<title>node0x5f37d5ce5880</title>
<path fill="#a24892" stroke="#203d98" d="M321,-0.5C321,-0.5 489,-0.5 489,-0.5 495,-0.5 501,-6.5 501,-12.5 501,-12.5 501,-103.5 501,-103.5 501,-109.5 495,-115.5 489,-115.5 489,-115.5 321,-115.5 321,-115.5 315,-115.5 309,-109.5 309,-103.5 309,-103.5 309,-12.5 309,-12.5 309,-6.5 315,-0.5 321,-0.5"/>
<text text-anchor="middle" x="405" y="-100.3" font-family="Times,serif" font-size="14.00">indx: 0x5f37d5ce5880</text>
<polyline fill="none" stroke="#203d98" points="309,-92.5 501,-92.5 "/>
<text text-anchor="middle" x="405" y="-77.3" font-family="Times,serif" font-size="14.00">type: 2</text>
<polyline fill="none" stroke="#203d98" points="309,-69.5 501,-69.5 "/>
<text text-anchor="middle" x="405" y="-54.3" font-family="Times,serif" font-size="14.00">value: x</text>
<polyline fill="none" stroke="#203d98" points="309,-46.5 501,-46.5 "/>
<text text-anchor="middle" x="405" y="-31.3" font-family="Times,serif" font-size="14.00">parent: 0x5f37d5ce5820</text>
<polyline fill="none" stroke="#203d98" points="309,-23.5 501,-23.5 "/>
<text text-anchor="middle" x="354" y="-8.3" font-family="Times,serif" font-size="14.00">left: (nil)</text>
<polyline fill="none" stroke="#203d98" points="399,-0.5 399,-23.5 "/>
<text text-anchor="middle" x="450" y="-8.3" font-family="Times,serif" font-size="14.00">right: (nil)</text>
</g>
<!-- node0x5f37d5ce5820&#45;&gt;node0x5f37d5ce5880 -->
<g id="edge9" class="edge">
<title>node0x5f37d5ce5820&#45;&gt;node0x5f37d5ce5880</title>
<path fill="none" stroke="#203d98" d="M339.7,-152.29C346.16,-143.05 352.91,-133.42 359.5,-124"/>
<polygon fill="#203d98" stroke="#203d98" points="362.38,-125.99 365.25,-115.79 356.65,-121.97 362.38,-125.99"/>
</g>
<!-- node0x5f37d5ce5910 -->
<g id="node13" class="node">
<title>node0x5f37d5ce5910</title>
<path fill="#faaa82" stroke="#203d98" d="M627.5,-304.5C627.5,-304.5 794.5,-304.5 794.5,-304.5 800.5,-304.5 806.5,-310.5 806.5,-316.5 806.5,-316.5 806.5,-407.5 806.5,-407.5 806.5,-413.5 800.5,-419.5 794.5,-419.5 794.5,-419.5 627.5,-419.5 627.5,-419.5 621.5,-419.5 615.5,-413.5 615.5,-407.5 615.5,-407.5 615.5,-316.5 615.5,-316.5 615.5,-310.5 621.5,-304.5 627.5,-304.5"/>
<text text-anchor="middle" x="711" y="-404.3" font-family="Times,serif" font-size="14.00">indx: 0x5f37d5ce5910</text>
<polyline fill="none" stroke="#203d98" points="615.5,-396.5 806.5,-396.5 "/>
<text text-anchor="middle" x="711" y="-381.3" font-family="Times,serif" font-size="14.00">type: 3</text>
<polyline fill="none" stroke="#203d98" points="615.5,-373.5 806.5,-373.5 "/>
<text text-anchor="middle" x="711" y="-358.3" font-family="Times,serif" font-size="14.00">value: 12.00</text>
<polyline fill="none" stroke="#203d98" points="615.5,-350.5 806.5,-350.5 "/>
<text text-anchor="middle" x="711" y="-335.3" font-family="Times,serif" font-size="14.00">parent: 0x5f37d5ce58e0</text>
<polyline fill="none" stroke="#203d98" points="615.5,-327.5 806.5,-327.5 "/>
<text text-anchor="middle" x="660.5" y="-312.3" font-family="Times,serif" font-size="14.00">left: (nil)</text>
<polyline fill="none" stroke="#203d98" points="705.5,-304.5 705.5,-327.5 "/>
<text text-anchor="middle" x="756" y="-312.3" font-family="Times,serif" font-size="14.00">right: (nil)</text>
</g>
<!-- node0x5f37d5ce58e0&#45;&gt;node0x5f37d5ce5910 -->
<g id="edge12" class="edge">
<title>node0x5f37d5ce58e0&#45;&gt;node0x5f37d5ce5910</title>
<path fill="none" stroke="#203d98" d="M722.82,-456.29C721.72,-447.61 720.57,-438.58 719.45,-429.71"/>
<polygon fill="#203d98" stroke="#203d98" points="722.92,-429.27 718.19,-419.79 715.98,-430.15 722.92,-429.27"/>
</g>
<!-- node0x5f37d5ce5940 -->
<g id="node14" class="node">
<title>node0x5f37d5ce5940</title>
<path fill="#e07082" stroke="#203d98" d="M837,-304.5C837,-304.5 1161,-304.5 1161,-304.5 1167,-304.5 1173,-310.5 1173,-316.5 1173,-316.5 1173,-407.5 1173,-407.5 1173,-413.5 1167,-419.5 1161,-419.5 1161,-419.5 837,-419.5 837,-419.5 831,-419.5 825,-413.5 825,-407.5 825,-407.5 825,-316.5 825,-316.5 825,-310.5 831,-304.5 837,-304.5"/>
<text text-anchor="middle" x="999" y="-404.3" font-family="Times,serif" font-size="14.00">indx: 0x5f37d5ce5940</text>
<polyline fill="none" stroke="#203d98" points="825,-396.5 1173,-396.5 "/>
<text text-anchor="middle" x="999" y="-381.3" font-family="Times,serif" font-size="14.00">type: 1</text>
<polyline fill="none" stroke="#203d98" points="825,-373.5 1173,-373.5 "/>
<text text-anchor="middle" x="999" y="-358.3" font-family="Times,serif" font-size="14.00">value: ^</text>
<polyline fill="none" stroke="#203d98" points="825,-350.5 1173,-350.5 "/>
<text text-anchor="middle" x="999" y="-335.3" font-family="Times,serif" font-size="14.00">parent: 0x5f37d5ce58e0</text>
<polyline fill="none" stroke="#203d98" points="825,-327.5 1173,-327.5 "/>
<text text-anchor="middle" x="909.5" y="-312.3" font-family="Times,serif" font-size="14.00">left: 0x5f37d5ce5970</text>
<polyline fill="none" stroke="#203d98" points="994,-304.5 994,-327.5 "/>
<text text-anchor="middle" x="1083.5" y="-312.3" font-family="Times,serif" font-size="14.00">right: 0x5f37d5ce59a0</text>
</g>
<!-- node0x5f37d5ce58e0&#45;&gt;node0x5f37d5ce5940 -->
<g id="edge13" class="edge">
<title>node0x5f37d5ce58e0&#45;&gt;node0x5f37d5ce5940</title>
<path fill="none" stroke="#203d98" d="M831.7,-456.29C850.32,-445.91 869.84,-435.02 888.7,-424.51"/>
<polygon fill="#203d98" stroke="#203d98" points="890.58,-427.47 897.61,-419.54 887.17,-421.35 890.58,-427.47"/>
</g>
<!-- node0x5f37d5ce5970 -->
<g id="node15" class="node">
<title>node0x5f37d5ce5970</title>
<path fill="#a24892" stroke="#203d98" d="M790,-152.5C790,-152.5 958,-152.5 958,-152.5 964,-152.5 970,-158.5 970,-164.5 970,-164.5 970,-255.5 970,-255.5 970,-261.5 964,-267.5 958,-267.5 958,-267.5 790,-267.5 790,-267.5 784,-267.5 778,-261.5 778,-255.5 778,-255.5 778,-164.5 778,-164.5 778,-158.5 784,-152.5 790,-152.5"/>
<text text-anchor="middle" x="874" y="-252.3" font-family="Times,serif" font-size="14.00">indx: 0x5f37d5ce5970</text>
<polyline fill="none" stroke="#203d98" points="778,-244.5 970,-244.5 "/>
<text text-anchor="middle" x="874" y="-229.3" font-family="Times,serif" font-size="14.00">type: 2</text>
<polyline fill="none" stroke="#203d98" points="778,-221.5 970,-221.5 "/>
<text text-anchor="middle" x="874" y="-206.3" font-family="Times,serif" font-size="14.00">value: x</text>
<polyline fill="none" stroke="#203d98" points="778,-198.5 970,-198.5 "/>
<text text-anchor="middle" x="874" y="-183.3" font-family="Times,serif" font-size="14.00">parent: 0x5f37d5ce5940</text>
<polyline fill="none" stroke="#203d98" points="778,-175.5 970,-175.5 "/>
<text text-anchor="middle" x="823" y="-160.3" font-family="Times,serif" font-size="14.00">left: (nil)</text>
<polyline fill="none" stroke="#203d98" points="868,-152.5 868,-175.5 "/>
<text text-anchor="middle" x="919" y="-160.3" font-family="Times,serif" font-size="14.00">right: (nil)</text>
</g>
<!-- node0x5f37d5ce5940&#45;&gt;node0x5f37d5ce5970 -->
<g id="edge14" class="edge">
<title>node0x5f37d5ce5940&#45;&gt;node0x5f37d5ce5970</title>
<path fill="none" stroke="#203d98" d="M951.74,-304.29C943.97,-294.96 935.85,-285.22 927.93,-275.71"/>
<polygon fill="#203d98" stroke="#203d98" points="930.41,-273.23 921.32,-267.79 925.04,-277.71 930.41,-273.23"/>
</g>
<!-- node0x5f37d5ce59a0 -->
<g id="node16" class="node">
<title>node0x5f37d5ce59a0</title>
<path fill="#faaa82" stroke="#203d98" d="M1000,-152.5C1000,-152.5 1168,-152.5 1168,-152.5 1174,-152.5 1180,-158.5 1180,-164.5 1180,-164.5 1180,-255.5 1180,-255.5 1180,-261.5 1174,-267.5 1168,-267.5 1168,-267.5 1000,-267.5 1000,-267.5 994,-267.5 988,-261.5 988,-255.5 988,-255.5 988,-164.5 988,-164.5 988,-158.5 994,-152.5 1000,-152.5"/>
<text text-anchor="middle" x="1084" y="-252.3" font-family="Times,serif" font-size="14.00">indx: 0x5f37d5ce59a0</text>
<polyline fill="none" stroke="#203d98" points="988,-244.5 1180,-244.5 "/>
<text text-anchor="middle" x="1084" y="-229.3" font-family="Times,serif" font-size="14.00">type: 3</text>
<polyline fill="none" stroke="#203d98" points="988,-221.5 1180,-221.5 "/>
<text text-anchor="middle" x="1084" y="-206.3" font-family="Times,serif" font-size="14.00">value: 2.00</text>
<polyline fill="none" stroke="#203d98" points="988,-198.5 1180,-198.5 "/>
<text text-anchor="middle" x="1084" y="-183.3" font-family="Times,serif" font-size="14.00">parent: 0x5f37d5ce5940</text>
<polyline fill="none" stroke="#203d98" points="988,-175.5 1180,-175.5 "/>
<text text-anchor="middle" x="1033" y="-160.3" font-family="Times,serif" font-size="14.00">left: (nil)</text>
<polyline fill="none" stroke="#203d98" points="1078,-152.5 1078,-175.5 "/>
<text text-anchor="middle" x="1129" y="-160.3" font-family="Times,serif" font-size="14.00">right: (nil)</text>
</g>
<!-- node0x5f37d5ce5940&#45;&gt;node0x5f37d5ce59a0 -->
<g id="edge15" class="edge">
<title>node0x5f37d5ce5940&#45;&gt;node0x5f37d5ce59a0</title>
<path fill="none" stroke="#203d98" d="M1031.13,-304.29C1036.27,-295.24 1041.61,-285.81 1046.84,-276.57"/>
<polygon fill="#203d98" stroke="#203d98" points="1049.93,-278.21 1051.82,-267.79 1043.84,-274.76 1049.93,-278.21"/>
</g>
</g>
</svg>
