<?xml version="1.0" encoding="UTF-8" standalone="no"?>
<!DOCTYPE svg PUBLIC "-//W3C//DTD SVG 1.1//EN"
 "http://www.w3.org/Graphics/SVG/1.1/DTD/svg11.dtd">
<!-- Generated by graphviz version 2.43.0 (0)
 -->
<!-- Title: Tree Pages: 1 -->
<svg width="932pt" height="1036pt"
 viewBox="0.00 0.00 932.00 1036.00" xmlns="http://www.w3.org/2000/svg" xmlns:xlink="http://www.w3.org/1999/xlink">
<g id="graph0" class="graph" transform="scale(1 1) rotate(0) translate(4 1032)">
<title>Tree</title>
<polygon fill="#ffe7a5" stroke="transparent" points="-4,4 -4,-1032 928,-1032 928,4 -4,4"/>
<!-- node0x5e0cbe3576e0 -->
<g id="node1" class="node">
<title>node0x5e0cbe3576e0</title>
<path fill="#e07082" stroke="#203d98" d="M514.5,-912.5C514.5,-912.5 845.5,-912.5 845.5,-912.5 851.5,-912.5 857.5,-918.5 857.5,-924.5 857.5,-924.5 857.5,-1015.5 857.5,-1015.5 857.5,-1021.5 851.5,-1027.5 845.5,-1027.5 845.5,-1027.5 514.5,-1027.5 514.5,-1027.5 508.5,-1027.5 502.5,-1021.5 502.5,-1015.5 502.5,-1015.5 502.5,-924.5 502.5,-924.5 502.5,-918.5 508.5,-912.5 514.5,-912.5"/>
<text text-anchor="middle" x="680" y="-1012.3" font-family="Times,serif" font-size="14.00">indx: 0x5e0cbe3576e0</text>
<polyline fill="none" stroke="#203d98" points="502.5,-1004.5 857.5,-1004.5 "/>
<text text-anchor="middle" x="680" y="-989.3" font-family="Times,serif" font-size="14.00">type: 1</text>
<polyline fill="none" stroke="#203d98" points="502.5,-981.5 857.5,-981.5 "/>
<text text-anchor="middle" x="680" y="-966.3" font-family="Times,serif" font-size="14.00">value: *</text>
<polyline fill="none" stroke="#203d98" points="502.5,-958.5 857.5,-958.5 "/>
<text text-anchor="middle" x="680" y="-943.3" font-family="Times,serif" font-size="14.00">parent: (nil)</text>
<polyline fill="none" stroke="#203d98" points="502.5,-935.5 857.5,-935.5 "/>
<text text-anchor="middle" x="588.5" y="-920.3" font-family="Times,serif" font-size="14.00">left: 0x5e0cbe357680</text>
<polyline fill="none" stroke="#203d98" points="674.5,-912.5 674.5,-935.5 "/>
<text text-anchor="middle" x="766" y="-920.3" font-family="Times,serif" font-size="14.00">right: 0x5e0cbe3576b0</text>
</g>
<!-- node0x5e0cbe357680 -->
<g id="node2" class="node">
<title>node0x5e0cbe357680</title>
<path fill="#e07082" stroke="#203d98" d="M368.5,-760.5C368.5,-760.5 699.5,-760.5 699.5,-760.5 705.5,-760.5 711.5,-766.5 711.5,-772.5 711.5,-772.5 711.5,-863.5 711.5,-863.5 711.5,-869.5 705.5,-875.5 699.5,-875.5 699.5,-875.5 368.5,-875.5 368.5,-875.5 362.5,-875.5 356.5,-869.5 356.5,-863.5 356.5,-863.5 356.5,-772.5 356.5,-772.5 356.5,-766.5 362.5,-760.5 368.5,-760.5"/>
<text text-anchor="middle" x="534" y="-860.3" font-family="Times,serif" font-size="14.00">indx: 0x5e0cbe357680</text>
<polyline fill="none" stroke="#203d98" points="356.5,-852.5 711.5,-852.5 "/>
<text text-anchor="middle" x="534" y="-837.3" font-family="Times,serif" font-size="14.00">type: 1</text>
<polyline fill="none" stroke="#203d98" points="356.5,-829.5 711.5,-829.5 "/>
<text text-anchor="middle" x="534" y="-814.3" font-family="Times,serif" font-size="14.00">value: +</text>
<polyline fill="none" stroke="#203d98" points="356.5,-806.5 711.5,-806.5 "/>
<text text-anchor="middle" x="534" y="-791.3" font-family="Times,serif" font-size="14.00">parent: 0x5e0cbe3576e0</text>
<polyline fill="none" stroke="#203d98" points="356.5,-783.5 711.5,-783.5 "/>
<text text-anchor="middle" x="442.5" y="-768.3" font-family="Times,serif" font-size="14.00">left: 0x5e0cbe357620</text>
<polyline fill="none" stroke="#203d98" points="528.5,-760.5 528.5,-783.5 "/>
<text text-anchor="middle" x="620" y="-768.3" font-family="Times,serif" font-size="14.00">right: 0x5e0cbe357650</text>
</g>
<!-- node0x5e0cbe3576e0&#45;&gt;node0x5e0cbe357680 -->
<g id="edge1" class="edge">
<title>node0x5e0cbe3576e0&#45;&gt;node0x5e0cbe357680</title>
<path fill="none" stroke="#203d98" d="M624.8,-912.29C615.54,-902.77 605.86,-892.83 596.43,-883.14"/>
<polygon fill="#203d98" stroke="#203d98" points="598.76,-880.51 589.27,-875.79 593.74,-885.4 598.76,-880.51"/>
</g>
<!-- node0x5e0cbe3576b0 -->
<g id="node13" class="node">
<title>node0x5e0cbe3576b0</title>
<path fill="#faaa82" stroke="#203d98" d="M742,-760.5C742,-760.5 912,-760.5 912,-760.5 918,-760.5 924,-766.5 924,-772.5 924,-772.5 924,-863.5 924,-863.5 924,-869.5 918,-875.5 912,-875.5 912,-875.5 742,-875.5 742,-875.5 736,-875.5 730,-869.5 730,-863.5 730,-863.5 730,-772.5 730,-772.5 730,-766.5 736,-760.5 742,-760.5"/>
<text text-anchor="middle" x="827" y="-860.3" font-family="Times,serif" font-size="14.00">indx: 0x5e0cbe3576b0</text>
<polyline fill="none" stroke="#203d98" points="730,-852.5 924,-852.5 "/>
<text text-anchor="middle" x="827" y="-837.3" font-family="Times,serif" font-size="14.00">type: 3</text>
<polyline fill="none" stroke="#203d98" points="730,-829.5 924,-829.5 "/>
<text text-anchor="middle" x="827" y="-814.3" font-family="Times,serif" font-size="14.00">value: 10.80</text>
<polyline fill="none" stroke="#203d98" points="730,-806.5 924,-806.5 "/>
<text text-anchor="middle" x="827" y="-791.3" font-family="Times,serif" font-size="14.00">parent: 0x5e0cbe3576e0</text>
<polyline fill="none" stroke="#203d98" points="730,-783.5 924,-783.5 "/>
<text text-anchor="middle" x="775.5" y="-768.3" font-family="Times,serif" font-size="14.00">left: (nil)</text>
<polyline fill="none" stroke="#203d98" points="821,-760.5 821,-783.5 "/>
<text text-anchor="middle" x="872.5" y="-768.3" font-family="Times,serif" font-size="14.00">right: (nil)</text>
</g>
<!-- node0x5e0cbe3576e0&#45;&gt;node0x5e0cbe3576b0 -->
<g id="edge12" class="edge">
<title>node0x5e0cbe3576e0&#45;&gt;node0x5e0cbe3576b0</title>
<path fill="none" stroke="#203d98" d="M735.57,-912.29C744.9,-902.77 754.64,-892.83 764.14,-883.14"/>
<polygon fill="#203d98" stroke="#203d98" points="766.85,-885.38 771.35,-875.79 761.85,-880.48 766.85,-885.38"/>
</g>
<!-- node0x5e0cbe357620 -->
<g id="node3" class="node">
<title>node0x5e0cbe357620</title>
<path fill="#e07082" stroke="#203d98" d="M226.5,-608.5C226.5,-608.5 551.5,-608.5 551.5,-608.5 557.5,-608.5 563.5,-614.5 563.5,-620.5 563.5,-620.5 563.5,-711.5 563.5,-711.5 563.5,-717.5 557.5,-723.5 551.5,-723.5 551.5,-723.5 226.5,-723.5 226.5,-723.5 220.5,-723.5 214.5,-717.5 214.5,-711.5 214.5,-711.5 214.5,-620.5 214.5,-620.5 214.5,-614.5 220.5,-608.5 226.5,-608.5"/>
<text text-anchor="middle" x="389" y="-708.3" font-family="Times,serif" font-size="14.00">indx: 0x5e0cbe357620</text>
<polyline fill="none" stroke="#203d98" points="214.5,-700.5 563.5,-700.5 "/>
<text text-anchor="middle" x="389" y="-685.3" font-family="Times,serif" font-size="14.00">type: 1</text>
<polyline fill="none" stroke="#203d98" points="214.5,-677.5 563.5,-677.5 "/>
<text text-anchor="middle" x="389" y="-662.3" font-family="Times,serif" font-size="14.00">value: &#45;</text>
<polyline fill="none" stroke="#203d98" points="214.5,-654.5 563.5,-654.5 "/>
<text text-anchor="middle" x="389" y="-639.3" font-family="Times,serif" font-size="14.00">parent: 0x5e0cbe357680</text>
<polyline fill="none" stroke="#203d98" points="214.5,-631.5 563.5,-631.5 "/>
<text text-anchor="middle" x="299.5" y="-616.3" font-family="Times,serif" font-size="14.00">left: 0x5e0cbe3575c0</text>
<polyline fill="none" stroke="#203d98" points="384.5,-608.5 384.5,-631.5 "/>
<text text-anchor="middle" x="474" y="-616.3" font-family="Times,serif" font-size="14.00">right: 0x5e0cbe3575f0</text>
</g>
<!-- node0x5e0cbe357680&#45;&gt;node0x5e0cbe357620 -->
<g id="edge2" class="edge">
<title>node0x5e0cbe357680&#45;&gt;node0x5e0cbe357620</title>
<path fill="none" stroke="#203d98" d="M479.18,-760.29C469.98,-750.77 460.37,-740.83 451,-731.14"/>
<polygon fill="#203d98" stroke="#203d98" points="453.36,-728.55 443.9,-723.79 448.33,-733.41 453.36,-728.55"/>
</g>
<!-- node0x5e0cbe357650 -->
<g id="node12" class="node">
<title>node0x5e0cbe357650</title>
<path fill="#faaa82" stroke="#203d98" d="M593.5,-608.5C593.5,-608.5 764.5,-608.5 764.5,-608.5 770.5,-608.5 776.5,-614.5 776.5,-620.5 776.5,-620.5 776.5,-711.5 776.5,-711.5 776.5,-717.5 770.5,-723.5 764.5,-723.5 764.5,-723.5 593.5,-723.5 593.5,-723.5 587.5,-723.5 581.5,-717.5 581.5,-711.5 581.5,-711.5 581.5,-620.5 581.5,-620.5 581.5,-614.5 587.5,-608.5 593.5,-608.5"/>
<text text-anchor="middle" x="679" y="-708.3" font-family="Times,serif" font-size="14.00">indx: 0x5e0cbe357650</text>
<polyline fill="none" stroke="#203d98" points="581.5,-700.5 776.5,-700.5 "/>
<text text-anchor="middle" x="679" y="-685.3" font-family="Times,serif" font-size="14.00">type: 3</text>
<polyline fill="none" stroke="#203d98" points="581.5,-677.5 776.5,-677.5 "/>
<text text-anchor="middle" x="679" y="-662.3" font-family="Times,serif" font-size="14.00">value: 9.00</text>
<polyline fill="none" stroke="#203d98" points="581.5,-654.5 776.5,-654.5 "/>
<text text-anchor="middle" x="679" y="-639.3" font-family="Times,serif" font-size="14.00">parent: 0x5e0cbe357680</text>
<polyline fill="none" stroke="#203d98" points="581.5,-631.5 776.5,-631.5 "/>
<text text-anchor="middle" x="627.5" y="-616.3" font-family="Times,serif" font-size="14.00">left: (nil)</text>
<polyline fill="none" stroke="#203d98" points="673.5,-608.5 673.5,-631.5 "/>
<text text-anchor="middle" x="725" y="-616.3" font-family="Times,serif" font-size="14.00">right: (nil)</text>
</g>
<!-- node0x5e0cbe357680&#45;&gt;node0x5e0cbe357650 -->
<g id="edge11" class="edge">
<title>node0x5e0cbe357680&#45;&gt;node0x5e0cbe357650</title>
<path fill="none" stroke="#203d98" d="M588.82,-760.29C598.02,-750.77 607.63,-740.83 617,-731.14"/>
<polygon fill="#203d98" stroke="#203d98" points="619.67,-733.41 624.1,-723.79 614.64,-728.55 619.67,-733.41"/>
</g>
<!-- node0x5e0cbe3575c0 -->
<g id="node4" class="node">
<title>node0x5e0cbe3575c0</title>
<path fill="#e07082" stroke="#203d98" d="M78,-456.5C78,-456.5 408,-456.5 408,-456.5 414,-456.5 420,-462.5 420,-468.5 420,-468.5 420,-559.5 420,-559.5 420,-565.5 414,-571.5 408,-571.5 408,-571.5 78,-571.5 78,-571.5 72,-571.5 66,-565.5 66,-559.5 66,-559.5 66,-468.5 66,-468.5 66,-462.5 72,-456.5 78,-456.5"/>
<text text-anchor="middle" x="243" y="-556.3" font-family="Times,serif" font-size="14.00">indx: 0x5e0cbe3575c0</text>
<polyline fill="none" stroke="#203d98" points="66,-548.5 420,-548.5 "/>
<text text-anchor="middle" x="243" y="-533.3" font-family="Times,serif" font-size="14.00">type: 1</text>
<polyline fill="none" stroke="#203d98" points="66,-525.5 420,-525.5 "/>
<text text-anchor="middle" x="243" y="-510.3" font-family="Times,serif" font-size="14.00">value: +</text>
<polyline fill="none" stroke="#203d98" points="66,-502.5 420,-502.5 "/>
<text text-anchor="middle" x="243" y="-487.3" font-family="Times,serif" font-size="14.00">parent: 0x5e0cbe357620</text>
<polyline fill="none" stroke="#203d98" points="66,-479.5 420,-479.5 "/>
<text text-anchor="middle" x="151.5" y="-464.3" font-family="Times,serif" font-size="14.00">left: 0x5e0cbe3574a0</text>
<polyline fill="none" stroke="#203d98" points="237,-456.5 237,-479.5 "/>
<text text-anchor="middle" x="328.5" y="-464.3" font-family="Times,serif" font-size="14.00">right: 0x5e0cbe357590</text>
</g>
<!-- node0x5e0cbe357620&#45;&gt;node0x5e0cbe3575c0 -->
<g id="edge3" class="edge">
<title>node0x5e0cbe357620&#45;&gt;node0x5e0cbe3575c0</title>
<path fill="none" stroke="#203d98" d="M333.8,-608.29C324.54,-598.77 314.86,-588.83 305.43,-579.14"/>
<polygon fill="#203d98" stroke="#203d98" points="307.76,-576.51 298.27,-571.79 302.74,-581.4 307.76,-576.51"/>
</g>
<!-- node0x5e0cbe3575f0 -->
<g id="node11" class="node">
<title>node0x5e0cbe3575f0</title>
<path fill="#faaa82" stroke="#203d98" d="M449.5,-456.5C449.5,-456.5 620.5,-456.5 620.5,-456.5 626.5,-456.5 632.5,-462.5 632.5,-468.5 632.5,-468.5 632.5,-559.5 632.5,-559.5 632.5,-565.5 626.5,-571.5 620.5,-571.5 620.5,-571.5 449.5,-571.5 449.5,-571.5 443.5,-571.5 437.5,-565.5 437.5,-559.5 437.5,-559.5 437.5,-468.5 437.5,-468.5 437.5,-462.5 443.5,-456.5 449.5,-456.5"/>
<text text-anchor="middle" x="535" y="-556.3" font-family="Times,serif" font-size="14.00">indx: 0x5e0cbe3575f0</text>
<polyline fill="none" stroke="#203d98" points="437.5,-548.5 632.5,-548.5 "/>
<text text-anchor="middle" x="535" y="-533.3" font-family="Times,serif" font-size="14.00">type: 3</text>
<polyline fill="none" stroke="#203d98" points="437.5,-525.5 632.5,-525.5 "/>
<text text-anchor="middle" x="535" y="-510.3" font-family="Times,serif" font-size="14.00">value: 8.00</text>
<polyline fill="none" stroke="#203d98" points="437.5,-502.5 632.5,-502.5 "/>
<text text-anchor="middle" x="535" y="-487.3" font-family="Times,serif" font-size="14.00">parent: 0x5e0cbe357620</text>
<polyline fill="none" stroke="#203d98" points="437.5,-479.5 632.5,-479.5 "/>
<text text-anchor="middle" x="483.5" y="-464.3" font-family="Times,serif" font-size="14.00">left: (nil)</text>
<polyline fill="none" stroke="#203d98" points="529.5,-456.5 529.5,-479.5 "/>
<text text-anchor="middle" x="581" y="-464.3" font-family="Times,serif" font-size="14.00">right: (nil)</text>
</g>
<!-- node0x5e0cbe357620&#45;&gt;node0x5e0cbe3575f0 -->
<g id="edge10" class="edge">
<title>node0x5e0cbe357620&#45;&gt;node0x5e0cbe3575f0</title>
<path fill="none" stroke="#203d98" d="M444.2,-608.29C453.46,-598.77 463.14,-588.83 472.57,-579.14"/>
<polygon fill="#203d98" stroke="#203d98" points="475.26,-581.4 479.73,-571.79 470.24,-576.51 475.26,-581.4"/>
</g>
<!-- node0x5e0cbe3574a0 -->
<g id="node5" class="node">
<title>node0x5e0cbe3574a0</title>
<path fill="#faaa82" stroke="#203d98" d="M12,-304.5C12,-304.5 182,-304.5 182,-304.5 188,-304.5 194,-310.5 194,-316.5 194,-316.5 194,-407.5 194,-407.5 194,-413.5 188,-419.5 182,-419.5 182,-419.5 12,-419.5 12,-419.5 6,-419.5 0,-413.5 0,-407.5 0,-407.5 0,-316.5 0,-316.5 0,-310.5 6,-304.5 12,-304.5"/>
<text text-anchor="middle" x="97" y="-404.3" font-family="Times,serif" font-size="14.00">indx: 0x5e0cbe3574a0</text>
<polyline fill="none" stroke="#203d98" points="0,-396.5 194,-396.5 "/>
<text text-anchor="middle" x="97" y="-381.3" font-family="Times,serif" font-size="14.00">type: 3</text>
<polyline fill="none" stroke="#203d98" points="0,-373.5 194,-373.5 "/>
<text text-anchor="middle" x="97" y="-358.3" font-family="Times,serif" font-size="14.00">value: 7.00</text>
<polyline fill="none" stroke="#203d98" points="0,-350.5 194,-350.5 "/>
<text text-anchor="middle" x="97" y="-335.3" font-family="Times,serif" font-size="14.00">parent: 0x5e0cbe3575c0</text>
<polyline fill="none" stroke="#203d98" points="0,-327.5 194,-327.5 "/>
<text text-anchor="middle" x="45.5" y="-312.3" font-family="Times,serif" font-size="14.00">left: (nil)</text>
<polyline fill="none" stroke="#203d98" points="91,-304.5 91,-327.5 "/>
<text text-anchor="middle" x="142.5" y="-312.3" font-family="Times,serif" font-size="14.00">right: (nil)</text>
</g>
<!-- node0x5e0cbe3575c0&#45;&gt;node0x5e0cbe3574a0 -->
<g id="edge4" class="edge">
<title>node0x5e0cbe3575c0&#45;&gt;node0x5e0cbe3574a0</title>
<path fill="none" stroke="#203d98" d="M187.8,-456.29C178.54,-446.77 168.86,-436.83 159.43,-427.14"/>
<polygon fill="#203d98" stroke="#203d98" points="161.76,-424.51 152.27,-419.79 156.74,-429.4 161.76,-424.51"/>
</g>
<!-- node0x5e0cbe357590 -->
<g id="node6" class="node">
<title>node0x5e0cbe357590</title>
<path fill="#e07082" stroke="#203d98" d="M224.5,-304.5C224.5,-304.5 555.5,-304.5 555.5,-304.5 561.5,-304.5 567.5,-310.5 567.5,-316.5 567.5,-316.5 567.5,-407.5 567.5,-407.5 567.5,-413.5 561.5,-419.5 555.5,-419.5 555.5,-419.5 224.5,-419.5 224.5,-419.5 218.5,-419.5 212.5,-413.5 212.5,-407.5 212.5,-407.5 212.5,-316.5 212.5,-316.5 212.5,-310.5 218.5,-304.5 224.5,-304.5"/>
<text text-anchor="middle" x="390" y="-404.3" font-family="Times,serif" font-size="14.00">indx: 0x5e0cbe357590</text>
<polyline fill="none" stroke="#203d98" points="212.5,-396.5 567.5,-396.5 "/>
<text text-anchor="middle" x="390" y="-381.3" font-family="Times,serif" font-size="14.00">type: 1</text>
<polyline fill="none" stroke="#203d98" points="212.5,-373.5 567.5,-373.5 "/>
<text text-anchor="middle" x="390" y="-358.3" font-family="Times,serif" font-size="14.00">value: *</text>
<polyline fill="none" stroke="#203d98" points="212.5,-350.5 567.5,-350.5 "/>
<text text-anchor="middle" x="390" y="-335.3" font-family="Times,serif" font-size="14.00">parent: 0x5e0cbe3575c0</text>
<polyline fill="none" stroke="#203d98" points="212.5,-327.5 567.5,-327.5 "/>
<text text-anchor="middle" x="298.5" y="-312.3" font-family="Times,serif" font-size="14.00">left: 0x5e0cbe357530</text>
<polyline fill="none" stroke="#203d98" points="384.5,-304.5 384.5,-327.5 "/>
<text text-anchor="middle" x="476" y="-312.3" font-family="Times,serif" font-size="14.00">right: 0x5e0cbe357560</text>
</g>
<!-- node0x5e0cbe3575c0&#45;&gt;node0x5e0cbe357590 -->
<g id="edge5" class="edge">
<title>node0x5e0cbe3575c0&#45;&gt;node0x5e0cbe357590</title>
<path fill="none" stroke="#203d98" d="M298.57,-456.29C307.9,-446.77 317.64,-436.83 327.14,-427.14"/>
<polygon fill="#203d98" stroke="#203d98" points="329.85,-429.38 334.35,-419.79 324.85,-424.48 329.85,-429.38"/>
</g>
<!-- node0x5e0cbe357530 -->
<g id="node7" class="node">
<title>node0x5e0cbe357530</title>
<path fill="#e07082" stroke="#203d98" d="M77.5,-152.5C77.5,-152.5 408.5,-152.5 408.5,-152.5 414.5,-152.5 420.5,-158.5 420.5,-164.5 420.5,-164.5 420.5,-255.5 420.5,-255.5 420.5,-261.5 414.5,-267.5 408.5,-267.5 408.5,-267.5 77.5,-267.5 77.5,-267.5 71.5,-267.5 65.5,-261.5 65.5,-255.5 65.5,-255.5 65.5,-164.5 65.5,-164.5 65.5,-158.5 71.5,-152.5 77.5,-152.5"/>
<text text-anchor="middle" x="243" y="-252.3" font-family="Times,serif" font-size="14.00">indx: 0x5e0cbe357530</text>
<polyline fill="none" stroke="#203d98" points="65.5,-244.5 420.5,-244.5 "/>
<text text-anchor="middle" x="243" y="-229.3" font-family="Times,serif" font-size="14.00">type: 1</text>
<polyline fill="none" stroke="#203d98" points="65.5,-221.5 420.5,-221.5 "/>
<text text-anchor="middle" x="243" y="-206.3" font-family="Times,serif" font-size="14.00">value: ^</text>
<polyline fill="none" stroke="#203d98" points="65.5,-198.5 420.5,-198.5 "/>
<text text-anchor="middle" x="243" y="-183.3" font-family="Times,serif" font-size="14.00">parent: 0x5e0cbe357590</text>
<polyline fill="none" stroke="#203d98" points="65.5,-175.5 420.5,-175.5 "/>
<text text-anchor="middle" x="151.5" y="-160.3" font-family="Times,serif" font-size="14.00">left: 0x5e0cbe3574d0</text>
<polyline fill="none" stroke="#203d98" points="237.5,-152.5 237.5,-175.5 "/>
<text text-anchor="middle" x="329" y="-160.3" font-family="Times,serif" font-size="14.00">right: 0x5e0cbe357500</text>
</g>
<!-- node0x5e0cbe357590&#45;&gt;node0x5e0cbe357530 -->
<g id="edge6" class="edge">
<title>node0x5e0cbe357590&#45;&gt;node0x5e0cbe357530</title>
<path fill="none" stroke="#203d98" d="M334.43,-304.29C325.1,-294.77 315.36,-284.83 305.86,-275.14"/>
<polygon fill="#203d98" stroke="#203d98" points="308.15,-272.48 298.65,-267.79 303.15,-277.38 308.15,-272.48"/>
</g>
<!-- node0x5e0cbe357560 -->
<g id="node10" class="node">
<title>node0x5e0cbe357560</title>
<path fill="#faaa82" stroke="#203d98" d="M450.5,-152.5C450.5,-152.5 621.5,-152.5 621.5,-152.5 627.5,-152.5 633.5,-158.5 633.5,-164.5 633.5,-164.5 633.5,-255.5 633.5,-255.5 633.5,-261.5 627.5,-267.5 621.5,-267.5 621.5,-267.5 450.5,-267.5 450.5,-267.5 444.5,-267.5 438.5,-261.5 438.5,-255.5 438.5,-255.5 438.5,-164.5 438.5,-164.5 438.5,-158.5 444.5,-152.5 450.5,-152.5"/>
<text text-anchor="middle" x="536" y="-252.3" font-family="Times,serif" font-size="14.00">indx: 0x5e0cbe357560</text>
<polyline fill="none" stroke="#203d98" points="438.5,-244.5 633.5,-244.5 "/>
<text text-anchor="middle" x="536" y="-229.3" font-family="Times,serif" font-size="14.00">type: 3</text>
<polyline fill="none" stroke="#203d98" points="438.5,-221.5 633.5,-221.5 "/>
<text text-anchor="middle" x="536" y="-206.3" font-family="Times,serif" font-size="14.00">value: 89.00</text>
<polyline fill="none" stroke="#203d98" points="438.5,-198.5 633.5,-198.5 "/>
<text text-anchor="middle" x="536" y="-183.3" font-family="Times,serif" font-size="14.00">parent: 0x5e0cbe357590</text>
<polyline fill="none" stroke="#203d98" points="438.5,-175.5 633.5,-175.5 "/>
<text text-anchor="middle" x="484.5" y="-160.3" font-family="Times,serif" font-size="14.00">left: (nil)</text>
<polyline fill="none" stroke="#203d98" points="530.5,-152.5 530.5,-175.5 "/>
<text text-anchor="middle" x="582" y="-160.3" font-family="Times,serif" font-size="14.00">right: (nil)</text>
</g>
<!-- node0x5e0cbe357590&#45;&gt;node0x5e0cbe357560 -->
<g id="edge9" class="edge">
<title>node0x5e0cbe357590&#45;&gt;node0x5e0cbe357560</title>
<path fill="none" stroke="#203d98" d="M445.2,-304.29C454.46,-294.77 464.14,-284.83 473.57,-275.14"/>
<polygon fill="#203d98" stroke="#203d98" points="476.26,-277.4 480.73,-267.79 471.24,-272.51 476.26,-277.4"/>
</g>
<!-- node0x5e0cbe3574d0 -->
<g id="node8" class="node">
<title>node0x5e0cbe3574d0</title>
<path fill="#a24892" stroke="#203d98" d="M51.5,-0.5C51.5,-0.5 222.5,-0.5 222.5,-0.5 228.5,-0.5 234.5,-6.5 234.5,-12.5 234.5,-12.5 234.5,-103.5 234.5,-103.5 234.5,-109.5 228.5,-115.5 222.5,-115.5 222.5,-115.5 51.5,-115.5 51.5,-115.5 45.5,-115.5 39.5,-109.5 39.5,-103.5 39.5,-103.5 39.5,-12.5 39.5,-12.5 39.5,-6.5 45.5,-0.5 51.5,-0.5"/>
<text text-anchor="middle" x="137" y="-100.3" font-family="Times,serif" font-size="14.00">indx: 0x5e0cbe3574d0</text>
<polyline fill="none" stroke="#203d98" points="39.5,-92.5 234.5,-92.5 "/>
<text text-anchor="middle" x="137" y="-77.3" font-family="Times,serif" font-size="14.00">type: 2</text>
<polyline fill="none" stroke="#203d98" points="39.5,-69.5 234.5,-69.5 "/>
<text text-anchor="middle" x="137" y="-54.3" font-family="Times,serif" font-size="14.00">value: x</text>
<polyline fill="none" stroke="#203d98" points="39.5,-46.5 234.5,-46.5 "/>
<text text-anchor="middle" x="137" y="-31.3" font-family="Times,serif" font-size="14.00">parent: 0x5e0cbe357530</text>
<polyline fill="none" stroke="#203d98" points="39.5,-23.5 234.5,-23.5 "/>
<text text-anchor="middle" x="85.5" y="-8.3" font-family="Times,serif" font-size="14.00">left: (nil)</text>
<polyline fill="none" stroke="#203d98" points="131.5,-0.5 131.5,-23.5 "/>
<text text-anchor="middle" x="183" y="-8.3" font-family="Times,serif" font-size="14.00">right: (nil)</text>
</g>
<!-- node0x5e0cbe357530&#45;&gt;node0x5e0cbe3574d0 -->
<g id="edge7" class="edge">
<title>node0x5e0cbe357530&#45;&gt;node0x5e0cbe3574d0</title>
<path fill="none" stroke="#203d98" d="M202.93,-152.29C196.4,-143.05 189.59,-133.42 182.93,-124"/>
<polygon fill="#203d98" stroke="#203d98" points="185.76,-121.94 177.13,-115.79 180.04,-125.98 185.76,-121.94"/>
</g>
<!-- node0x5e0cbe357500 -->
<g id="node9" class="node">
<title>node0x5e0cbe357500</title>
<path fill="#faaa82" stroke="#203d98" d="M264.5,-0.5C264.5,-0.5 435.5,-0.5 435.5,-0.5 441.5,-0.5 447.5,-6.5 447.5,-12.5 447.5,-12.5 447.5,-103.5 447.5,-103.5 447.5,-109.5 441.5,-115.5 435.5,-115.5 435.5,-115.5 264.5,-115.5 264.5,-115.5 258.5,-115.5 252.5,-109.5 252.5,-103.5 252.5,-103.5 252.5,-12.5 252.5,-12.5 252.5,-6.5 258.5,-0.5 264.5,-0.5"/>
<text text-anchor="middle" x="350" y="-100.3" font-family="Times,serif" font-size="14.00">indx: 0x5e0cbe357500</text>
<polyline fill="none" stroke="#203d98" points="252.5,-92.5 447.5,-92.5 "/>
<text text-anchor="middle" x="350" y="-77.3" font-family="Times,serif" font-size="14.00">type: 3</text>
<polyline fill="none" stroke="#203d98" points="252.5,-69.5 447.5,-69.5 "/>
<text text-anchor="middle" x="350" y="-54.3" font-family="Times,serif" font-size="14.00">value: 9.00</text>
<polyline fill="none" stroke="#203d98" points="252.5,-46.5 447.5,-46.5 "/>
<text text-anchor="middle" x="350" y="-31.3" font-family="Times,serif" font-size="14.00">parent: 0x5e0cbe357530</text>
<polyline fill="none" stroke="#203d98" points="252.5,-23.5 447.5,-23.5 "/>
<text text-anchor="middle" x="298.5" y="-8.3" font-family="Times,serif" font-size="14.00">left: (nil)</text>
<polyline fill="none" stroke="#203d98" points="344.5,-0.5 344.5,-23.5 "/>
<text text-anchor="middle" x="396" y="-8.3" font-family="Times,serif" font-size="14.00">right: (nil)</text>
</g>
<!-- node0x5e0cbe357530&#45;&gt;node0x5e0cbe357500 -->
<g id="edge8" class="edge">
<title>node0x5e0cbe357530&#45;&gt;node0x5e0cbe357500</title>
<path fill="none" stroke="#203d98" d="M283.45,-152.29C290.04,-143.05 296.92,-133.42 303.64,-124"/>
<polygon fill="#203d98" stroke="#203d98" points="306.53,-125.96 309.49,-115.79 300.83,-121.9 306.53,-125.96"/>
</g>
</g>
</svg>
