<?xml version="1.0" encoding="UTF-8" standalone="no"?>
<!DOCTYPE svg PUBLIC "-//W3C//DTD SVG 1.1//EN"
 "http://www.w3.org/Graphics/SVG/1.1/DTD/svg11.dtd">
<!-- Generated by graphviz version 2.43.0 (0)
 -->
<!-- Title: Tree Pages: 1 -->
<svg width="934pt" height="428pt"
 viewBox="0.00 0.00 933.50 428.00" xmlns="http://www.w3.org/2000/svg" xmlns:xlink="http://www.w3.org/1999/xlink">
<g id="graph0" class="graph" transform="scale(1 1) rotate(0) translate(4 424)">
<title>Tree</title>
<polygon fill="#ffe7a5" stroke="transparent" points="-4,4 -4,-424 929.5,-424 929.5,4 -4,4"/>
<!-- node0x5bd8260524b0 -->
<g id="node1" class="node">
<title>node0x5bd8260524b0</title>
<path fill="#e07082" stroke="#203d98" d="M293.5,-304.5C293.5,-304.5 629.5,-304.5 629.5,-304.5 635.5,-304.5 641.5,-310.5 641.5,-316.5 641.5,-316.5 641.5,-407.5 641.5,-407.5 641.5,-413.5 635.5,-419.5 629.5,-419.5 629.5,-419.5 293.5,-419.5 293.5,-419.5 287.5,-419.5 281.5,-413.5 281.5,-407.5 281.5,-407.5 281.5,-316.5 281.5,-316.5 281.5,-310.5 287.5,-304.5 293.5,-304.5"/>
<text text-anchor="middle" x="461.5" y="-404.3" font-family="Times,serif" font-size="14.00">indx: 0x5bd8260524b0</text>
<polyline fill="none" stroke="#203d98" points="281.5,-396.5 641.5,-396.5 "/>
<text text-anchor="middle" x="461.5" y="-381.3" font-family="Times,serif" font-size="14.00">type: 1</text>
<polyline fill="none" stroke="#203d98" points="281.5,-373.5 641.5,-373.5 "/>
<text text-anchor="middle" x="461.5" y="-358.3" font-family="Times,serif" font-size="14.00">value: +</text>
<polyline fill="none" stroke="#203d98" points="281.5,-350.5 641.5,-350.5 "/>
<text text-anchor="middle" x="461.5" y="-335.3" font-family="Times,serif" font-size="14.00">parent: (nil)</text>
<polyline fill="none" stroke="#203d98" points="281.5,-327.5 641.5,-327.5 "/>
<text text-anchor="middle" x="368.5" y="-312.3" font-family="Times,serif" font-size="14.00">left: 0x5bd8260524e0</text>
<polyline fill="none" stroke="#203d98" points="455.5,-304.5 455.5,-327.5 "/>
<text text-anchor="middle" x="548.5" y="-312.3" font-family="Times,serif" font-size="14.00">right: 0x5bd826052570</text>
</g>
<!-- node0x5bd8260524e0 -->
<g id="node2" class="node">
<title>node0x5bd8260524e0</title>
<path fill="#e07082" stroke="#203d98" d="M104,-152.5C104,-152.5 441,-152.5 441,-152.5 447,-152.5 453,-158.5 453,-164.5 453,-164.5 453,-255.5 453,-255.5 453,-261.5 447,-267.5 441,-267.5 441,-267.5 104,-267.5 104,-267.5 98,-267.5 92,-261.5 92,-255.5 92,-255.5 92,-164.5 92,-164.5 92,-158.5 98,-152.5 104,-152.5"/>
<text text-anchor="middle" x="272.5" y="-252.3" font-family="Times,serif" font-size="14.00">indx: 0x5bd8260524e0</text>
<polyline fill="none" stroke="#203d98" points="92,-244.5 453,-244.5 "/>
<text text-anchor="middle" x="272.5" y="-229.3" font-family="Times,serif" font-size="14.00">type: 1</text>
<polyline fill="none" stroke="#203d98" points="92,-221.5 453,-221.5 "/>
<text text-anchor="middle" x="272.5" y="-206.3" font-family="Times,serif" font-size="14.00">value: *</text>
<polyline fill="none" stroke="#203d98" points="92,-198.5 453,-198.5 "/>
<text text-anchor="middle" x="272.5" y="-183.3" font-family="Times,serif" font-size="14.00">parent: 0x5bd8260524b0</text>
<polyline fill="none" stroke="#203d98" points="92,-175.5 453,-175.5 "/>
<text text-anchor="middle" x="179.5" y="-160.3" font-family="Times,serif" font-size="14.00">left: 0x5bd826052510</text>
<polyline fill="none" stroke="#203d98" points="267,-152.5 267,-175.5 "/>
<text text-anchor="middle" x="360" y="-160.3" font-family="Times,serif" font-size="14.00">right: 0x5bd826052540</text>
</g>
<!-- node0x5bd8260524b0&#45;&gt;node0x5bd8260524e0 -->
<g id="edge1" class="edge">
<title>node0x5bd8260524b0&#45;&gt;node0x5bd8260524e0</title>
<path fill="none" stroke="#203d98" d="M390.05,-304.29C377.49,-294.33 364.36,-283.91 351.62,-273.79"/>
<polygon fill="#203d98" stroke="#203d98" points="353.75,-271.01 343.74,-267.54 349.4,-276.5 353.75,-271.01"/>
</g>
<!-- node0x5bd826052570 -->
<g id="node5" class="node">
<title>node0x5bd826052570</title>
<path fill="#e07082" stroke="#203d98" d="M483.5,-152.5C483.5,-152.5 819.5,-152.5 819.5,-152.5 825.5,-152.5 831.5,-158.5 831.5,-164.5 831.5,-164.5 831.5,-255.5 831.5,-255.5 831.5,-261.5 825.5,-267.5 819.5,-267.5 819.5,-267.5 483.5,-267.5 483.5,-267.5 477.5,-267.5 471.5,-261.5 471.5,-255.5 471.5,-255.5 471.5,-164.5 471.5,-164.5 471.5,-158.5 477.5,-152.5 483.5,-152.5"/>
<text text-anchor="middle" x="651.5" y="-252.3" font-family="Times,serif" font-size="14.00">indx: 0x5bd826052570</text>
<polyline fill="none" stroke="#203d98" points="471.5,-244.5 831.5,-244.5 "/>
<text text-anchor="middle" x="651.5" y="-229.3" font-family="Times,serif" font-size="14.00">type: 1</text>
<polyline fill="none" stroke="#203d98" points="471.5,-221.5 831.5,-221.5 "/>
<text text-anchor="middle" x="651.5" y="-206.3" font-family="Times,serif" font-size="14.00">value: /</text>
<polyline fill="none" stroke="#203d98" points="471.5,-198.5 831.5,-198.5 "/>
<text text-anchor="middle" x="651.5" y="-183.3" font-family="Times,serif" font-size="14.00">parent: 0x5bd8260524b0</text>
<polyline fill="none" stroke="#203d98" points="471.5,-175.5 831.5,-175.5 "/>
<text text-anchor="middle" x="558.5" y="-160.3" font-family="Times,serif" font-size="14.00">left: 0x5bd8260525a0</text>
<polyline fill="none" stroke="#203d98" points="645.5,-152.5 645.5,-175.5 "/>
<text text-anchor="middle" x="738.5" y="-160.3" font-family="Times,serif" font-size="14.00">right: 0x5bd8260525d0</text>
</g>
<!-- node0x5bd8260524b0&#45;&gt;node0x5bd826052570 -->
<g id="edge4" class="edge">
<title>node0x5bd8260524b0&#45;&gt;node0x5bd826052570</title>
<path fill="none" stroke="#203d98" d="M533.33,-304.29C545.95,-294.33 559.15,-283.91 571.96,-273.79"/>
<polygon fill="#203d98" stroke="#203d98" points="574.2,-276.48 579.88,-267.54 569.87,-270.99 574.2,-276.48"/>
</g>
<!-- node0x5bd826052510 -->
<g id="node3" class="node">
<title>node0x5bd826052510</title>
<path fill="#faaa82" stroke="#203d98" d="M12,-0.5C12,-0.5 185,-0.5 185,-0.5 191,-0.5 197,-6.5 197,-12.5 197,-12.5 197,-103.5 197,-103.5 197,-109.5 191,-115.5 185,-115.5 185,-115.5 12,-115.5 12,-115.5 6,-115.5 0,-109.5 0,-103.5 0,-103.5 0,-12.5 0,-12.5 0,-6.5 6,-0.5 12,-0.5"/>
<text text-anchor="middle" x="98.5" y="-100.3" font-family="Times,serif" font-size="14.00">indx: 0x5bd826052510</text>
<polyline fill="none" stroke="#203d98" points="0,-92.5 197,-92.5 "/>
<text text-anchor="middle" x="98.5" y="-77.3" font-family="Times,serif" font-size="14.00">type: 3</text>
<polyline fill="none" stroke="#203d98" points="0,-69.5 197,-69.5 "/>
<text text-anchor="middle" x="98.5" y="-54.3" font-family="Times,serif" font-size="14.00">value: 3</text>
<polyline fill="none" stroke="#203d98" points="0,-46.5 197,-46.5 "/>
<text text-anchor="middle" x="98.5" y="-31.3" font-family="Times,serif" font-size="14.00">parent: 0x5bd8260524e0</text>
<polyline fill="none" stroke="#203d98" points="0,-23.5 197,-23.5 "/>
<text text-anchor="middle" x="46.5" y="-8.3" font-family="Times,serif" font-size="14.00">left: (nil)</text>
<polyline fill="none" stroke="#203d98" points="93,-0.5 93,-23.5 "/>
<text text-anchor="middle" x="145" y="-8.3" font-family="Times,serif" font-size="14.00">right: (nil)</text>
</g>
<!-- node0x5bd8260524e0&#45;&gt;node0x5bd826052510 -->
<g id="edge2" class="edge">
<title>node0x5bd8260524e0&#45;&gt;node0x5bd826052510</title>
<path fill="none" stroke="#203d98" d="M206.72,-152.29C195.27,-142.42 183.3,-132.11 171.67,-122.08"/>
<polygon fill="#203d98" stroke="#203d98" points="173.95,-119.42 164.09,-115.54 169.38,-124.72 173.95,-119.42"/>
</g>
<!-- node0x5bd826052540 -->
<g id="node4" class="node">
<title>node0x5bd826052540</title>
<path fill="#faaa82" stroke="#203d98" d="M227,-0.5C227,-0.5 400,-0.5 400,-0.5 406,-0.5 412,-6.5 412,-12.5 412,-12.5 412,-103.5 412,-103.5 412,-109.5 406,-115.5 400,-115.5 400,-115.5 227,-115.5 227,-115.5 221,-115.5 215,-109.5 215,-103.5 215,-103.5 215,-12.5 215,-12.5 215,-6.5 221,-0.5 227,-0.5"/>
<text text-anchor="middle" x="313.5" y="-100.3" font-family="Times,serif" font-size="14.00">indx: 0x5bd826052540</text>
<polyline fill="none" stroke="#203d98" points="215,-92.5 412,-92.5 "/>
<text text-anchor="middle" x="313.5" y="-77.3" font-family="Times,serif" font-size="14.00">type: 3</text>
<polyline fill="none" stroke="#203d98" points="215,-69.5 412,-69.5 "/>
<text text-anchor="middle" x="313.5" y="-54.3" font-family="Times,serif" font-size="14.00">value: 4</text>
<polyline fill="none" stroke="#203d98" points="215,-46.5 412,-46.5 "/>
<text text-anchor="middle" x="313.5" y="-31.3" font-family="Times,serif" font-size="14.00">parent: 0x5bd8260524e0</text>
<polyline fill="none" stroke="#203d98" points="215,-23.5 412,-23.5 "/>
<text text-anchor="middle" x="261.5" y="-8.3" font-family="Times,serif" font-size="14.00">left: (nil)</text>
<polyline fill="none" stroke="#203d98" points="308,-0.5 308,-23.5 "/>
<text text-anchor="middle" x="360" y="-8.3" font-family="Times,serif" font-size="14.00">right: (nil)</text>
</g>
<!-- node0x5bd8260524e0&#45;&gt;node0x5bd826052540 -->
<g id="edge3" class="edge">
<title>node0x5bd8260524e0&#45;&gt;node0x5bd826052540</title>
<path fill="none" stroke="#203d98" d="M288,-152.29C290.37,-143.61 292.84,-134.58 295.27,-125.71"/>
<polygon fill="#203d98" stroke="#203d98" points="298.72,-126.36 297.98,-115.79 291.96,-124.51 298.72,-126.36"/>
</g>
<!-- node0x5bd8260525a0 -->
<g id="node6" class="node">
<title>node0x5bd8260525a0</title>
<path fill="#faaa82" stroke="#203d98" d="M523.5,-0.5C523.5,-0.5 697.5,-0.5 697.5,-0.5 703.5,-0.5 709.5,-6.5 709.5,-12.5 709.5,-12.5 709.5,-103.5 709.5,-103.5 709.5,-109.5 703.5,-115.5 697.5,-115.5 697.5,-115.5 523.5,-115.5 523.5,-115.5 517.5,-115.5 511.5,-109.5 511.5,-103.5 511.5,-103.5 511.5,-12.5 511.5,-12.5 511.5,-6.5 517.5,-0.5 523.5,-0.5"/>
<text text-anchor="middle" x="610.5" y="-100.3" font-family="Times,serif" font-size="14.00">indx: 0x5bd8260525a0</text>
<polyline fill="none" stroke="#203d98" points="511.5,-92.5 709.5,-92.5 "/>
<text text-anchor="middle" x="610.5" y="-77.3" font-family="Times,serif" font-size="14.00">type: 3</text>
<polyline fill="none" stroke="#203d98" points="511.5,-69.5 709.5,-69.5 "/>
<text text-anchor="middle" x="610.5" y="-54.3" font-family="Times,serif" font-size="14.00">value: 6</text>
<polyline fill="none" stroke="#203d98" points="511.5,-46.5 709.5,-46.5 "/>
<text text-anchor="middle" x="610.5" y="-31.3" font-family="Times,serif" font-size="14.00">parent: 0x5bd826052570</text>
<polyline fill="none" stroke="#203d98" points="511.5,-23.5 709.5,-23.5 "/>
<text text-anchor="middle" x="558" y="-8.3" font-family="Times,serif" font-size="14.00">left: (nil)</text>
<polyline fill="none" stroke="#203d98" points="604.5,-0.5 604.5,-23.5 "/>
<text text-anchor="middle" x="657" y="-8.3" font-family="Times,serif" font-size="14.00">right: (nil)</text>
</g>
<!-- node0x5bd826052570&#45;&gt;node0x5bd8260525a0 -->
<g id="edge5" class="edge">
<title>node0x5bd826052570&#45;&gt;node0x5bd8260525a0</title>
<path fill="none" stroke="#203d98" d="M636,-152.29C633.63,-143.61 631.16,-134.58 628.73,-125.71"/>
<polygon fill="#203d98" stroke="#203d98" points="632.04,-124.51 626.02,-115.79 625.28,-126.36 632.04,-124.51"/>
</g>
<!-- node0x5bd8260525d0 -->
<g id="node7" class="node">
<title>node0x5bd8260525d0</title>
<path fill="#faaa82" stroke="#203d98" d="M739.5,-0.5C739.5,-0.5 913.5,-0.5 913.5,-0.5 919.5,-0.5 925.5,-6.5 925.5,-12.5 925.5,-12.5 925.5,-103.5 925.5,-103.5 925.5,-109.5 919.5,-115.5 913.5,-115.5 913.5,-115.5 739.5,-115.5 739.5,-115.5 733.5,-115.5 727.5,-109.5 727.5,-103.5 727.5,-103.5 727.5,-12.5 727.5,-12.5 727.5,-6.5 733.5,-0.5 739.5,-0.5"/>
<text text-anchor="middle" x="826.5" y="-100.3" font-family="Times,serif" font-size="14.00">indx: 0x5bd8260525d0</text>
<polyline fill="none" stroke="#203d98" points="727.5,-92.5 925.5,-92.5 "/>
<text text-anchor="middle" x="826.5" y="-77.3" font-family="Times,serif" font-size="14.00">type: 3</text>
<polyline fill="none" stroke="#203d98" points="727.5,-69.5 925.5,-69.5 "/>
<text text-anchor="middle" x="826.5" y="-54.3" font-family="Times,serif" font-size="14.00">value: 2</text>
<polyline fill="none" stroke="#203d98" points="727.5,-46.5 925.5,-46.5 "/>
<text text-anchor="middle" x="826.5" y="-31.3" font-family="Times,serif" font-size="14.00">parent: 0x5bd826052570</text>
<polyline fill="none" stroke="#203d98" points="727.5,-23.5 925.5,-23.5 "/>
<text text-anchor="middle" x="774" y="-8.3" font-family="Times,serif" font-size="14.00">left: (nil)</text>
<polyline fill="none" stroke="#203d98" points="820.5,-0.5 820.5,-23.5 "/>
<text text-anchor="middle" x="873" y="-8.3" font-family="Times,serif" font-size="14.00">right: (nil)</text>
</g>
<!-- node0x5bd826052570&#45;&gt;node0x5bd8260525d0 -->
<g id="edge6" class="edge">
<title>node0x5bd826052570&#45;&gt;node0x5bd8260525d0</title>
<path fill="none" stroke="#203d98" d="M717.66,-152.29C729.17,-142.42 741.21,-132.11 752.91,-122.08"/>
<polygon fill="#203d98" stroke="#203d98" points="755.22,-124.71 760.54,-115.54 750.67,-119.39 755.22,-124.71"/>
</g>
</g>
</svg>
