<?xml version="1.0" encoding="UTF-8" standalone="no"?>
<!DOCTYPE svg PUBLIC "-//W3C//DTD SVG 1.1//EN"
 "http://www.w3.org/Graphics/SVG/1.1/DTD/svg11.dtd">
<!-- Generated by graphviz version 2.43.0 (0)
 -->
<!-- Title: Tree Pages: 1 -->
<svg width="593pt" height="428pt"
 viewBox="0.00 0.00 592.50 428.00" xmlns="http://www.w3.org/2000/svg" xmlns:xlink="http://www.w3.org/1999/xlink">
<g id="graph0" class="graph" transform="scale(1 1) rotate(0) translate(4 424)">
<title>Tree</title>
<polygon fill="#ffe7a5" stroke="transparent" points="-4,4 -4,-424 588.5,-424 588.5,4 -4,4"/>
<!-- node0x5703785184e0 -->
<g id="node1" class="node">
<title>node0x5703785184e0</title>
<path fill="#e07082" stroke="#203d98" d="M183.5,-304.5C183.5,-304.5 518.5,-304.5 518.5,-304.5 524.5,-304.5 530.5,-310.5 530.5,-316.5 530.5,-316.5 530.5,-407.5 530.5,-407.5 530.5,-413.5 524.5,-419.5 518.5,-419.5 518.5,-419.5 183.5,-419.5 183.5,-419.5 177.5,-419.5 171.5,-413.5 171.5,-407.5 171.5,-407.5 171.5,-316.5 171.5,-316.5 171.5,-310.5 177.5,-304.5 183.5,-304.5"/>
<text text-anchor="middle" x="351" y="-404.3" font-family="Times,serif" font-size="14.00">indx: 0x5703785184e0</text>
<polyline fill="none" stroke="#203d98" points="171.5,-396.5 530.5,-396.5 "/>
<text text-anchor="middle" x="351" y="-381.3" font-family="Times,serif" font-size="14.00">type: 1</text>
<polyline fill="none" stroke="#203d98" points="171.5,-373.5 530.5,-373.5 "/>
<text text-anchor="middle" x="351" y="-358.3" font-family="Times,serif" font-size="14.00">value: *</text>
<polyline fill="none" stroke="#203d98" points="171.5,-350.5 530.5,-350.5 "/>
<text text-anchor="middle" x="351" y="-335.3" font-family="Times,serif" font-size="14.00">parent: (nil)</text>
<polyline fill="none" stroke="#203d98" points="171.5,-327.5 530.5,-327.5 "/>
<text text-anchor="middle" x="259" y="-312.3" font-family="Times,serif" font-size="14.00">left: 0x570378518510</text>
<polyline fill="none" stroke="#203d98" points="346.5,-304.5 346.5,-327.5 "/>
<text text-anchor="middle" x="438.5" y="-312.3" font-family="Times,serif" font-size="14.00">right: 0x57037851ec40</text>
</g>
<!-- node0x570378518510 -->
<g id="node2" class="node">
<title>node0x570378518510</title>
<path fill="#e07082" stroke="#203d98" d="M39,-152.5C39,-152.5 375,-152.5 375,-152.5 381,-152.5 387,-158.5 387,-164.5 387,-164.5 387,-255.5 387,-255.5 387,-261.5 381,-267.5 375,-267.5 375,-267.5 39,-267.5 39,-267.5 33,-267.5 27,-261.5 27,-255.5 27,-255.5 27,-164.5 27,-164.5 27,-158.5 33,-152.5 39,-152.5"/>
<text text-anchor="middle" x="207" y="-252.3" font-family="Times,serif" font-size="14.00">indx: 0x570378518510</text>
<polyline fill="none" stroke="#203d98" points="27,-244.5 387,-244.5 "/>
<text text-anchor="middle" x="207" y="-229.3" font-family="Times,serif" font-size="14.00">type: 1</text>
<polyline fill="none" stroke="#203d98" points="27,-221.5 387,-221.5 "/>
<text text-anchor="middle" x="207" y="-206.3" font-family="Times,serif" font-size="14.00">value: +</text>
<polyline fill="none" stroke="#203d98" points="27,-198.5 387,-198.5 "/>
<text text-anchor="middle" x="207" y="-183.3" font-family="Times,serif" font-size="14.00">parent: 0x5703785184e0</text>
<polyline fill="none" stroke="#203d98" points="27,-175.5 387,-175.5 "/>
<text text-anchor="middle" x="114.5" y="-160.3" font-family="Times,serif" font-size="14.00">left: 0x570378518570</text>
<polyline fill="none" stroke="#203d98" points="202,-152.5 202,-175.5 "/>
<text text-anchor="middle" x="294.5" y="-160.3" font-family="Times,serif" font-size="14.00">right: 0x570378522da0</text>
</g>
<!-- node0x5703785184e0&#45;&gt;node0x570378518510 -->
<g id="edge1" class="edge">
<title>node0x5703785184e0&#45;&gt;node0x570378518510</title>
<path fill="none" stroke="#203d98" d="M296.56,-304.29C287.42,-294.77 277.88,-284.83 268.58,-275.14"/>
<polygon fill="#203d98" stroke="#203d98" points="270.97,-272.58 261.52,-267.79 265.92,-277.43 270.97,-272.58"/>
</g>
<!-- node0x57037851ec40 -->
<g id="node5" class="node">
<title>node0x57037851ec40</title>
<path fill="#faaa82" stroke="#203d98" d="M417.5,-152.5C417.5,-152.5 572.5,-152.5 572.5,-152.5 578.5,-152.5 584.5,-158.5 584.5,-164.5 584.5,-164.5 584.5,-255.5 584.5,-255.5 584.5,-261.5 578.5,-267.5 572.5,-267.5 572.5,-267.5 417.5,-267.5 417.5,-267.5 411.5,-267.5 405.5,-261.5 405.5,-255.5 405.5,-255.5 405.5,-164.5 405.5,-164.5 405.5,-158.5 411.5,-152.5 417.5,-152.5"/>
<text text-anchor="middle" x="495" y="-252.3" font-family="Times,serif" font-size="14.00">indx: 0x57037851ec40</text>
<polyline fill="none" stroke="#203d98" points="405.5,-244.5 584.5,-244.5 "/>
<text text-anchor="middle" x="495" y="-229.3" font-family="Times,serif" font-size="14.00">type: 3</text>
<polyline fill="none" stroke="#203d98" points="405.5,-221.5 584.5,-221.5 "/>
<text text-anchor="middle" x="495" y="-206.3" font-family="Times,serif" font-size="14.00">value: 2.04</text>
<polyline fill="none" stroke="#203d98" points="405.5,-198.5 584.5,-198.5 "/>
<text text-anchor="middle" x="495" y="-183.3" font-family="Times,serif" font-size="14.00">parent: (nil)</text>
<polyline fill="none" stroke="#203d98" points="405.5,-175.5 584.5,-175.5 "/>
<text text-anchor="middle" x="447.5" y="-160.3" font-family="Times,serif" font-size="14.00">left: (nil)</text>
<polyline fill="none" stroke="#203d98" points="489.5,-152.5 489.5,-175.5 "/>
<text text-anchor="middle" x="537" y="-160.3" font-family="Times,serif" font-size="14.00">right: (nil)</text>
</g>
<!-- node0x5703785184e0&#45;&gt;node0x57037851ec40 -->
<g id="edge4" class="edge">
<title>node0x5703785184e0&#45;&gt;node0x57037851ec40</title>
<path fill="none" stroke="#203d98" d="M405.44,-304.29C414.58,-294.77 424.12,-284.83 433.42,-275.14"/>
<polygon fill="#203d98" stroke="#203d98" points="436.08,-277.43 440.48,-267.79 431.03,-272.58 436.08,-277.43"/>
</g>
<!-- node0x570378518570 -->
<g id="node3" class="node">
<title>node0x570378518570</title>
<path fill="#a24892" stroke="#203d98" d="M12,-0.5C12,-0.5 186,-0.5 186,-0.5 192,-0.5 198,-6.5 198,-12.5 198,-12.5 198,-103.5 198,-103.5 198,-109.5 192,-115.5 186,-115.5 186,-115.5 12,-115.5 12,-115.5 6,-115.5 0,-109.5 0,-103.5 0,-103.5 0,-12.5 0,-12.5 0,-6.5 6,-0.5 12,-0.5"/>
<text text-anchor="middle" x="99" y="-100.3" font-family="Times,serif" font-size="14.00">indx: 0x570378518570</text>
<polyline fill="none" stroke="#203d98" points="0,-92.5 198,-92.5 "/>
<text text-anchor="middle" x="99" y="-77.3" font-family="Times,serif" font-size="14.00">type: 2</text>
<polyline fill="none" stroke="#203d98" points="0,-69.5 198,-69.5 "/>
<text text-anchor="middle" x="99" y="-54.3" font-family="Times,serif" font-size="14.00">value: x</text>
<polyline fill="none" stroke="#203d98" points="0,-46.5 198,-46.5 "/>
<text text-anchor="middle" x="99" y="-31.3" font-family="Times,serif" font-size="14.00">parent: 0x570378518510</text>
<polyline fill="none" stroke="#203d98" points="0,-23.5 198,-23.5 "/>
<text text-anchor="middle" x="46.5" y="-8.3" font-family="Times,serif" font-size="14.00">left: (nil)</text>
<polyline fill="none" stroke="#203d98" points="93,-0.5 93,-23.5 "/>
<text text-anchor="middle" x="145.5" y="-8.3" font-family="Times,serif" font-size="14.00">right: (nil)</text>
</g>
<!-- node0x570378518510&#45;&gt;node0x570378518570 -->
<g id="edge2" class="edge">
<title>node0x570378518510&#45;&gt;node0x570378518570</title>
<path fill="none" stroke="#203d98" d="M166.17,-152.29C159.52,-143.05 152.58,-133.42 145.8,-124"/>
<polygon fill="#203d98" stroke="#203d98" points="148.57,-121.86 139.89,-115.79 142.89,-125.95 148.57,-121.86"/>
</g>
<!-- node0x570378522da0 -->
<g id="node4" class="node">
<title>node0x570378522da0</title>
<path fill="#faaa82" stroke="#203d98" d="M228,-0.5C228,-0.5 402,-0.5 402,-0.5 408,-0.5 414,-6.5 414,-12.5 414,-12.5 414,-103.5 414,-103.5 414,-109.5 408,-115.5 402,-115.5 402,-115.5 228,-115.5 228,-115.5 222,-115.5 216,-109.5 216,-103.5 216,-103.5 216,-12.5 216,-12.5 216,-6.5 222,-0.5 228,-0.5"/>
<text text-anchor="middle" x="315" y="-100.3" font-family="Times,serif" font-size="14.00">indx: 0x570378522da0</text>
<polyline fill="none" stroke="#203d98" points="216,-92.5 414,-92.5 "/>
<text text-anchor="middle" x="315" y="-77.3" font-family="Times,serif" font-size="14.00">type: 3</text>
<polyline fill="none" stroke="#203d98" points="216,-69.5 414,-69.5 "/>
<text text-anchor="middle" x="315" y="-54.3" font-family="Times,serif" font-size="14.00">value: 1.00</text>
<polyline fill="none" stroke="#203d98" points="216,-46.5 414,-46.5 "/>
<text text-anchor="middle" x="315" y="-31.3" font-family="Times,serif" font-size="14.00">parent: 0x570378518510</text>
<polyline fill="none" stroke="#203d98" points="216,-23.5 414,-23.5 "/>
<text text-anchor="middle" x="262.5" y="-8.3" font-family="Times,serif" font-size="14.00">left: (nil)</text>
<polyline fill="none" stroke="#203d98" points="309,-0.5 309,-23.5 "/>
<text text-anchor="middle" x="361.5" y="-8.3" font-family="Times,serif" font-size="14.00">right: (nil)</text>
</g>
<!-- node0x570378518510&#45;&gt;node0x570378522da0 -->
<g id="edge3" class="edge">
<title>node0x570378518510&#45;&gt;node0x570378522da0</title>
<path fill="none" stroke="#203d98" d="M247.83,-152.29C254.48,-143.05 261.42,-133.42 268.2,-124"/>
<polygon fill="#203d98" stroke="#203d98" points="271.11,-125.95 274.11,-115.79 265.43,-121.86 271.11,-125.95"/>
</g>
</g>
</svg>
