<?xml version="1.0" encoding="UTF-8" standalone="no"?>
<!DOCTYPE svg PUBLIC "-//W3C//DTD SVG 1.1//EN"
 "http://www.w3.org/Graphics/SVG/1.1/DTD/svg11.dtd">
<!-- Generated by graphviz version 2.43.0 (0)
 -->
<!-- Title: Tree Pages: 1 -->
<svg width="1062pt" height="732pt"
 viewBox="0.00 0.00 1062.00 732.00" xmlns="http://www.w3.org/2000/svg" xmlns:xlink="http://www.w3.org/1999/xlink">
<g id="graph0" class="graph" transform="scale(1 1) rotate(0) translate(4 728)">
<title>Tree</title>
<polygon fill="#ffe7a5" stroke="transparent" points="-4,4 -4,-728 1058,-728 1058,4 -4,4"/>
<!-- node0x571f8bf8f7d0 -->
<g id="node1" class="node">
<title>node0x571f8bf8f7d0</title>
<path fill="#e07082" stroke="#203d98" d="M597.5,-608.5C597.5,-608.5 911.5,-608.5 911.5,-608.5 917.5,-608.5 923.5,-614.5 923.5,-620.5 923.5,-620.5 923.5,-711.5 923.5,-711.5 923.5,-717.5 917.5,-723.5 911.5,-723.5 911.5,-723.5 597.5,-723.5 597.5,-723.5 591.5,-723.5 585.5,-717.5 585.5,-711.5 585.5,-711.5 585.5,-620.5 585.5,-620.5 585.5,-614.5 591.5,-608.5 597.5,-608.5"/>
<text text-anchor="middle" x="754.5" y="-708.3" font-family="Times,serif" font-size="14.00">indx: 0x571f8bf8f7d0</text>
<polyline fill="none" stroke="#203d98" points="585.5,-700.5 923.5,-700.5 "/>
<text text-anchor="middle" x="754.5" y="-685.3" font-family="Times,serif" font-size="14.00">type: 1</text>
<polyline fill="none" stroke="#203d98" points="585.5,-677.5 923.5,-677.5 "/>
<text text-anchor="middle" x="754.5" y="-662.3" font-family="Times,serif" font-size="14.00">value: /</text>
<polyline fill="none" stroke="#203d98" points="585.5,-654.5 923.5,-654.5 "/>
<text text-anchor="middle" x="754.5" y="-639.3" font-family="Times,serif" font-size="14.00">parent: (nil)</text>
<polyline fill="none" stroke="#203d98" points="585.5,-631.5 923.5,-631.5 "/>
<text text-anchor="middle" x="667.5" y="-616.3" font-family="Times,serif" font-size="14.00">left: 0x571f8bf8f770</text>
<polyline fill="none" stroke="#203d98" points="749.5,-608.5 749.5,-631.5 "/>
<text text-anchor="middle" x="836.5" y="-616.3" font-family="Times,serif" font-size="14.00">right: 0x571f8bf8f7a0</text>
</g>
<!-- node0x571f8bf8f770 -->
<g id="node2" class="node">
<title>node0x571f8bf8f770</title>
<path fill="#e07082" stroke="#203d98" d="M457,-456.5C457,-456.5 772,-456.5 772,-456.5 778,-456.5 784,-462.5 784,-468.5 784,-468.5 784,-559.5 784,-559.5 784,-565.5 778,-571.5 772,-571.5 772,-571.5 457,-571.5 457,-571.5 451,-571.5 445,-565.5 445,-559.5 445,-559.5 445,-468.5 445,-468.5 445,-462.5 451,-456.5 457,-456.5"/>
<text text-anchor="middle" x="614.5" y="-556.3" font-family="Times,serif" font-size="14.00">indx: 0x571f8bf8f770</text>
<polyline fill="none" stroke="#203d98" points="445,-548.5 784,-548.5 "/>
<text text-anchor="middle" x="614.5" y="-533.3" font-family="Times,serif" font-size="14.00">type: 1</text>
<polyline fill="none" stroke="#203d98" points="445,-525.5 784,-525.5 "/>
<text text-anchor="middle" x="614.5" y="-510.3" font-family="Times,serif" font-size="14.00">value: +</text>
<polyline fill="none" stroke="#203d98" points="445,-502.5 784,-502.5 "/>
<text text-anchor="middle" x="614.5" y="-487.3" font-family="Times,serif" font-size="14.00">parent: 0x571f8bf8f7d0</text>
<polyline fill="none" stroke="#203d98" points="445,-479.5 784,-479.5 "/>
<text text-anchor="middle" x="527" y="-464.3" font-family="Times,serif" font-size="14.00">left: 0x571f8bf8f6b0</text>
<polyline fill="none" stroke="#203d98" points="609,-456.5 609,-479.5 "/>
<text text-anchor="middle" x="696.5" y="-464.3" font-family="Times,serif" font-size="14.00">right: 0x571f8bf8f740</text>
</g>
<!-- node0x571f8bf8f7d0&#45;&gt;node0x571f8bf8f770 -->
<g id="edge1" class="edge">
<title>node0x571f8bf8f7d0&#45;&gt;node0x571f8bf8f770</title>
<path fill="none" stroke="#203d98" d="M701.57,-608.29C692.69,-598.77 683.41,-588.83 674.36,-579.14"/>
<polygon fill="#203d98" stroke="#203d98" points="676.88,-576.71 667.5,-571.79 671.77,-581.49 676.88,-576.71"/>
</g>
<!-- node0x571f8bf8f7a0 -->
<g id="node11" class="node">
<title>node0x571f8bf8f7a0</title>
<path fill="#faaa82" stroke="#203d98" d="M814,-456.5C814,-456.5 977,-456.5 977,-456.5 983,-456.5 989,-462.5 989,-468.5 989,-468.5 989,-559.5 989,-559.5 989,-565.5 983,-571.5 977,-571.5 977,-571.5 814,-571.5 814,-571.5 808,-571.5 802,-565.5 802,-559.5 802,-559.5 802,-468.5 802,-468.5 802,-462.5 808,-456.5 814,-456.5"/>
<text text-anchor="middle" x="895.5" y="-556.3" font-family="Times,serif" font-size="14.00">indx: 0x571f8bf8f7a0</text>
<polyline fill="none" stroke="#203d98" points="802,-548.5 989,-548.5 "/>
<text text-anchor="middle" x="895.5" y="-533.3" font-family="Times,serif" font-size="14.00">type: 3</text>
<polyline fill="none" stroke="#203d98" points="802,-525.5 989,-525.5 "/>
<text text-anchor="middle" x="895.5" y="-510.3" font-family="Times,serif" font-size="14.00">value: 6.00</text>
<polyline fill="none" stroke="#203d98" points="802,-502.5 989,-502.5 "/>
<text text-anchor="middle" x="895.5" y="-487.3" font-family="Times,serif" font-size="14.00">parent: 0x571f8bf8f7d0</text>
<polyline fill="none" stroke="#203d98" points="802,-479.5 989,-479.5 "/>
<text text-anchor="middle" x="846" y="-464.3" font-family="Times,serif" font-size="14.00">left: (nil)</text>
<polyline fill="none" stroke="#203d98" points="890,-456.5 890,-479.5 "/>
<text text-anchor="middle" x="939.5" y="-464.3" font-family="Times,serif" font-size="14.00">right: (nil)</text>
</g>
<!-- node0x571f8bf8f7d0&#45;&gt;node0x571f8bf8f7a0 -->
<g id="edge10" class="edge">
<title>node0x571f8bf8f7d0&#45;&gt;node0x571f8bf8f7a0</title>
<path fill="none" stroke="#203d98" d="M807.81,-608.29C816.75,-598.77 826.1,-588.83 835.21,-579.14"/>
<polygon fill="#203d98" stroke="#203d98" points="837.82,-581.47 842.12,-571.79 832.72,-576.68 837.82,-581.47"/>
</g>
<!-- node0x571f8bf8f6b0 -->
<g id="node3" class="node">
<title>node0x571f8bf8f6b0</title>
<path fill="#e07082" stroke="#203d98" d="M279,-304.5C279,-304.5 594,-304.5 594,-304.5 600,-304.5 606,-310.5 606,-316.5 606,-316.5 606,-407.5 606,-407.5 606,-413.5 600,-419.5 594,-419.5 594,-419.5 279,-419.5 279,-419.5 273,-419.5 267,-413.5 267,-407.5 267,-407.5 267,-316.5 267,-316.5 267,-310.5 273,-304.5 279,-304.5"/>
<text text-anchor="middle" x="436.5" y="-404.3" font-family="Times,serif" font-size="14.00">indx: 0x571f8bf8f6b0</text>
<polyline fill="none" stroke="#203d98" points="267,-396.5 606,-396.5 "/>
<text text-anchor="middle" x="436.5" y="-381.3" font-family="Times,serif" font-size="14.00">type: 1</text>
<polyline fill="none" stroke="#203d98" points="267,-373.5 606,-373.5 "/>
<text text-anchor="middle" x="436.5" y="-358.3" font-family="Times,serif" font-size="14.00">value: sin</text>
<polyline fill="none" stroke="#203d98" points="267,-350.5 606,-350.5 "/>
<text text-anchor="middle" x="436.5" y="-335.3" font-family="Times,serif" font-size="14.00">parent: 0x571f8bf8f770</text>
<polyline fill="none" stroke="#203d98" points="267,-327.5 606,-327.5 "/>
<text text-anchor="middle" x="349" y="-312.3" font-family="Times,serif" font-size="14.00">left: 0x571f8bf8f650</text>
<polyline fill="none" stroke="#203d98" points="431,-304.5 431,-327.5 "/>
<text text-anchor="middle" x="518.5" y="-312.3" font-family="Times,serif" font-size="14.00">right: 0x571f8bf8f680</text>
</g>
<!-- node0x571f8bf8f770&#45;&gt;node0x571f8bf8f6b0 -->
<g id="edge2" class="edge">
<title>node0x571f8bf8f770&#45;&gt;node0x571f8bf8f6b0</title>
<path fill="none" stroke="#203d98" d="M547.21,-456.29C535.5,-446.42 523.25,-436.11 511.35,-426.08"/>
<polygon fill="#203d98" stroke="#203d98" points="513.5,-423.31 503.59,-419.54 508.99,-428.66 513.5,-423.31"/>
</g>
<!-- node0x571f8bf8f740 -->
<g id="node8" class="node">
<title>node0x571f8bf8f740</title>
<path fill="#e07082" stroke="#203d98" d="M636.5,-304.5C636.5,-304.5 950.5,-304.5 950.5,-304.5 956.5,-304.5 962.5,-310.5 962.5,-316.5 962.5,-316.5 962.5,-407.5 962.5,-407.5 962.5,-413.5 956.5,-419.5 950.5,-419.5 950.5,-419.5 636.5,-419.5 636.5,-419.5 630.5,-419.5 624.5,-413.5 624.5,-407.5 624.5,-407.5 624.5,-316.5 624.5,-316.5 624.5,-310.5 630.5,-304.5 636.5,-304.5"/>
<text text-anchor="middle" x="793.5" y="-404.3" font-family="Times,serif" font-size="14.00">indx: 0x571f8bf8f740</text>
<polyline fill="none" stroke="#203d98" points="624.5,-396.5 962.5,-396.5 "/>
<text text-anchor="middle" x="793.5" y="-381.3" font-family="Times,serif" font-size="14.00">type: 1</text>
<polyline fill="none" stroke="#203d98" points="624.5,-373.5 962.5,-373.5 "/>
<text text-anchor="middle" x="793.5" y="-358.3" font-family="Times,serif" font-size="14.00">value: ^</text>
<polyline fill="none" stroke="#203d98" points="624.5,-350.5 962.5,-350.5 "/>
<text text-anchor="middle" x="793.5" y="-335.3" font-family="Times,serif" font-size="14.00">parent: 0x571f8bf8f770</text>
<polyline fill="none" stroke="#203d98" points="624.5,-327.5 962.5,-327.5 "/>
<text text-anchor="middle" x="706" y="-312.3" font-family="Times,serif" font-size="14.00">left: 0x571f8bf8f6e0</text>
<polyline fill="none" stroke="#203d98" points="787.5,-304.5 787.5,-327.5 "/>
<text text-anchor="middle" x="875" y="-312.3" font-family="Times,serif" font-size="14.00">right: 0x571f8bf8f710</text>
</g>
<!-- node0x571f8bf8f770&#45;&gt;node0x571f8bf8f740 -->
<g id="edge7" class="edge">
<title>node0x571f8bf8f770&#45;&gt;node0x571f8bf8f740</title>
<path fill="none" stroke="#203d98" d="M682.17,-456.29C693.95,-446.42 706.26,-436.11 718.23,-426.08"/>
<polygon fill="#203d98" stroke="#203d98" points="720.61,-428.65 726.03,-419.54 716.12,-423.28 720.61,-428.65"/>
</g>
<!-- node0x571f8bf8f650 -->
<g id="node4" class="node">
<title>node0x571f8bf8f650</title>
<path fill="#e07082" stroke="#203d98" d="M40,-152.5C40,-152.5 351,-152.5 351,-152.5 357,-152.5 363,-158.5 363,-164.5 363,-164.5 363,-255.5 363,-255.5 363,-261.5 357,-267.5 351,-267.5 351,-267.5 40,-267.5 40,-267.5 34,-267.5 28,-261.5 28,-255.5 28,-255.5 28,-164.5 28,-164.5 28,-158.5 34,-152.5 40,-152.5"/>
<text text-anchor="middle" x="195.5" y="-252.3" font-family="Times,serif" font-size="14.00">indx: 0x571f8bf8f650</text>
<polyline fill="none" stroke="#203d98" points="28,-244.5 363,-244.5 "/>
<text text-anchor="middle" x="195.5" y="-229.3" font-family="Times,serif" font-size="14.00">type: 1</text>
<polyline fill="none" stroke="#203d98" points="28,-221.5 363,-221.5 "/>
<text text-anchor="middle" x="195.5" y="-206.3" font-family="Times,serif" font-size="14.00">value: *</text>
<polyline fill="none" stroke="#203d98" points="28,-198.5 363,-198.5 "/>
<text text-anchor="middle" x="195.5" y="-183.3" font-family="Times,serif" font-size="14.00">parent: 0x571f8bf8f6b0</text>
<polyline fill="none" stroke="#203d98" points="28,-175.5 363,-175.5 "/>
<text text-anchor="middle" x="108" y="-160.3" font-family="Times,serif" font-size="14.00">left: 0x571f8bf8f5f0</text>
<polyline fill="none" stroke="#203d98" points="188,-152.5 188,-175.5 "/>
<text text-anchor="middle" x="275.5" y="-160.3" font-family="Times,serif" font-size="14.00">right: 0x571f8bf8f620</text>
</g>
<!-- node0x571f8bf8f6b0&#45;&gt;node0x571f8bf8f650 -->
<g id="edge3" class="edge">
<title>node0x571f8bf8f6b0&#45;&gt;node0x571f8bf8f650</title>
<path fill="none" stroke="#203d98" d="M345.39,-304.29C328.93,-294.05 311.69,-283.32 295.01,-272.93"/>
<polygon fill="#203d98" stroke="#203d98" points="296.68,-269.85 286.34,-267.54 292.98,-275.8 296.68,-269.85"/>
</g>
<!-- node0x571f8bf8f680 -->
<g id="node7" class="node">
<title>node0x571f8bf8f680</title>
<path fill="#faaa82" stroke="#203d98" d="M393,-152.5C393,-152.5 556,-152.5 556,-152.5 562,-152.5 568,-158.5 568,-164.5 568,-164.5 568,-255.5 568,-255.5 568,-261.5 562,-267.5 556,-267.5 556,-267.5 393,-267.5 393,-267.5 387,-267.5 381,-261.5 381,-255.5 381,-255.5 381,-164.5 381,-164.5 381,-158.5 387,-152.5 393,-152.5"/>
<text text-anchor="middle" x="474.5" y="-252.3" font-family="Times,serif" font-size="14.00">indx: 0x571f8bf8f680</text>
<polyline fill="none" stroke="#203d98" points="381,-244.5 568,-244.5 "/>
<text text-anchor="middle" x="474.5" y="-229.3" font-family="Times,serif" font-size="14.00">type: 3</text>
<polyline fill="none" stroke="#203d98" points="381,-221.5 568,-221.5 "/>
<text text-anchor="middle" x="474.5" y="-206.3" font-family="Times,serif" font-size="14.00">value: 0.00</text>
<polyline fill="none" stroke="#203d98" points="381,-198.5 568,-198.5 "/>
<text text-anchor="middle" x="474.5" y="-183.3" font-family="Times,serif" font-size="14.00">parent: 0x571f8bf8f6b0</text>
<polyline fill="none" stroke="#203d98" points="381,-175.5 568,-175.5 "/>
<text text-anchor="middle" x="425" y="-160.3" font-family="Times,serif" font-size="14.00">left: (nil)</text>
<polyline fill="none" stroke="#203d98" points="469,-152.5 469,-175.5 "/>
<text text-anchor="middle" x="518.5" y="-160.3" font-family="Times,serif" font-size="14.00">right: (nil)</text>
</g>
<!-- node0x571f8bf8f6b0&#45;&gt;node0x571f8bf8f680 -->
<g id="edge6" class="edge">
<title>node0x571f8bf8f6b0&#45;&gt;node0x571f8bf8f680</title>
<path fill="none" stroke="#203d98" d="M450.87,-304.29C453.07,-295.61 455.35,-286.58 457.6,-277.71"/>
<polygon fill="#203d98" stroke="#203d98" points="461.05,-278.34 460.11,-267.79 454.26,-276.62 461.05,-278.34"/>
</g>
<!-- node0x571f8bf8f5f0 -->
<g id="node5" class="node">
<title>node0x571f8bf8f5f0</title>
<path fill="#faaa82" stroke="#203d98" d="M12,-0.5C12,-0.5 175,-0.5 175,-0.5 181,-0.5 187,-6.5 187,-12.5 187,-12.5 187,-103.5 187,-103.5 187,-109.5 181,-115.5 175,-115.5 175,-115.5 12,-115.5 12,-115.5 6,-115.5 0,-109.5 0,-103.5 0,-103.5 0,-12.5 0,-12.5 0,-6.5 6,-0.5 12,-0.5"/>
<text text-anchor="middle" x="93.5" y="-100.3" font-family="Times,serif" font-size="14.00">indx: 0x571f8bf8f5f0</text>
<polyline fill="none" stroke="#203d98" points="0,-92.5 187,-92.5 "/>
<text text-anchor="middle" x="93.5" y="-77.3" font-family="Times,serif" font-size="14.00">type: 3</text>
<polyline fill="none" stroke="#203d98" points="0,-69.5 187,-69.5 "/>
<text text-anchor="middle" x="93.5" y="-54.3" font-family="Times,serif" font-size="14.00">value: 5.50</text>
<polyline fill="none" stroke="#203d98" points="0,-46.5 187,-46.5 "/>
<text text-anchor="middle" x="93.5" y="-31.3" font-family="Times,serif" font-size="14.00">parent: 0x571f8bf8f650</text>
<polyline fill="none" stroke="#203d98" points="0,-23.5 187,-23.5 "/>
<text text-anchor="middle" x="44" y="-8.3" font-family="Times,serif" font-size="14.00">left: (nil)</text>
<polyline fill="none" stroke="#203d98" points="88,-0.5 88,-23.5 "/>
<text text-anchor="middle" x="137.5" y="-8.3" font-family="Times,serif" font-size="14.00">right: (nil)</text>
</g>
<!-- node0x571f8bf8f650&#45;&gt;node0x571f8bf8f5f0 -->
<g id="edge4" class="edge">
<title>node0x571f8bf8f650&#45;&gt;node0x571f8bf8f5f0</title>
<path fill="none" stroke="#203d98" d="M156.94,-152.29C150.72,-143.14 144.24,-133.61 137.89,-124.28"/>
<polygon fill="#203d98" stroke="#203d98" points="140.63,-122.09 132.12,-115.79 134.85,-126.03 140.63,-122.09"/>
</g>
<!-- node0x571f8bf8f620 -->
<g id="node6" class="node">
<title>node0x571f8bf8f620</title>
<path fill="#a24892" stroke="#203d98" d="M217,-0.5C217,-0.5 380,-0.5 380,-0.5 386,-0.5 392,-6.5 392,-12.5 392,-12.5 392,-103.5 392,-103.5 392,-109.5 386,-115.5 380,-115.5 380,-115.5 217,-115.5 217,-115.5 211,-115.5 205,-109.5 205,-103.5 205,-103.5 205,-12.5 205,-12.5 205,-6.5 211,-0.5 217,-0.5"/>
<text text-anchor="middle" x="298.5" y="-100.3" font-family="Times,serif" font-size="14.00">indx: 0x571f8bf8f620</text>
<polyline fill="none" stroke="#203d98" points="205,-92.5 392,-92.5 "/>
<text text-anchor="middle" x="298.5" y="-77.3" font-family="Times,serif" font-size="14.00">type: 2</text>
<polyline fill="none" stroke="#203d98" points="205,-69.5 392,-69.5 "/>
<text text-anchor="middle" x="298.5" y="-54.3" font-family="Times,serif" font-size="14.00">value: x</text>
<polyline fill="none" stroke="#203d98" points="205,-46.5 392,-46.5 "/>
<text text-anchor="middle" x="298.5" y="-31.3" font-family="Times,serif" font-size="14.00">parent: 0x571f8bf8f650</text>
<polyline fill="none" stroke="#203d98" points="205,-23.5 392,-23.5 "/>
<text text-anchor="middle" x="249" y="-8.3" font-family="Times,serif" font-size="14.00">left: (nil)</text>
<polyline fill="none" stroke="#203d98" points="293,-0.5 293,-23.5 "/>
<text text-anchor="middle" x="342.5" y="-8.3" font-family="Times,serif" font-size="14.00">right: (nil)</text>
</g>
<!-- node0x571f8bf8f650&#45;&gt;node0x571f8bf8f620 -->
<g id="edge5" class="edge">
<title>node0x571f8bf8f650&#45;&gt;node0x571f8bf8f620</title>
<path fill="none" stroke="#203d98" d="M234.44,-152.29C240.72,-143.14 247.27,-133.61 253.67,-124.28"/>
<polygon fill="#203d98" stroke="#203d98" points="256.73,-126.01 259.51,-115.79 250.96,-122.05 256.73,-126.01"/>
</g>
<!-- node0x571f8bf8f6e0 -->
<g id="node9" class="node">
<title>node0x571f8bf8f6e0</title>
<path fill="#a24892" stroke="#203d98" d="M674,-152.5C674,-152.5 837,-152.5 837,-152.5 843,-152.5 849,-158.5 849,-164.5 849,-164.5 849,-255.5 849,-255.5 849,-261.5 843,-267.5 837,-267.5 837,-267.5 674,-267.5 674,-267.5 668,-267.5 662,-261.5 662,-255.5 662,-255.5 662,-164.5 662,-164.5 662,-158.5 668,-152.5 674,-152.5"/>
<text text-anchor="middle" x="755.5" y="-252.3" font-family="Times,serif" font-size="14.00">indx: 0x571f8bf8f6e0</text>
<polyline fill="none" stroke="#203d98" points="662,-244.5 849,-244.5 "/>
<text text-anchor="middle" x="755.5" y="-229.3" font-family="Times,serif" font-size="14.00">type: 2</text>
<polyline fill="none" stroke="#203d98" points="662,-221.5 849,-221.5 "/>
<text text-anchor="middle" x="755.5" y="-206.3" font-family="Times,serif" font-size="14.00">value: x</text>
<polyline fill="none" stroke="#203d98" points="662,-198.5 849,-198.5 "/>
<text text-anchor="middle" x="755.5" y="-183.3" font-family="Times,serif" font-size="14.00">parent: 0x571f8bf8f740</text>
<polyline fill="none" stroke="#203d98" points="662,-175.5 849,-175.5 "/>
<text text-anchor="middle" x="706" y="-160.3" font-family="Times,serif" font-size="14.00">left: (nil)</text>
<polyline fill="none" stroke="#203d98" points="750,-152.5 750,-175.5 "/>
<text text-anchor="middle" x="799.5" y="-160.3" font-family="Times,serif" font-size="14.00">right: (nil)</text>
</g>
<!-- node0x571f8bf8f740&#45;&gt;node0x571f8bf8f6e0 -->
<g id="edge8" class="edge">
<title>node0x571f8bf8f740&#45;&gt;node0x571f8bf8f6e0</title>
<path fill="none" stroke="#203d98" d="M779.13,-304.29C776.93,-295.61 774.65,-286.58 772.4,-277.71"/>
<polygon fill="#203d98" stroke="#203d98" points="775.74,-276.62 769.89,-267.79 768.95,-278.34 775.74,-276.62"/>
</g>
<!-- node0x571f8bf8f710 -->
<g id="node10" class="node">
<title>node0x571f8bf8f710</title>
<path fill="#faaa82" stroke="#203d98" d="M879,-152.5C879,-152.5 1042,-152.5 1042,-152.5 1048,-152.5 1054,-158.5 1054,-164.5 1054,-164.5 1054,-255.5 1054,-255.5 1054,-261.5 1048,-267.5 1042,-267.5 1042,-267.5 879,-267.5 879,-267.5 873,-267.5 867,-261.5 867,-255.5 867,-255.5 867,-164.5 867,-164.5 867,-158.5 873,-152.5 879,-152.5"/>
<text text-anchor="middle" x="960.5" y="-252.3" font-family="Times,serif" font-size="14.00">indx: 0x571f8bf8f710</text>
<polyline fill="none" stroke="#203d98" points="867,-244.5 1054,-244.5 "/>
<text text-anchor="middle" x="960.5" y="-229.3" font-family="Times,serif" font-size="14.00">type: 3</text>
<polyline fill="none" stroke="#203d98" points="867,-221.5 1054,-221.5 "/>
<text text-anchor="middle" x="960.5" y="-206.3" font-family="Times,serif" font-size="14.00">value: 4.00</text>
<polyline fill="none" stroke="#203d98" points="867,-198.5 1054,-198.5 "/>
<text text-anchor="middle" x="960.5" y="-183.3" font-family="Times,serif" font-size="14.00">parent: 0x571f8bf8f740</text>
<polyline fill="none" stroke="#203d98" points="867,-175.5 1054,-175.5 "/>
<text text-anchor="middle" x="911" y="-160.3" font-family="Times,serif" font-size="14.00">left: (nil)</text>
<polyline fill="none" stroke="#203d98" points="955,-152.5 955,-175.5 "/>
<text text-anchor="middle" x="1004.5" y="-160.3" font-family="Times,serif" font-size="14.00">right: (nil)</text>
</g>
<!-- node0x571f8bf8f740&#45;&gt;node0x571f8bf8f710 -->
<g id="edge9" class="edge">
<title>node0x571f8bf8f740&#45;&gt;node0x571f8bf8f710</title>
<path fill="none" stroke="#203d98" d="M856.64,-304.29C867.52,-294.52 878.89,-284.3 889.95,-274.37"/>
<polygon fill="#203d98" stroke="#203d98" points="892.45,-276.83 897.55,-267.54 887.77,-271.62 892.45,-276.83"/>
</g>
</g>
</svg>
