<?xml version="1.0" encoding="UTF-8" standalone="no"?>
<!DOCTYPE svg PUBLIC "-//W3C//DTD SVG 1.1//EN"
 "http://www.w3.org/Graphics/SVG/1.1/DTD/svg11.dtd">
<!-- Generated by graphviz version 2.43.0 (0)
 -->
<!-- Title: Tree Pages: 1 -->
<svg width="1420pt" height="1036pt"
 viewBox="0.00 0.00 1419.50 1036.00" xmlns="http://www.w3.org/2000/svg" xmlns:xlink="http://www.w3.org/1999/xlink">
<g id="graph0" class="graph" transform="scale(1 1) rotate(0) translate(4 1032)">
<title>Tree</title>
<polygon fill="#ffe7a5" stroke="transparent" points="-4,4 -4,-1032 1415.5,-1032 1415.5,4 -4,4"/>
<!-- node0x5ed651e00060 -->
<g id="node1" class="node">
<title>node0x5ed651e00060</title>
<path fill="#e07082" stroke="#203d98" d="M886.5,-912.5C886.5,-912.5 1219.5,-912.5 1219.5,-912.5 1225.5,-912.5 1231.5,-918.5 1231.5,-924.5 1231.5,-924.5 1231.5,-1015.5 1231.5,-1015.5 1231.5,-1021.5 1225.5,-1027.5 1219.5,-1027.5 1219.5,-1027.5 886.5,-1027.5 886.5,-1027.5 880.5,-1027.5 874.5,-1021.5 874.5,-1015.5 874.5,-1015.5 874.5,-924.5 874.5,-924.5 874.5,-918.5 880.5,-912.5 886.5,-912.5"/>
<text text-anchor="middle" x="1053" y="-1012.3" font-family="Times,serif" font-size="14.00">indx: 0x5ed651e00060</text>
<polyline fill="none" stroke="#203d98" points="874.5,-1004.5 1231.5,-1004.5 "/>
<text text-anchor="middle" x="1053" y="-989.3" font-family="Times,serif" font-size="14.00">type: 1</text>
<polyline fill="none" stroke="#203d98" points="874.5,-981.5 1231.5,-981.5 "/>
<text text-anchor="middle" x="1053" y="-966.3" font-family="Times,serif" font-size="14.00">value: /</text>
<polyline fill="none" stroke="#203d98" points="874.5,-958.5 1231.5,-958.5 "/>
<text text-anchor="middle" x="1053" y="-943.3" font-family="Times,serif" font-size="14.00">parent: (nil)</text>
<polyline fill="none" stroke="#203d98" points="874.5,-935.5 1231.5,-935.5 "/>
<text text-anchor="middle" x="961" y="-920.3" font-family="Times,serif" font-size="14.00">left: 0x5ed651e00000</text>
<polyline fill="none" stroke="#203d98" points="1047.5,-912.5 1047.5,-935.5 "/>
<text text-anchor="middle" x="1139.5" y="-920.3" font-family="Times,serif" font-size="14.00">right: 0x5ed651e123a0</text>
</g>
<!-- node0x5ed651e00000 -->
<g id="node2" class="node">
<title>node0x5ed651e00000</title>
<path fill="#e07082" stroke="#203d98" d="M752.5,-760.5C752.5,-760.5 1067.5,-760.5 1067.5,-760.5 1073.5,-760.5 1079.5,-766.5 1079.5,-772.5 1079.5,-772.5 1079.5,-863.5 1079.5,-863.5 1079.5,-869.5 1073.5,-875.5 1067.5,-875.5 1067.5,-875.5 752.5,-875.5 752.5,-875.5 746.5,-875.5 740.5,-869.5 740.5,-863.5 740.5,-863.5 740.5,-772.5 740.5,-772.5 740.5,-766.5 746.5,-760.5 752.5,-760.5"/>
<text text-anchor="middle" x="910" y="-860.3" font-family="Times,serif" font-size="14.00">indx: 0x5ed651e00000</text>
<polyline fill="none" stroke="#203d98" points="740.5,-852.5 1079.5,-852.5 "/>
<text text-anchor="middle" x="910" y="-837.3" font-family="Times,serif" font-size="14.00">type: 1</text>
<polyline fill="none" stroke="#203d98" points="740.5,-829.5 1079.5,-829.5 "/>
<text text-anchor="middle" x="910" y="-814.3" font-family="Times,serif" font-size="14.00">value: *</text>
<polyline fill="none" stroke="#203d98" points="740.5,-806.5 1079.5,-806.5 "/>
<text text-anchor="middle" x="910" y="-791.3" font-family="Times,serif" font-size="14.00">parent: 0x5ed651e00060</text>
<polyline fill="none" stroke="#203d98" points="740.5,-783.5 1079.5,-783.5 "/>
<text text-anchor="middle" x="823.5" y="-768.3" font-family="Times,serif" font-size="14.00">left: 0x5ed651dffd00</text>
<polyline fill="none" stroke="#203d98" points="906.5,-760.5 906.5,-783.5 "/>
<text text-anchor="middle" x="993" y="-768.3" font-family="Times,serif" font-size="14.00">right: 0x5ed651dfff10</text>
</g>
<!-- node0x5ed651e00060&#45;&gt;node0x5ed651e00000 -->
<g id="edge1" class="edge">
<title>node0x5ed651e00060&#45;&gt;node0x5ed651e00000</title>
<path fill="none" stroke="#203d98" d="M998.94,-912.29C989.86,-902.77 980.39,-892.83 971.15,-883.14"/>
<polygon fill="#203d98" stroke="#203d98" points="973.57,-880.61 964.14,-875.79 968.51,-885.44 973.57,-880.61"/>
</g>
<!-- node0x5ed651e123a0 -->
<g id="node17" class="node">
<title>node0x5ed651e123a0</title>
<path fill="#faaa82" stroke="#203d98" d="M1109.5,-760.5C1109.5,-760.5 1282.5,-760.5 1282.5,-760.5 1288.5,-760.5 1294.5,-766.5 1294.5,-772.5 1294.5,-772.5 1294.5,-863.5 1294.5,-863.5 1294.5,-869.5 1288.5,-875.5 1282.5,-875.5 1282.5,-875.5 1109.5,-875.5 1109.5,-875.5 1103.5,-875.5 1097.5,-869.5 1097.5,-863.5 1097.5,-863.5 1097.5,-772.5 1097.5,-772.5 1097.5,-766.5 1103.5,-760.5 1109.5,-760.5"/>
<text text-anchor="middle" x="1196" y="-860.3" font-family="Times,serif" font-size="14.00">indx: 0x5ed651e123a0</text>
<polyline fill="none" stroke="#203d98" points="1097.5,-852.5 1294.5,-852.5 "/>
<text text-anchor="middle" x="1196" y="-837.3" font-family="Times,serif" font-size="14.00">type: 3</text>
<polyline fill="none" stroke="#203d98" points="1097.5,-829.5 1294.5,-829.5 "/>
<text text-anchor="middle" x="1196" y="-814.3" font-family="Times,serif" font-size="14.00">value: 36.00</text>
<polyline fill="none" stroke="#203d98" points="1097.5,-806.5 1294.5,-806.5 "/>
<text text-anchor="middle" x="1196" y="-791.3" font-family="Times,serif" font-size="14.00">parent: 0x5ed651e00060</text>
<polyline fill="none" stroke="#203d98" points="1097.5,-783.5 1294.5,-783.5 "/>
<text text-anchor="middle" x="1144" y="-768.3" font-family="Times,serif" font-size="14.00">left: (nil)</text>
<polyline fill="none" stroke="#203d98" points="1190.5,-760.5 1190.5,-783.5 "/>
<text text-anchor="middle" x="1242.5" y="-768.3" font-family="Times,serif" font-size="14.00">right: (nil)</text>
</g>
<!-- node0x5ed651e00060&#45;&gt;node0x5ed651e123a0 -->
<g id="edge16" class="edge">
<title>node0x5ed651e00060&#45;&gt;node0x5ed651e123a0</title>
<path fill="none" stroke="#203d98" d="M1107.06,-912.29C1116.14,-902.77 1125.61,-892.83 1134.85,-883.14"/>
<polygon fill="#203d98" stroke="#203d98" points="1137.49,-885.44 1141.86,-875.79 1132.43,-880.61 1137.49,-885.44"/>
</g>
<!-- node0x5ed651dffd00 -->
<g id="node3" class="node">
<title>node0x5ed651dffd00</title>
<path fill="#e07082" stroke="#203d98" d="M602.5,-608.5C602.5,-608.5 927.5,-608.5 927.5,-608.5 933.5,-608.5 939.5,-614.5 939.5,-620.5 939.5,-620.5 939.5,-711.5 939.5,-711.5 939.5,-717.5 933.5,-723.5 927.5,-723.5 927.5,-723.5 602.5,-723.5 602.5,-723.5 596.5,-723.5 590.5,-717.5 590.5,-711.5 590.5,-711.5 590.5,-620.5 590.5,-620.5 590.5,-614.5 596.5,-608.5 602.5,-608.5"/>
<text text-anchor="middle" x="765" y="-708.3" font-family="Times,serif" font-size="14.00">indx: 0x5ed651dffd00</text>
<polyline fill="none" stroke="#203d98" points="590.5,-700.5 939.5,-700.5 "/>
<text text-anchor="middle" x="765" y="-685.3" font-family="Times,serif" font-size="14.00">type: 1</text>
<polyline fill="none" stroke="#203d98" points="590.5,-677.5 939.5,-677.5 "/>
<text text-anchor="middle" x="765" y="-662.3" font-family="Times,serif" font-size="14.00">value: +</text>
<polyline fill="none" stroke="#203d98" points="590.5,-654.5 939.5,-654.5 "/>
<text text-anchor="middle" x="765" y="-639.3" font-family="Times,serif" font-size="14.00">parent: 0x5ed651e00000</text>
<polyline fill="none" stroke="#203d98" points="590.5,-631.5 939.5,-631.5 "/>
<text text-anchor="middle" x="672.5" y="-616.3" font-family="Times,serif" font-size="14.00">left: 0x5ed651dffcd0</text>
<polyline fill="none" stroke="#203d98" points="754.5,-608.5 754.5,-631.5 "/>
<text text-anchor="middle" x="847" y="-616.3" font-family="Times,serif" font-size="14.00">right: 0x5ed651e12340</text>
</g>
<!-- node0x5ed651e00000&#45;&gt;node0x5ed651dffd00 -->
<g id="edge2" class="edge">
<title>node0x5ed651e00000&#45;&gt;node0x5ed651dffd00</title>
<path fill="none" stroke="#203d98" d="M855.18,-760.29C845.98,-750.77 836.37,-740.83 827,-731.14"/>
<polygon fill="#203d98" stroke="#203d98" points="829.36,-728.55 819.9,-723.79 824.33,-733.41 829.36,-728.55"/>
</g>
<!-- node0x5ed651dfff10 -->
<g id="node16" class="node">
<title>node0x5ed651dfff10</title>
<path fill="#faaa82" stroke="#203d98" d="M969.5,-608.5C969.5,-608.5 1142.5,-608.5 1142.5,-608.5 1148.5,-608.5 1154.5,-614.5 1154.5,-620.5 1154.5,-620.5 1154.5,-711.5 1154.5,-711.5 1154.5,-717.5 1148.5,-723.5 1142.5,-723.5 1142.5,-723.5 969.5,-723.5 969.5,-723.5 963.5,-723.5 957.5,-717.5 957.5,-711.5 957.5,-711.5 957.5,-620.5 957.5,-620.5 957.5,-614.5 963.5,-608.5 969.5,-608.5"/>
<text text-anchor="middle" x="1056" y="-708.3" font-family="Times,serif" font-size="14.00">indx: 0x5ed651dfff10</text>
<polyline fill="none" stroke="#203d98" points="957.5,-700.5 1154.5,-700.5 "/>
<text text-anchor="middle" x="1056" y="-685.3" font-family="Times,serif" font-size="14.00">type: 3</text>
<polyline fill="none" stroke="#203d98" points="957.5,-677.5 1154.5,-677.5 "/>
<text text-anchor="middle" x="1056" y="-662.3" font-family="Times,serif" font-size="14.00">value: 6.00</text>
<polyline fill="none" stroke="#203d98" points="957.5,-654.5 1154.5,-654.5 "/>
<text text-anchor="middle" x="1056" y="-639.3" font-family="Times,serif" font-size="14.00">parent: 0x5ed651e00000</text>
<polyline fill="none" stroke="#203d98" points="957.5,-631.5 1154.5,-631.5 "/>
<text text-anchor="middle" x="1004" y="-616.3" font-family="Times,serif" font-size="14.00">left: (nil)</text>
<polyline fill="none" stroke="#203d98" points="1050.5,-608.5 1050.5,-631.5 "/>
<text text-anchor="middle" x="1102.5" y="-616.3" font-family="Times,serif" font-size="14.00">right: (nil)</text>
</g>
<!-- node0x5ed651e00000&#45;&gt;node0x5ed651dfff10 -->
<g id="edge15" class="edge">
<title>node0x5ed651e00000&#45;&gt;node0x5ed651dfff10</title>
<path fill="none" stroke="#203d98" d="M965.2,-760.29C974.46,-750.77 984.14,-740.83 993.57,-731.14"/>
<polygon fill="#203d98" stroke="#203d98" points="996.26,-733.4 1000.73,-723.79 991.24,-728.51 996.26,-733.4"/>
</g>
<!-- node0x5ed651dffcd0 -->
<g id="node4" class="node">
<title>node0x5ed651dffcd0</title>
<path fill="#e07082" stroke="#203d98" d="M416.5,-456.5C416.5,-456.5 741.5,-456.5 741.5,-456.5 747.5,-456.5 753.5,-462.5 753.5,-468.5 753.5,-468.5 753.5,-559.5 753.5,-559.5 753.5,-565.5 747.5,-571.5 741.5,-571.5 741.5,-571.5 416.5,-571.5 416.5,-571.5 410.5,-571.5 404.5,-565.5 404.5,-559.5 404.5,-559.5 404.5,-468.5 404.5,-468.5 404.5,-462.5 410.5,-456.5 416.5,-456.5"/>
<text text-anchor="middle" x="579" y="-556.3" font-family="Times,serif" font-size="14.00">indx: 0x5ed651dffcd0</text>
<polyline fill="none" stroke="#203d98" points="404.5,-548.5 753.5,-548.5 "/>
<text text-anchor="middle" x="579" y="-533.3" font-family="Times,serif" font-size="14.00">type: 1</text>
<polyline fill="none" stroke="#203d98" points="404.5,-525.5 753.5,-525.5 "/>
<text text-anchor="middle" x="579" y="-510.3" font-family="Times,serif" font-size="14.00">value: *</text>
<polyline fill="none" stroke="#203d98" points="404.5,-502.5 753.5,-502.5 "/>
<text text-anchor="middle" x="579" y="-487.3" font-family="Times,serif" font-size="14.00">parent: 0x5ed651dffd00</text>
<polyline fill="none" stroke="#203d98" points="404.5,-479.5 753.5,-479.5 "/>
<text text-anchor="middle" x="486.5" y="-464.3" font-family="Times,serif" font-size="14.00">left: 0x5ed651dffca0</text>
<polyline fill="none" stroke="#203d98" points="568.5,-456.5 568.5,-479.5 "/>
<text text-anchor="middle" x="661" y="-464.3" font-family="Times,serif" font-size="14.00">right: 0x5ed651e12250</text>
</g>
<!-- node0x5ed651dffd00&#45;&gt;node0x5ed651dffcd0 -->
<g id="edge3" class="edge">
<title>node0x5ed651dffd00&#45;&gt;node0x5ed651dffcd0</title>
<path fill="none" stroke="#203d98" d="M694.68,-608.29C682.44,-598.42 669.65,-588.11 657.22,-578.08"/>
<polygon fill="#203d98" stroke="#203d98" points="659.09,-575.09 649.11,-571.54 654.7,-580.54 659.09,-575.09"/>
</g>
<!-- node0x5ed651e12340 -->
<g id="node11" class="node">
<title>node0x5ed651e12340</title>
<path fill="#e07082" stroke="#203d98" d="M784,-456.5C784,-456.5 1118,-456.5 1118,-456.5 1124,-456.5 1130,-462.5 1130,-468.5 1130,-468.5 1130,-559.5 1130,-559.5 1130,-565.5 1124,-571.5 1118,-571.5 1118,-571.5 784,-571.5 784,-571.5 778,-571.5 772,-565.5 772,-559.5 772,-559.5 772,-468.5 772,-468.5 772,-462.5 778,-456.5 784,-456.5"/>
<text text-anchor="middle" x="951" y="-556.3" font-family="Times,serif" font-size="14.00">indx: 0x5ed651e12340</text>
<polyline fill="none" stroke="#203d98" points="772,-548.5 1130,-548.5 "/>
<text text-anchor="middle" x="951" y="-533.3" font-family="Times,serif" font-size="14.00">type: 1</text>
<polyline fill="none" stroke="#203d98" points="772,-525.5 1130,-525.5 "/>
<text text-anchor="middle" x="951" y="-510.3" font-family="Times,serif" font-size="14.00">value: *</text>
<polyline fill="none" stroke="#203d98" points="772,-502.5 1130,-502.5 "/>
<text text-anchor="middle" x="951" y="-487.3" font-family="Times,serif" font-size="14.00">parent: 0x5ed651dffd00</text>
<polyline fill="none" stroke="#203d98" points="772,-479.5 1130,-479.5 "/>
<text text-anchor="middle" x="858.5" y="-464.3" font-family="Times,serif" font-size="14.00">left: 0x5ed651e12310</text>
<polyline fill="none" stroke="#203d98" points="945,-456.5 945,-479.5 "/>
<text text-anchor="middle" x="1037.5" y="-464.3" font-family="Times,serif" font-size="14.00">right: 0x5ed651e12280</text>
</g>
<!-- node0x5ed651dffd00&#45;&gt;node0x5ed651e12340 -->
<g id="edge10" class="edge">
<title>node0x5ed651dffd00&#45;&gt;node0x5ed651e12340</title>
<path fill="none" stroke="#203d98" d="M835.32,-608.29C847.56,-598.42 860.35,-588.11 872.78,-578.08"/>
<polygon fill="#203d98" stroke="#203d98" points="875.3,-580.54 880.89,-571.54 870.91,-575.09 875.3,-580.54"/>
</g>
<!-- node0x5ed651dffca0 -->
<g id="node5" class="node">
<title>node0x5ed651dffca0</title>
<path fill="#e07082" stroke="#203d98" d="M180,-304.5C180,-304.5 496,-304.5 496,-304.5 502,-304.5 508,-310.5 508,-316.5 508,-316.5 508,-407.5 508,-407.5 508,-413.5 502,-419.5 496,-419.5 496,-419.5 180,-419.5 180,-419.5 174,-419.5 168,-413.5 168,-407.5 168,-407.5 168,-316.5 168,-316.5 168,-310.5 174,-304.5 180,-304.5"/>
<text text-anchor="middle" x="338" y="-404.3" font-family="Times,serif" font-size="14.00">indx: 0x5ed651dffca0</text>
<polyline fill="none" stroke="#203d98" points="168,-396.5 508,-396.5 "/>
<text text-anchor="middle" x="338" y="-381.3" font-family="Times,serif" font-size="14.00">type: 1</text>
<polyline fill="none" stroke="#203d98" points="168,-373.5 508,-373.5 "/>
<text text-anchor="middle" x="338" y="-358.3" font-family="Times,serif" font-size="14.00">value: cos</text>
<polyline fill="none" stroke="#203d98" points="168,-350.5 508,-350.5 "/>
<text text-anchor="middle" x="338" y="-335.3" font-family="Times,serif" font-size="14.00">parent: 0x5ed651dffcd0</text>
<polyline fill="none" stroke="#203d98" points="168,-327.5 508,-327.5 "/>
<text text-anchor="middle" x="250" y="-312.3" font-family="Times,serif" font-size="14.00">left: 0x5ed651dffc10</text>
<polyline fill="none" stroke="#203d98" points="332,-304.5 332,-327.5 "/>
<text text-anchor="middle" x="420" y="-312.3" font-family="Times,serif" font-size="14.00">right: 0x5ed651dffbe0</text>
</g>
<!-- node0x5ed651dffcd0&#45;&gt;node0x5ed651dffca0 -->
<g id="edge4" class="edge">
<title>node0x5ed651dffcd0&#45;&gt;node0x5ed651dffca0</title>
<path fill="none" stroke="#203d98" d="M487.89,-456.29C471.43,-446.05 454.19,-435.32 437.51,-424.93"/>
<polygon fill="#203d98" stroke="#203d98" points="439.18,-421.85 428.84,-419.54 435.48,-427.8 439.18,-421.85"/>
</g>
<!-- node0x5ed651e12250 -->
<g id="node10" class="node">
<title>node0x5ed651e12250</title>
<path fill="#faaa82" stroke="#203d98" d="M538,-304.5C538,-304.5 702,-304.5 702,-304.5 708,-304.5 714,-310.5 714,-316.5 714,-316.5 714,-407.5 714,-407.5 714,-413.5 708,-419.5 702,-419.5 702,-419.5 538,-419.5 538,-419.5 532,-419.5 526,-413.5 526,-407.5 526,-407.5 526,-316.5 526,-316.5 526,-310.5 532,-304.5 538,-304.5"/>
<text text-anchor="middle" x="620" y="-404.3" font-family="Times,serif" font-size="14.00">indx: 0x5ed651e12250</text>
<polyline fill="none" stroke="#203d98" points="526,-396.5 714,-396.5 "/>
<text text-anchor="middle" x="620" y="-381.3" font-family="Times,serif" font-size="14.00">type: 3</text>
<polyline fill="none" stroke="#203d98" points="526,-373.5 714,-373.5 "/>
<text text-anchor="middle" x="620" y="-358.3" font-family="Times,serif" font-size="14.00">value: 5.50</text>
<polyline fill="none" stroke="#203d98" points="526,-350.5 714,-350.5 "/>
<text text-anchor="middle" x="620" y="-335.3" font-family="Times,serif" font-size="14.00">parent: 0x5ed651dffcd0</text>
<polyline fill="none" stroke="#203d98" points="526,-327.5 714,-327.5 "/>
<text text-anchor="middle" x="570" y="-312.3" font-family="Times,serif" font-size="14.00">left: (nil)</text>
<polyline fill="none" stroke="#203d98" points="614,-304.5 614,-327.5 "/>
<text text-anchor="middle" x="664" y="-312.3" font-family="Times,serif" font-size="14.00">right: (nil)</text>
</g>
<!-- node0x5ed651dffcd0&#45;&gt;node0x5ed651e12250 -->
<g id="edge9" class="edge">
<title>node0x5ed651dffcd0&#45;&gt;node0x5ed651e12250</title>
<path fill="none" stroke="#203d98" d="M594.5,-456.29C596.87,-447.61 599.34,-438.58 601.77,-429.71"/>
<polygon fill="#203d98" stroke="#203d98" points="605.22,-430.36 604.48,-419.79 598.46,-428.51 605.22,-430.36"/>
</g>
<!-- node0x5ed651dffc10 -->
<g id="node6" class="node">
<title>node0x5ed651dffc10</title>
<path fill="#e07082" stroke="#203d98" d="M39,-152.5C39,-152.5 355,-152.5 355,-152.5 361,-152.5 367,-158.5 367,-164.5 367,-164.5 367,-255.5 367,-255.5 367,-261.5 361,-267.5 355,-267.5 355,-267.5 39,-267.5 39,-267.5 33,-267.5 27,-261.5 27,-255.5 27,-255.5 27,-164.5 27,-164.5 27,-158.5 33,-152.5 39,-152.5"/>
<text text-anchor="middle" x="197" y="-252.3" font-family="Times,serif" font-size="14.00">indx: 0x5ed651dffc10</text>
<polyline fill="none" stroke="#203d98" points="27,-244.5 367,-244.5 "/>
<text text-anchor="middle" x="197" y="-229.3" font-family="Times,serif" font-size="14.00">type: 1</text>
<polyline fill="none" stroke="#203d98" points="27,-221.5 367,-221.5 "/>
<text text-anchor="middle" x="197" y="-206.3" font-family="Times,serif" font-size="14.00">value: *</text>
<polyline fill="none" stroke="#203d98" points="27,-198.5 367,-198.5 "/>
<text text-anchor="middle" x="197" y="-183.3" font-family="Times,serif" font-size="14.00">parent: 0x5ed651dffca0</text>
<polyline fill="none" stroke="#203d98" points="27,-175.5 367,-175.5 "/>
<text text-anchor="middle" x="109" y="-160.3" font-family="Times,serif" font-size="14.00">left: 0x5ed651dffc40</text>
<polyline fill="none" stroke="#203d98" points="191,-152.5 191,-175.5 "/>
<text text-anchor="middle" x="279" y="-160.3" font-family="Times,serif" font-size="14.00">right: 0x5ed651dffc70</text>
</g>
<!-- node0x5ed651dffca0&#45;&gt;node0x5ed651dffc10 -->
<g id="edge5" class="edge">
<title>node0x5ed651dffca0&#45;&gt;node0x5ed651dffc10</title>
<path fill="none" stroke="#203d98" d="M284.69,-304.29C275.75,-294.77 266.4,-284.83 257.29,-275.14"/>
<polygon fill="#203d98" stroke="#203d98" points="259.78,-272.68 250.38,-267.79 254.68,-277.47 259.78,-272.68"/>
</g>
<!-- node0x5ed651dffbe0 -->
<g id="node9" class="node">
<title>node0x5ed651dffbe0</title>
<path fill="#faaa82" stroke="#203d98" d="M397.5,-152.5C397.5,-152.5 560.5,-152.5 560.5,-152.5 566.5,-152.5 572.5,-158.5 572.5,-164.5 572.5,-164.5 572.5,-255.5 572.5,-255.5 572.5,-261.5 566.5,-267.5 560.5,-267.5 560.5,-267.5 397.5,-267.5 397.5,-267.5 391.5,-267.5 385.5,-261.5 385.5,-255.5 385.5,-255.5 385.5,-164.5 385.5,-164.5 385.5,-158.5 391.5,-152.5 397.5,-152.5"/>
<text text-anchor="middle" x="479" y="-252.3" font-family="Times,serif" font-size="14.00">indx: 0x5ed651dffbe0</text>
<polyline fill="none" stroke="#203d98" points="385.5,-244.5 572.5,-244.5 "/>
<text text-anchor="middle" x="479" y="-229.3" font-family="Times,serif" font-size="14.00">type: 3</text>
<polyline fill="none" stroke="#203d98" points="385.5,-221.5 572.5,-221.5 "/>
<text text-anchor="middle" x="479" y="-206.3" font-family="Times,serif" font-size="14.00">value: 0.00</text>
<polyline fill="none" stroke="#203d98" points="385.5,-198.5 572.5,-198.5 "/>
<text text-anchor="middle" x="479" y="-183.3" font-family="Times,serif" font-size="14.00">parent: 0x5ed651dffca0</text>
<polyline fill="none" stroke="#203d98" points="385.5,-175.5 572.5,-175.5 "/>
<text text-anchor="middle" x="429.5" y="-160.3" font-family="Times,serif" font-size="14.00">left: (nil)</text>
<polyline fill="none" stroke="#203d98" points="473.5,-152.5 473.5,-175.5 "/>
<text text-anchor="middle" x="523" y="-160.3" font-family="Times,serif" font-size="14.00">right: (nil)</text>
</g>
<!-- node0x5ed651dffca0&#45;&gt;node0x5ed651dffbe0 -->
<g id="edge8" class="edge">
<title>node0x5ed651dffca0&#45;&gt;node0x5ed651dffbe0</title>
<path fill="none" stroke="#203d98" d="M391.31,-304.29C400.25,-294.77 409.6,-284.83 418.71,-275.14"/>
<polygon fill="#203d98" stroke="#203d98" points="421.32,-277.47 425.62,-267.79 416.22,-272.68 421.32,-277.47"/>
</g>
<!-- node0x5ed651dffc40 -->
<g id="node7" class="node">
<title>node0x5ed651dffc40</title>
<path fill="#faaa82" stroke="#203d98" d="M12,-0.5C12,-0.5 176,-0.5 176,-0.5 182,-0.5 188,-6.5 188,-12.5 188,-12.5 188,-103.5 188,-103.5 188,-109.5 182,-115.5 176,-115.5 176,-115.5 12,-115.5 12,-115.5 6,-115.5 0,-109.5 0,-103.5 0,-103.5 0,-12.5 0,-12.5 0,-6.5 6,-0.5 12,-0.5"/>
<text text-anchor="middle" x="94" y="-100.3" font-family="Times,serif" font-size="14.00">indx: 0x5ed651dffc40</text>
<polyline fill="none" stroke="#203d98" points="0,-92.5 188,-92.5 "/>
<text text-anchor="middle" x="94" y="-77.3" font-family="Times,serif" font-size="14.00">type: 3</text>
<polyline fill="none" stroke="#203d98" points="0,-69.5 188,-69.5 "/>
<text text-anchor="middle" x="94" y="-54.3" font-family="Times,serif" font-size="14.00">value: 5.50</text>
<polyline fill="none" stroke="#203d98" points="0,-46.5 188,-46.5 "/>
<text text-anchor="middle" x="94" y="-31.3" font-family="Times,serif" font-size="14.00">parent: 0x5ed651dffc10</text>
<polyline fill="none" stroke="#203d98" points="0,-23.5 188,-23.5 "/>
<text text-anchor="middle" x="44" y="-8.3" font-family="Times,serif" font-size="14.00">left: (nil)</text>
<polyline fill="none" stroke="#203d98" points="88,-0.5 88,-23.5 "/>
<text text-anchor="middle" x="138" y="-8.3" font-family="Times,serif" font-size="14.00">right: (nil)</text>
</g>
<!-- node0x5ed651dffc10&#45;&gt;node0x5ed651dffc40 -->
<g id="edge6" class="edge">
<title>node0x5ed651dffc10&#45;&gt;node0x5ed651dffc40</title>
<path fill="none" stroke="#203d98" d="M158.06,-152.29C151.78,-143.14 145.23,-133.61 138.83,-124.28"/>
<polygon fill="#203d98" stroke="#203d98" points="141.54,-122.05 132.99,-115.79 135.77,-126.01 141.54,-122.05"/>
</g>
<!-- node0x5ed651dffc70 -->
<g id="node8" class="node">
<title>node0x5ed651dffc70</title>
<path fill="#a24892" stroke="#203d98" d="M218,-0.5C218,-0.5 382,-0.5 382,-0.5 388,-0.5 394,-6.5 394,-12.5 394,-12.5 394,-103.5 394,-103.5 394,-109.5 388,-115.5 382,-115.5 382,-115.5 218,-115.5 218,-115.5 212,-115.5 206,-109.5 206,-103.5 206,-103.5 206,-12.5 206,-12.5 206,-6.5 212,-0.5 218,-0.5"/>
<text text-anchor="middle" x="300" y="-100.3" font-family="Times,serif" font-size="14.00">indx: 0x5ed651dffc70</text>
<polyline fill="none" stroke="#203d98" points="206,-92.5 394,-92.5 "/>
<text text-anchor="middle" x="300" y="-77.3" font-family="Times,serif" font-size="14.00">type: 2</text>
<polyline fill="none" stroke="#203d98" points="206,-69.5 394,-69.5 "/>
<text text-anchor="middle" x="300" y="-54.3" font-family="Times,serif" font-size="14.00">value: x</text>
<polyline fill="none" stroke="#203d98" points="206,-46.5 394,-46.5 "/>
<text text-anchor="middle" x="300" y="-31.3" font-family="Times,serif" font-size="14.00">parent: 0x5ed651dffc10</text>
<polyline fill="none" stroke="#203d98" points="206,-23.5 394,-23.5 "/>
<text text-anchor="middle" x="250" y="-8.3" font-family="Times,serif" font-size="14.00">left: (nil)</text>
<polyline fill="none" stroke="#203d98" points="294,-0.5 294,-23.5 "/>
<text text-anchor="middle" x="344" y="-8.3" font-family="Times,serif" font-size="14.00">right: (nil)</text>
</g>
<!-- node0x5ed651dffc10&#45;&gt;node0x5ed651dffc70 -->
<g id="edge7" class="edge">
<title>node0x5ed651dffc10&#45;&gt;node0x5ed651dffc70</title>
<path fill="none" stroke="#203d98" d="M235.94,-152.29C242.22,-143.14 248.77,-133.61 255.17,-124.28"/>
<polygon fill="#203d98" stroke="#203d98" points="258.23,-126.01 261.01,-115.79 252.46,-122.05 258.23,-126.01"/>
</g>
<!-- node0x5ed651e12310 -->
<g id="node12" class="node">
<title>node0x5ed651e12310</title>
<path fill="#faaa82" stroke="#203d98" d="M824.5,-304.5C824.5,-304.5 997.5,-304.5 997.5,-304.5 1003.5,-304.5 1009.5,-310.5 1009.5,-316.5 1009.5,-316.5 1009.5,-407.5 1009.5,-407.5 1009.5,-413.5 1003.5,-419.5 997.5,-419.5 997.5,-419.5 824.5,-419.5 824.5,-419.5 818.5,-419.5 812.5,-413.5 812.5,-407.5 812.5,-407.5 812.5,-316.5 812.5,-316.5 812.5,-310.5 818.5,-304.5 824.5,-304.5"/>
<text text-anchor="middle" x="911" y="-404.3" font-family="Times,serif" font-size="14.00">indx: 0x5ed651e12310</text>
<polyline fill="none" stroke="#203d98" points="812.5,-396.5 1009.5,-396.5 "/>
<text text-anchor="middle" x="911" y="-381.3" font-family="Times,serif" font-size="14.00">type: 3</text>
<polyline fill="none" stroke="#203d98" points="812.5,-373.5 1009.5,-373.5 "/>
<text text-anchor="middle" x="911" y="-358.3" font-family="Times,serif" font-size="14.00">value: 4.00</text>
<polyline fill="none" stroke="#203d98" points="812.5,-350.5 1009.5,-350.5 "/>
<text text-anchor="middle" x="911" y="-335.3" font-family="Times,serif" font-size="14.00">parent: 0x5ed651e12340</text>
<polyline fill="none" stroke="#203d98" points="812.5,-327.5 1009.5,-327.5 "/>
<text text-anchor="middle" x="859" y="-312.3" font-family="Times,serif" font-size="14.00">left: (nil)</text>
<polyline fill="none" stroke="#203d98" points="905.5,-304.5 905.5,-327.5 "/>
<text text-anchor="middle" x="957.5" y="-312.3" font-family="Times,serif" font-size="14.00">right: (nil)</text>
</g>
<!-- node0x5ed651e12340&#45;&gt;node0x5ed651e12310 -->
<g id="edge11" class="edge">
<title>node0x5ed651e12340&#45;&gt;node0x5ed651e12310</title>
<path fill="none" stroke="#203d98" d="M935.88,-456.29C933.56,-447.61 931.16,-438.58 928.79,-429.71"/>
<polygon fill="#203d98" stroke="#203d98" points="932.1,-428.55 926.14,-419.79 925.34,-430.35 932.1,-428.55"/>
</g>
<!-- node0x5ed651e12280 -->
<g id="node13" class="node">
<title>node0x5ed651e12280</title>
<path fill="#e07082" stroke="#203d98" d="M1039.5,-304.5C1039.5,-304.5 1372.5,-304.5 1372.5,-304.5 1378.5,-304.5 1384.5,-310.5 1384.5,-316.5 1384.5,-316.5 1384.5,-407.5 1384.5,-407.5 1384.5,-413.5 1378.5,-419.5 1372.5,-419.5 1372.5,-419.5 1039.5,-419.5 1039.5,-419.5 1033.5,-419.5 1027.5,-413.5 1027.5,-407.5 1027.5,-407.5 1027.5,-316.5 1027.5,-316.5 1027.5,-310.5 1033.5,-304.5 1039.5,-304.5"/>
<text text-anchor="middle" x="1206" y="-404.3" font-family="Times,serif" font-size="14.00">indx: 0x5ed651e12280</text>
<polyline fill="none" stroke="#203d98" points="1027.5,-396.5 1384.5,-396.5 "/>
<text text-anchor="middle" x="1206" y="-381.3" font-family="Times,serif" font-size="14.00">type: 1</text>
<polyline fill="none" stroke="#203d98" points="1027.5,-373.5 1384.5,-373.5 "/>
<text text-anchor="middle" x="1206" y="-358.3" font-family="Times,serif" font-size="14.00">value: ^</text>
<polyline fill="none" stroke="#203d98" points="1027.5,-350.5 1384.5,-350.5 "/>
<text text-anchor="middle" x="1206" y="-335.3" font-family="Times,serif" font-size="14.00">parent: 0x5ed651e12340</text>
<polyline fill="none" stroke="#203d98" points="1027.5,-327.5 1384.5,-327.5 "/>
<text text-anchor="middle" x="1114" y="-312.3" font-family="Times,serif" font-size="14.00">left: 0x5ed651e122b0</text>
<polyline fill="none" stroke="#203d98" points="1200.5,-304.5 1200.5,-327.5 "/>
<text text-anchor="middle" x="1292.5" y="-312.3" font-family="Times,serif" font-size="14.00">right: 0x5ed651e122e0</text>
</g>
<!-- node0x5ed651e12340&#45;&gt;node0x5ed651e12280 -->
<g id="edge12" class="edge">
<title>node0x5ed651e12340&#45;&gt;node0x5ed651e12280</title>
<path fill="none" stroke="#203d98" d="M1047.4,-456.29C1064.98,-445.95 1083.39,-435.12 1101.2,-424.65"/>
<polygon fill="#203d98" stroke="#203d98" points="1103.04,-427.63 1109.88,-419.54 1099.49,-421.59 1103.04,-427.63"/>
</g>
<!-- node0x5ed651e122b0 -->
<g id="node14" class="node">
<title>node0x5ed651e122b0</title>
<path fill="#a24892" stroke="#203d98" d="M1011.5,-152.5C1011.5,-152.5 1184.5,-152.5 1184.5,-152.5 1190.5,-152.5 1196.5,-158.5 1196.5,-164.5 1196.5,-164.5 1196.5,-255.5 1196.5,-255.5 1196.5,-261.5 1190.5,-267.5 1184.5,-267.5 1184.5,-267.5 1011.5,-267.5 1011.5,-267.5 1005.5,-267.5 999.5,-261.5 999.5,-255.5 999.5,-255.5 999.5,-164.5 999.5,-164.5 999.5,-158.5 1005.5,-152.5 1011.5,-152.5"/>
<text text-anchor="middle" x="1098" y="-252.3" font-family="Times,serif" font-size="14.00">indx: 0x5ed651e122b0</text>
<polyline fill="none" stroke="#203d98" points="999.5,-244.5 1196.5,-244.5 "/>
<text text-anchor="middle" x="1098" y="-229.3" font-family="Times,serif" font-size="14.00">type: 2</text>
<polyline fill="none" stroke="#203d98" points="999.5,-221.5 1196.5,-221.5 "/>
<text text-anchor="middle" x="1098" y="-206.3" font-family="Times,serif" font-size="14.00">value: x</text>
<polyline fill="none" stroke="#203d98" points="999.5,-198.5 1196.5,-198.5 "/>
<text text-anchor="middle" x="1098" y="-183.3" font-family="Times,serif" font-size="14.00">parent: 0x5ed651e12280</text>
<polyline fill="none" stroke="#203d98" points="999.5,-175.5 1196.5,-175.5 "/>
<text text-anchor="middle" x="1046" y="-160.3" font-family="Times,serif" font-size="14.00">left: (nil)</text>
<polyline fill="none" stroke="#203d98" points="1092.5,-152.5 1092.5,-175.5 "/>
<text text-anchor="middle" x="1144.5" y="-160.3" font-family="Times,serif" font-size="14.00">right: (nil)</text>
</g>
<!-- node0x5ed651e12280&#45;&gt;node0x5ed651e122b0 -->
<g id="edge13" class="edge">
<title>node0x5ed651e12280&#45;&gt;node0x5ed651e122b0</title>
<path fill="none" stroke="#203d98" d="M1165.17,-304.29C1158.52,-295.05 1151.58,-285.42 1144.8,-276"/>
<polygon fill="#203d98" stroke="#203d98" points="1147.57,-273.86 1138.89,-267.79 1141.89,-277.95 1147.57,-273.86"/>
</g>
<!-- node0x5ed651e122e0 -->
<g id="node15" class="node">
<title>node0x5ed651e122e0</title>
<path fill="#faaa82" stroke="#203d98" d="M1226.5,-152.5C1226.5,-152.5 1399.5,-152.5 1399.5,-152.5 1405.5,-152.5 1411.5,-158.5 1411.5,-164.5 1411.5,-164.5 1411.5,-255.5 1411.5,-255.5 1411.5,-261.5 1405.5,-267.5 1399.5,-267.5 1399.5,-267.5 1226.5,-267.5 1226.5,-267.5 1220.5,-267.5 1214.5,-261.5 1214.5,-255.5 1214.5,-255.5 1214.5,-164.5 1214.5,-164.5 1214.5,-158.5 1220.5,-152.5 1226.5,-152.5"/>
<text text-anchor="middle" x="1313" y="-252.3" font-family="Times,serif" font-size="14.00">indx: 0x5ed651e122e0</text>
<polyline fill="none" stroke="#203d98" points="1214.5,-244.5 1411.5,-244.5 "/>
<text text-anchor="middle" x="1313" y="-229.3" font-family="Times,serif" font-size="14.00">type: 3</text>
<polyline fill="none" stroke="#203d98" points="1214.5,-221.5 1411.5,-221.5 "/>
<text text-anchor="middle" x="1313" y="-206.3" font-family="Times,serif" font-size="14.00">value: 3.00</text>
<polyline fill="none" stroke="#203d98" points="1214.5,-198.5 1411.5,-198.5 "/>
<text text-anchor="middle" x="1313" y="-183.3" font-family="Times,serif" font-size="14.00">parent: 0x5ed651e12280</text>
<polyline fill="none" stroke="#203d98" points="1214.5,-175.5 1411.5,-175.5 "/>
<text text-anchor="middle" x="1261" y="-160.3" font-family="Times,serif" font-size="14.00">left: (nil)</text>
<polyline fill="none" stroke="#203d98" points="1307.5,-152.5 1307.5,-175.5 "/>
<text text-anchor="middle" x="1359.5" y="-160.3" font-family="Times,serif" font-size="14.00">right: (nil)</text>
</g>
<!-- node0x5ed651e12280&#45;&gt;node0x5ed651e122e0 -->
<g id="edge14" class="edge">
<title>node0x5ed651e12280&#45;&gt;node0x5ed651e122e0</title>
<path fill="none" stroke="#203d98" d="M1246.45,-304.29C1253.04,-295.05 1259.92,-285.42 1266.64,-276"/>
<polygon fill="#203d98" stroke="#203d98" points="1269.53,-277.96 1272.49,-267.79 1263.83,-273.9 1269.53,-277.96"/>
</g>
</g>
</svg>
